M48
;DRILL file {KiCad no-vcs-found-product} date Wed Nov 23 11:00:06 2016
;FORMAT={-:-/ absolute / metric / decimal}
FMAT,2
METRIC,TZ
T1C0.600
T2C0.700
T3C0.900
T4C1.000
T5C4.000
%
G90
G05
M71
T1
X120.19Y-98.
X122.77Y-107.3
X123.74Y-100.84
X123.85Y-95.23
X124.02Y-97.78
X126.33Y-98.76
X129.07Y-97.48
X131.45Y-97.5
X132.21Y-96.22
X166.52Y-90.3
X177.92Y-105.55
X179.49Y-88.87
X179.59Y-97.42
X180.53Y-102.03
X181.64Y-101.01
T2
X184.2Y-104.954
X184.2Y-106.554
X184.2Y-108.154
X185.4Y-105.754
X185.4Y-107.354
T3
X112.83Y-93.845
X112.83Y-96.615
X112.83Y-99.385
X112.83Y-102.155
X115.37Y-92.46
X115.37Y-95.23
X115.37Y-98.
X115.37Y-100.77
X115.37Y-103.54
T4
X187.1Y-86.328
X187.1Y-88.868
X187.1Y-94.881
X187.1Y-97.421
T5
X119.43Y-73.87
X119.43Y-122.13
X185.47Y-77.045
X185.47Y-118.955
T2
X188.65Y-102.904G85X189.85Y-102.904
G05
X188.65Y-110.204G85X189.85Y-110.204
G05
T0
M30
