G04 #@! TF.FileFunction,Copper,L1,Top,Signal*
%FSLAX46Y46*%
G04 Gerber Fmt 4.6, Leading zero omitted, Abs format (unit mm)*
G04 Created by KiCad (PCBNEW no-vcs-found-product) date Wed Nov 23 11:00:00 2016*
%MOMM*%
%LPD*%
G01*
G04 APERTURE LIST*
%ADD10C,0.100000*%
%ADD11C,0.200000*%
%ADD12C,0.010000*%
%ADD13R,2.500000X2.000000*%
%ADD14R,1.250000X1.500000*%
%ADD15R,1.500000X1.250000*%
%ADD16R,1.300000X1.500000*%
%ADD17O,2.700000X1.700000*%
%ADD18O,1.650000X1.100000*%
%ADD19C,1.600000*%
%ADD20C,5.000000*%
%ADD21R,1.500000X1.300000*%
%ADD22R,1.750000X0.450000*%
%ADD23R,2.000000X0.600000*%
%ADD24C,1.400000*%
%ADD25C,1.000000*%
%ADD26C,0.900000*%
%ADD27C,0.500000*%
%ADD28C,0.400000*%
%ADD29C,0.250000*%
%ADD30C,0.050000*%
G04 APERTURE END LIST*
D10*
D11*
X144908571Y-122790000D02*
X144765714Y-122718571D01*
X144551428Y-122718571D01*
X144337142Y-122790000D01*
X144194285Y-122932857D01*
X144122857Y-123075714D01*
X144051428Y-123361428D01*
X144051428Y-123575714D01*
X144122857Y-123861428D01*
X144194285Y-124004285D01*
X144337142Y-124147142D01*
X144551428Y-124218571D01*
X144694285Y-124218571D01*
X144908571Y-124147142D01*
X144979999Y-124075714D01*
X144979999Y-123575714D01*
X144694285Y-123575714D01*
X145622857Y-124218571D02*
X145622857Y-123218571D01*
X145622857Y-123504285D02*
X145694285Y-123361428D01*
X145765714Y-123290000D01*
X145908571Y-123218571D01*
X146051428Y-123218571D01*
X147194285Y-123218571D02*
X147194285Y-124218571D01*
X146551428Y-123218571D02*
X146551428Y-124004285D01*
X146622857Y-124147142D01*
X146765714Y-124218571D01*
X146979999Y-124218571D01*
X147122857Y-124147142D01*
X147194285Y-124075714D01*
X147908571Y-123218571D02*
X147908571Y-124718571D01*
X147908571Y-123290000D02*
X148051428Y-123218571D01*
X148337142Y-123218571D01*
X148479999Y-123290000D01*
X148551428Y-123361428D01*
X148622857Y-123504285D01*
X148622857Y-123932857D01*
X148551428Y-124075714D01*
X148479999Y-124147142D01*
X148337142Y-124218571D01*
X148051428Y-124218571D01*
X147908571Y-124147142D01*
X149479999Y-124218571D02*
X149337142Y-124147142D01*
X149265714Y-124075714D01*
X149194285Y-123932857D01*
X149194285Y-123504285D01*
X149265714Y-123361428D01*
X149337142Y-123290000D01*
X149479999Y-123218571D01*
X149694285Y-123218571D01*
X149837142Y-123290000D01*
X149908571Y-123361428D01*
X149979999Y-123504285D01*
X149979999Y-123932857D01*
X149908571Y-124075714D01*
X149837142Y-124147142D01*
X149694285Y-124218571D01*
X149479999Y-124218571D01*
X152408571Y-124218571D02*
X152408571Y-122718571D01*
X152408571Y-124147142D02*
X152265714Y-124218571D01*
X151979999Y-124218571D01*
X151837142Y-124147142D01*
X151765714Y-124075714D01*
X151694285Y-123932857D01*
X151694285Y-123504285D01*
X151765714Y-123361428D01*
X151837142Y-123290000D01*
X151979999Y-123218571D01*
X152265714Y-123218571D01*
X152408571Y-123290000D01*
X153694285Y-124147142D02*
X153551428Y-124218571D01*
X153265714Y-124218571D01*
X153122857Y-124147142D01*
X153051428Y-124004285D01*
X153051428Y-123432857D01*
X153122857Y-123290000D01*
X153265714Y-123218571D01*
X153551428Y-123218571D01*
X153694285Y-123290000D01*
X153765714Y-123432857D01*
X153765714Y-123575714D01*
X153051428Y-123718571D01*
X156408571Y-124075714D02*
X156337142Y-124147142D01*
X156122857Y-124218571D01*
X155979999Y-124218571D01*
X155765714Y-124147142D01*
X155622857Y-124004285D01*
X155551428Y-123861428D01*
X155479999Y-123575714D01*
X155479999Y-123361428D01*
X155551428Y-123075714D01*
X155622857Y-122932857D01*
X155765714Y-122790000D01*
X155979999Y-122718571D01*
X156122857Y-122718571D01*
X156337142Y-122790000D01*
X156408571Y-122861428D01*
X157265714Y-124218571D02*
X157122857Y-124147142D01*
X157051428Y-124075714D01*
X156979999Y-123932857D01*
X156979999Y-123504285D01*
X157051428Y-123361428D01*
X157122857Y-123290000D01*
X157265714Y-123218571D01*
X157479999Y-123218571D01*
X157622857Y-123290000D01*
X157694285Y-123361428D01*
X157765714Y-123504285D01*
X157765714Y-123932857D01*
X157694285Y-124075714D01*
X157622857Y-124147142D01*
X157479999Y-124218571D01*
X157265714Y-124218571D01*
X158408571Y-123218571D02*
X158408571Y-124218571D01*
X158408571Y-123361428D02*
X158479999Y-123290000D01*
X158622857Y-123218571D01*
X158837142Y-123218571D01*
X158979999Y-123290000D01*
X159051428Y-123432857D01*
X159051428Y-124218571D01*
X159551428Y-123218571D02*
X160122857Y-123218571D01*
X159765714Y-122718571D02*
X159765714Y-124004285D01*
X159837142Y-124147142D01*
X159979999Y-124218571D01*
X160122857Y-124218571D01*
X160622857Y-124218571D02*
X160622857Y-123218571D01*
X160622857Y-123504285D02*
X160694285Y-123361428D01*
X160765714Y-123290000D01*
X160908571Y-123218571D01*
X161051428Y-123218571D01*
X161765714Y-124218571D02*
X161622857Y-124147142D01*
X161551428Y-124075714D01*
X161479999Y-123932857D01*
X161479999Y-123504285D01*
X161551428Y-123361428D01*
X161622857Y-123290000D01*
X161765714Y-123218571D01*
X161979999Y-123218571D01*
X162122857Y-123290000D01*
X162194285Y-123361428D01*
X162265714Y-123504285D01*
X162265714Y-123932857D01*
X162194285Y-124075714D01*
X162122857Y-124147142D01*
X161979999Y-124218571D01*
X161765714Y-124218571D01*
X163122857Y-124218571D02*
X162979999Y-124147142D01*
X162908571Y-124004285D01*
X162908571Y-122718571D01*
X164265714Y-124147142D02*
X164122857Y-124218571D01*
X163837142Y-124218571D01*
X163694285Y-124147142D01*
X163622857Y-124004285D01*
X163622857Y-123432857D01*
X163694285Y-123290000D01*
X163837142Y-123218571D01*
X164122857Y-123218571D01*
X164265714Y-123290000D01*
X164337142Y-123432857D01*
X164337142Y-123575714D01*
X163622857Y-123718571D01*
X166122857Y-123647142D02*
X167265714Y-123647142D01*
X169837142Y-124218571D02*
X169122857Y-124218571D01*
X169122857Y-122718571D01*
X170337142Y-124218571D02*
X170337142Y-122718571D01*
X171194285Y-124218571D01*
X171194285Y-122718571D01*
X172622857Y-124218571D02*
X171908571Y-124218571D01*
X171908571Y-122718571D01*
X173051428Y-124147142D02*
X173265714Y-124218571D01*
X173622857Y-124218571D01*
X173765714Y-124147142D01*
X173837142Y-124075714D01*
X173908571Y-123932857D01*
X173908571Y-123790000D01*
X173837142Y-123647142D01*
X173765714Y-123575714D01*
X173622857Y-123504285D01*
X173337142Y-123432857D01*
X173194285Y-123361428D01*
X173122857Y-123290000D01*
X173051428Y-123147142D01*
X173051428Y-123004285D01*
X173122857Y-122861428D01*
X173194285Y-122790000D01*
X173337142Y-122718571D01*
X173694285Y-122718571D01*
X173908571Y-122790000D01*
X146515714Y-126525714D02*
X146444285Y-126597142D01*
X146230000Y-126668571D01*
X146087142Y-126668571D01*
X145872857Y-126597142D01*
X145730000Y-126454285D01*
X145658571Y-126311428D01*
X145587142Y-126025714D01*
X145587142Y-125811428D01*
X145658571Y-125525714D01*
X145730000Y-125382857D01*
X145872857Y-125240000D01*
X146087142Y-125168571D01*
X146230000Y-125168571D01*
X146444285Y-125240000D01*
X146515714Y-125311428D01*
X147372857Y-126668571D02*
X147230000Y-126597142D01*
X147158571Y-126525714D01*
X147087142Y-126382857D01*
X147087142Y-125954285D01*
X147158571Y-125811428D01*
X147230000Y-125740000D01*
X147372857Y-125668571D01*
X147587142Y-125668571D01*
X147730000Y-125740000D01*
X147801428Y-125811428D01*
X147872857Y-125954285D01*
X147872857Y-126382857D01*
X147801428Y-126525714D01*
X147730000Y-126597142D01*
X147587142Y-126668571D01*
X147372857Y-126668571D01*
X148515714Y-125668571D02*
X148515714Y-126668571D01*
X148515714Y-125811428D02*
X148587142Y-125740000D01*
X148730000Y-125668571D01*
X148944285Y-125668571D01*
X149087142Y-125740000D01*
X149158571Y-125882857D01*
X149158571Y-126668571D01*
X149730000Y-125668571D02*
X150087142Y-126668571D01*
X150444285Y-125668571D01*
X151587142Y-126597142D02*
X151444285Y-126668571D01*
X151158571Y-126668571D01*
X151015714Y-126597142D01*
X150944285Y-126454285D01*
X150944285Y-125882857D01*
X151015714Y-125740000D01*
X151158571Y-125668571D01*
X151444285Y-125668571D01*
X151587142Y-125740000D01*
X151658571Y-125882857D01*
X151658571Y-126025714D01*
X150944285Y-126168571D01*
X152301428Y-126668571D02*
X152301428Y-125668571D01*
X152301428Y-125954285D02*
X152372857Y-125811428D01*
X152444285Y-125740000D01*
X152587142Y-125668571D01*
X152730000Y-125668571D01*
X153158571Y-126597142D02*
X153301428Y-126668571D01*
X153587142Y-126668571D01*
X153730000Y-126597142D01*
X153801428Y-126454285D01*
X153801428Y-126382857D01*
X153730000Y-126240000D01*
X153587142Y-126168571D01*
X153372857Y-126168571D01*
X153230000Y-126097142D01*
X153158571Y-125954285D01*
X153158571Y-125882857D01*
X153230000Y-125740000D01*
X153372857Y-125668571D01*
X153587142Y-125668571D01*
X153730000Y-125740000D01*
X154658571Y-126668571D02*
X154515714Y-126597142D01*
X154444285Y-126525714D01*
X154372857Y-126382857D01*
X154372857Y-125954285D01*
X154444285Y-125811428D01*
X154515714Y-125740000D01*
X154658571Y-125668571D01*
X154872857Y-125668571D01*
X155015714Y-125740000D01*
X155087142Y-125811428D01*
X155158571Y-125954285D01*
X155158571Y-126382857D01*
X155087142Y-126525714D01*
X155015714Y-126597142D01*
X154872857Y-126668571D01*
X154658571Y-126668571D01*
X155801428Y-126668571D02*
X155801428Y-125668571D01*
X155801428Y-125954285D02*
X155872857Y-125811428D01*
X155944285Y-125740000D01*
X156087142Y-125668571D01*
X156230000Y-125668571D01*
X157872857Y-125168571D02*
X157872857Y-126382857D01*
X157944285Y-126525714D01*
X158015714Y-126597142D01*
X158158571Y-126668571D01*
X158444285Y-126668571D01*
X158587142Y-126597142D01*
X158658571Y-126525714D01*
X158730000Y-126382857D01*
X158730000Y-125168571D01*
X159372857Y-126597142D02*
X159587142Y-126668571D01*
X159944285Y-126668571D01*
X160087142Y-126597142D01*
X160158571Y-126525714D01*
X160230000Y-126382857D01*
X160230000Y-126240000D01*
X160158571Y-126097142D01*
X160087142Y-126025714D01*
X159944285Y-125954285D01*
X159658571Y-125882857D01*
X159515714Y-125811428D01*
X159444285Y-125740000D01*
X159372857Y-125597142D01*
X159372857Y-125454285D01*
X159444285Y-125311428D01*
X159515714Y-125240000D01*
X159658571Y-125168571D01*
X160015714Y-125168571D01*
X160230000Y-125240000D01*
X161372857Y-125882857D02*
X161587142Y-125954285D01*
X161658571Y-126025714D01*
X161730000Y-126168571D01*
X161730000Y-126382857D01*
X161658571Y-126525714D01*
X161587142Y-126597142D01*
X161444285Y-126668571D01*
X160872857Y-126668571D01*
X160872857Y-125168571D01*
X161372857Y-125168571D01*
X161515714Y-125240000D01*
X161587142Y-125311428D01*
X161658571Y-125454285D01*
X161658571Y-125597142D01*
X161587142Y-125740000D01*
X161515714Y-125811428D01*
X161372857Y-125882857D01*
X160872857Y-125882857D01*
X163444285Y-125097142D02*
X162158571Y-127025714D01*
X164801428Y-126668571D02*
X164301428Y-125954285D01*
X163944285Y-126668571D02*
X163944285Y-125168571D01*
X164515714Y-125168571D01*
X164658571Y-125240000D01*
X164730000Y-125311428D01*
X164801428Y-125454285D01*
X164801428Y-125668571D01*
X164730000Y-125811428D01*
X164658571Y-125882857D01*
X164515714Y-125954285D01*
X163944285Y-125954285D01*
X165372857Y-126597142D02*
X165587142Y-126668571D01*
X165944285Y-126668571D01*
X166087142Y-126597142D01*
X166158571Y-126525714D01*
X166230000Y-126382857D01*
X166230000Y-126240000D01*
X166158571Y-126097142D01*
X166087142Y-126025714D01*
X165944285Y-125954285D01*
X165658571Y-125882857D01*
X165515714Y-125811428D01*
X165444285Y-125740000D01*
X165372857Y-125597142D01*
X165372857Y-125454285D01*
X165444285Y-125311428D01*
X165515714Y-125240000D01*
X165658571Y-125168571D01*
X166015714Y-125168571D01*
X166230000Y-125240000D01*
X166872857Y-126097142D02*
X168015714Y-126097142D01*
X168658571Y-125311428D02*
X168730000Y-125240000D01*
X168872857Y-125168571D01*
X169230000Y-125168571D01*
X169372857Y-125240000D01*
X169444285Y-125311428D01*
X169515714Y-125454285D01*
X169515714Y-125597142D01*
X169444285Y-125811428D01*
X168587142Y-126668571D01*
X169515714Y-126668571D01*
X170015714Y-125168571D02*
X170944285Y-125168571D01*
X170444285Y-125740000D01*
X170658571Y-125740000D01*
X170801428Y-125811428D01*
X170872857Y-125882857D01*
X170944285Y-126025714D01*
X170944285Y-126382857D01*
X170872857Y-126525714D01*
X170801428Y-126597142D01*
X170658571Y-126668571D01*
X170230000Y-126668571D01*
X170087142Y-126597142D01*
X170015714Y-126525714D01*
X171515714Y-125311428D02*
X171587142Y-125240000D01*
X171730000Y-125168571D01*
X172087142Y-125168571D01*
X172230000Y-125240000D01*
X172301428Y-125311428D01*
X172372857Y-125454285D01*
X172372857Y-125597142D01*
X172301428Y-125811428D01*
X171444285Y-126668571D01*
X172372857Y-126668571D01*
X145587142Y-128118571D02*
X145944285Y-129118571D01*
X146301428Y-128118571D01*
X147444285Y-129047142D02*
X147301428Y-129118571D01*
X147015714Y-129118571D01*
X146872857Y-129047142D01*
X146801428Y-128904285D01*
X146801428Y-128332857D01*
X146872857Y-128190000D01*
X147015714Y-128118571D01*
X147301428Y-128118571D01*
X147444285Y-128190000D01*
X147515714Y-128332857D01*
X147515714Y-128475714D01*
X146801428Y-128618571D01*
X148158571Y-129118571D02*
X148158571Y-128118571D01*
X148158571Y-128404285D02*
X148230000Y-128261428D01*
X148301428Y-128190000D01*
X148444285Y-128118571D01*
X148587142Y-128118571D01*
X149015714Y-129047142D02*
X149158571Y-129118571D01*
X149444285Y-129118571D01*
X149587142Y-129047142D01*
X149658571Y-128904285D01*
X149658571Y-128832857D01*
X149587142Y-128690000D01*
X149444285Y-128618571D01*
X149230000Y-128618571D01*
X149087142Y-128547142D01*
X149015714Y-128404285D01*
X149015714Y-128332857D01*
X149087142Y-128190000D01*
X149230000Y-128118571D01*
X149444285Y-128118571D01*
X149587142Y-128190000D01*
X150944285Y-129118571D02*
X150944285Y-128332857D01*
X150872857Y-128190000D01*
X150730000Y-128118571D01*
X150444285Y-128118571D01*
X150301428Y-128190000D01*
X150944285Y-129047142D02*
X150801428Y-129118571D01*
X150444285Y-129118571D01*
X150301428Y-129047142D01*
X150230000Y-128904285D01*
X150230000Y-128761428D01*
X150301428Y-128618571D01*
X150444285Y-128547142D01*
X150801428Y-128547142D01*
X150944285Y-128475714D01*
X150230000Y-127761428D02*
X150301428Y-127690000D01*
X150444285Y-127618571D01*
X150730000Y-127761428D01*
X150872857Y-127690000D01*
X150944285Y-127618571D01*
X151872857Y-129118571D02*
X151730000Y-129047142D01*
X151658571Y-128975714D01*
X151587142Y-128832857D01*
X151587142Y-128404285D01*
X151658571Y-128261428D01*
X151730000Y-128190000D01*
X151872857Y-128118571D01*
X152087142Y-128118571D01*
X152230000Y-128190000D01*
X152301428Y-128261428D01*
X152372857Y-128404285D01*
X152372857Y-128832857D01*
X152301428Y-128975714D01*
X152230000Y-129047142D01*
X152087142Y-129118571D01*
X151872857Y-129118571D01*
X154944285Y-129118571D02*
X154087142Y-129118571D01*
X154515714Y-129118571D02*
X154515714Y-127618571D01*
X154372857Y-127832857D01*
X154230000Y-127975714D01*
X154087142Y-128047142D01*
X155587142Y-128975714D02*
X155658571Y-129047142D01*
X155587142Y-129118571D01*
X155515714Y-129047142D01*
X155587142Y-128975714D01*
X155587142Y-129118571D01*
X156587142Y-127618571D02*
X156730000Y-127618571D01*
X156872857Y-127690000D01*
X156944285Y-127761428D01*
X157015714Y-127904285D01*
X157087142Y-128190000D01*
X157087142Y-128547142D01*
X157015714Y-128832857D01*
X156944285Y-128975714D01*
X156872857Y-129047142D01*
X156730000Y-129118571D01*
X156587142Y-129118571D01*
X156444285Y-129047142D01*
X156372857Y-128975714D01*
X156301428Y-128832857D01*
X156230000Y-128547142D01*
X156230000Y-128190000D01*
X156301428Y-127904285D01*
X156372857Y-127761428D01*
X156444285Y-127690000D01*
X156587142Y-127618571D01*
X158872857Y-128547142D02*
X160015714Y-128547142D01*
X162158571Y-127618571D02*
X162444285Y-127618571D01*
X162587142Y-127690000D01*
X162730000Y-127832857D01*
X162801428Y-128118571D01*
X162801428Y-128618571D01*
X162730000Y-128904285D01*
X162587142Y-129047142D01*
X162444285Y-129118571D01*
X162158571Y-129118571D01*
X162015714Y-129047142D01*
X161872857Y-128904285D01*
X161801428Y-128618571D01*
X161801428Y-128118571D01*
X161872857Y-127832857D01*
X162015714Y-127690000D01*
X162158571Y-127618571D01*
X164087142Y-128118571D02*
X164087142Y-129118571D01*
X163444285Y-128118571D02*
X163444285Y-128904285D01*
X163515714Y-129047142D01*
X163658571Y-129118571D01*
X163872857Y-129118571D01*
X164015714Y-129047142D01*
X164087142Y-128975714D01*
X164587142Y-128118571D02*
X165158571Y-128118571D01*
X164801428Y-127618571D02*
X164801428Y-128904285D01*
X164872857Y-129047142D01*
X165015714Y-129118571D01*
X165158571Y-129118571D01*
X166730000Y-127547142D02*
X165444285Y-129475714D01*
X167158571Y-127761428D02*
X167230000Y-127690000D01*
X167372857Y-127618571D01*
X167730000Y-127618571D01*
X167872857Y-127690000D01*
X167944285Y-127761428D01*
X168015714Y-127904285D01*
X168015714Y-128047142D01*
X167944285Y-128261428D01*
X167087142Y-129118571D01*
X168015714Y-129118571D01*
X168944285Y-127618571D02*
X169087142Y-127618571D01*
X169230000Y-127690000D01*
X169301428Y-127761428D01*
X169372857Y-127904285D01*
X169444285Y-128190000D01*
X169444285Y-128547142D01*
X169372857Y-128832857D01*
X169301428Y-128975714D01*
X169230000Y-129047142D01*
X169087142Y-129118571D01*
X168944285Y-129118571D01*
X168801428Y-129047142D01*
X168730000Y-128975714D01*
X168658571Y-128832857D01*
X168587142Y-128547142D01*
X168587142Y-128190000D01*
X168658571Y-127904285D01*
X168730000Y-127761428D01*
X168801428Y-127690000D01*
X168944285Y-127618571D01*
X170872857Y-129118571D02*
X170015714Y-129118571D01*
X170444285Y-129118571D02*
X170444285Y-127618571D01*
X170301428Y-127832857D01*
X170158571Y-127975714D01*
X170015714Y-128047142D01*
X172158571Y-127618571D02*
X171872857Y-127618571D01*
X171730000Y-127690000D01*
X171658571Y-127761428D01*
X171515714Y-127975714D01*
X171444285Y-128261428D01*
X171444285Y-128832857D01*
X171515714Y-128975714D01*
X171587142Y-129047142D01*
X171730000Y-129118571D01*
X172015714Y-129118571D01*
X172158571Y-129047142D01*
X172230000Y-128975714D01*
X172301428Y-128832857D01*
X172301428Y-128475714D01*
X172230000Y-128332857D01*
X172158571Y-128261428D01*
X172015714Y-128190000D01*
X171730000Y-128190000D01*
X171587142Y-128261428D01*
X171515714Y-128332857D01*
X171444285Y-128475714D01*
D12*
G36*
X136074287Y-127594795D02*
X136079937Y-127615488D01*
X136097860Y-127706207D01*
X136117997Y-127845123D01*
X136136056Y-128002552D01*
X136136423Y-128006257D01*
X136152664Y-128150152D01*
X136169204Y-128263088D01*
X136182737Y-128322875D01*
X136183941Y-128325323D01*
X136221517Y-128323959D01*
X136287803Y-128277841D01*
X136296584Y-128269810D01*
X136377171Y-128211416D01*
X136416132Y-128213280D01*
X136403749Y-128264314D01*
X136351231Y-128332153D01*
X136296563Y-128403599D01*
X136282479Y-128451078D01*
X136284706Y-128454501D01*
X136332047Y-128468456D01*
X136439177Y-128485752D01*
X136587961Y-128503742D01*
X136691912Y-128513968D01*
X136899872Y-128533713D01*
X137033016Y-128549446D01*
X137094486Y-128562652D01*
X137087427Y-128574810D01*
X137014981Y-128587405D01*
X136880292Y-128601917D01*
X136878769Y-128602065D01*
X136705103Y-128619439D01*
X136531010Y-128637764D01*
X136416260Y-128650549D01*
X136227289Y-128672564D01*
X136335257Y-128785259D01*
X136402237Y-128871092D01*
X136415054Y-128920823D01*
X136379727Y-128923612D01*
X136302272Y-128868621D01*
X136293481Y-128860505D01*
X136240580Y-128814908D01*
X136204411Y-128802849D01*
X136180076Y-128834153D01*
X136162677Y-128918645D01*
X136147317Y-129066149D01*
X136138473Y-129171455D01*
X136116980Y-129356987D01*
X136089105Y-129472732D01*
X136055891Y-129515825D01*
X136022419Y-129490330D01*
X136007841Y-129434402D01*
X135991498Y-129322141D01*
X135976397Y-129175222D01*
X135973139Y-129135232D01*
X135957231Y-128966215D01*
X135938552Y-128866962D01*
X135912852Y-128829098D01*
X135875880Y-128844248D01*
X135843231Y-128879230D01*
X135786821Y-128928354D01*
X135760292Y-128937846D01*
X135726907Y-128912223D01*
X135738649Y-128850816D01*
X135789358Y-128776812D01*
X135807885Y-128758623D01*
X135889769Y-128684518D01*
X135798115Y-128658769D01*
X135704294Y-128642147D01*
X135572862Y-128629841D01*
X135511077Y-128626873D01*
X135356188Y-128616525D01*
X135202865Y-128597983D01*
X135159385Y-128590515D01*
X135082355Y-128574468D01*
X135058454Y-128563148D01*
X135094742Y-128553081D01*
X135198276Y-128540792D01*
X135276615Y-128532815D01*
X135445889Y-128515185D01*
X135611507Y-128496932D01*
X135720617Y-128484072D01*
X135891081Y-128462818D01*
X135782082Y-128349047D01*
X135715384Y-128263719D01*
X135701127Y-128212892D01*
X135733981Y-128207783D01*
X135808616Y-128259611D01*
X135819724Y-128269810D01*
X135887596Y-128320502D01*
X135929525Y-128327960D01*
X135931672Y-128325323D01*
X135944984Y-128272217D01*
X135961520Y-128165265D01*
X135976441Y-128039076D01*
X135994416Y-127880964D01*
X136013964Y-127732871D01*
X136027210Y-127648307D01*
X136044407Y-127560892D01*
X136057121Y-127544909D01*
X136074287Y-127594795D01*
X136074287Y-127594795D01*
G37*
X136074287Y-127594795D02*
X136079937Y-127615488D01*
X136097860Y-127706207D01*
X136117997Y-127845123D01*
X136136056Y-128002552D01*
X136136423Y-128006257D01*
X136152664Y-128150152D01*
X136169204Y-128263088D01*
X136182737Y-128322875D01*
X136183941Y-128325323D01*
X136221517Y-128323959D01*
X136287803Y-128277841D01*
X136296584Y-128269810D01*
X136377171Y-128211416D01*
X136416132Y-128213280D01*
X136403749Y-128264314D01*
X136351231Y-128332153D01*
X136296563Y-128403599D01*
X136282479Y-128451078D01*
X136284706Y-128454501D01*
X136332047Y-128468456D01*
X136439177Y-128485752D01*
X136587961Y-128503742D01*
X136691912Y-128513968D01*
X136899872Y-128533713D01*
X137033016Y-128549446D01*
X137094486Y-128562652D01*
X137087427Y-128574810D01*
X137014981Y-128587405D01*
X136880292Y-128601917D01*
X136878769Y-128602065D01*
X136705103Y-128619439D01*
X136531010Y-128637764D01*
X136416260Y-128650549D01*
X136227289Y-128672564D01*
X136335257Y-128785259D01*
X136402237Y-128871092D01*
X136415054Y-128920823D01*
X136379727Y-128923612D01*
X136302272Y-128868621D01*
X136293481Y-128860505D01*
X136240580Y-128814908D01*
X136204411Y-128802849D01*
X136180076Y-128834153D01*
X136162677Y-128918645D01*
X136147317Y-129066149D01*
X136138473Y-129171455D01*
X136116980Y-129356987D01*
X136089105Y-129472732D01*
X136055891Y-129515825D01*
X136022419Y-129490330D01*
X136007841Y-129434402D01*
X135991498Y-129322141D01*
X135976397Y-129175222D01*
X135973139Y-129135232D01*
X135957231Y-128966215D01*
X135938552Y-128866962D01*
X135912852Y-128829098D01*
X135875880Y-128844248D01*
X135843231Y-128879230D01*
X135786821Y-128928354D01*
X135760292Y-128937846D01*
X135726907Y-128912223D01*
X135738649Y-128850816D01*
X135789358Y-128776812D01*
X135807885Y-128758623D01*
X135889769Y-128684518D01*
X135798115Y-128658769D01*
X135704294Y-128642147D01*
X135572862Y-128629841D01*
X135511077Y-128626873D01*
X135356188Y-128616525D01*
X135202865Y-128597983D01*
X135159385Y-128590515D01*
X135082355Y-128574468D01*
X135058454Y-128563148D01*
X135094742Y-128553081D01*
X135198276Y-128540792D01*
X135276615Y-128532815D01*
X135445889Y-128515185D01*
X135611507Y-128496932D01*
X135720617Y-128484072D01*
X135891081Y-128462818D01*
X135782082Y-128349047D01*
X135715384Y-128263719D01*
X135701127Y-128212892D01*
X135733981Y-128207783D01*
X135808616Y-128259611D01*
X135819724Y-128269810D01*
X135887596Y-128320502D01*
X135929525Y-128327960D01*
X135931672Y-128325323D01*
X135944984Y-128272217D01*
X135961520Y-128165265D01*
X135976441Y-128039076D01*
X135994416Y-127880964D01*
X136013964Y-127732871D01*
X136027210Y-127648307D01*
X136044407Y-127560892D01*
X136057121Y-127544909D01*
X136074287Y-127594795D01*
G36*
X138037469Y-128197974D02*
X138111775Y-128209448D01*
X138143010Y-128235364D01*
X138148769Y-128273538D01*
X138139826Y-128317936D01*
X138100871Y-128341541D01*
X138013714Y-128350698D01*
X137924077Y-128351905D01*
X137699385Y-128352119D01*
X137963154Y-128510378D01*
X138106533Y-128602537D01*
X138189813Y-128673401D01*
X138224277Y-128733493D01*
X138226923Y-128756349D01*
X138212315Y-128842341D01*
X138160265Y-128897264D01*
X138058436Y-128927025D01*
X137894491Y-128937531D01*
X137847877Y-128937846D01*
X137700445Y-128935901D01*
X137614734Y-128927073D01*
X137574346Y-128906869D01*
X137562884Y-128870797D01*
X137562615Y-128859692D01*
X137570882Y-128816712D01*
X137607387Y-128793039D01*
X137689692Y-128783016D01*
X137806846Y-128781007D01*
X138051077Y-128780477D01*
X137806846Y-128635715D01*
X137674678Y-128552151D01*
X137599366Y-128488032D01*
X137567084Y-128429452D01*
X137562615Y-128390060D01*
X137578143Y-128293587D01*
X137633111Y-128233788D01*
X137740101Y-128203460D01*
X137902585Y-128195384D01*
X138037469Y-128197974D01*
X138037469Y-128197974D01*
G37*
X138037469Y-128197974D02*
X138111775Y-128209448D01*
X138143010Y-128235364D01*
X138148769Y-128273538D01*
X138139826Y-128317936D01*
X138100871Y-128341541D01*
X138013714Y-128350698D01*
X137924077Y-128351905D01*
X137699385Y-128352119D01*
X137963154Y-128510378D01*
X138106533Y-128602537D01*
X138189813Y-128673401D01*
X138224277Y-128733493D01*
X138226923Y-128756349D01*
X138212315Y-128842341D01*
X138160265Y-128897264D01*
X138058436Y-128927025D01*
X137894491Y-128937531D01*
X137847877Y-128937846D01*
X137700445Y-128935901D01*
X137614734Y-128927073D01*
X137574346Y-128906869D01*
X137562884Y-128870797D01*
X137562615Y-128859692D01*
X137570882Y-128816712D01*
X137607387Y-128793039D01*
X137689692Y-128783016D01*
X137806846Y-128781007D01*
X138051077Y-128780477D01*
X137806846Y-128635715D01*
X137674678Y-128552151D01*
X137599366Y-128488032D01*
X137567084Y-128429452D01*
X137562615Y-128390060D01*
X137578143Y-128293587D01*
X137633111Y-128233788D01*
X137740101Y-128203460D01*
X137902585Y-128195384D01*
X138037469Y-128197974D01*
G36*
X138643411Y-128197962D02*
X138671954Y-128215455D01*
X138687635Y-128262504D01*
X138694307Y-128353746D01*
X138695821Y-128503821D01*
X138695846Y-128566615D01*
X138695168Y-128738593D01*
X138690564Y-128847056D01*
X138678183Y-128906644D01*
X138654172Y-128931996D01*
X138614678Y-128937752D01*
X138598154Y-128937846D01*
X138552896Y-128935268D01*
X138524353Y-128917774D01*
X138508672Y-128870726D01*
X138502001Y-128779484D01*
X138500486Y-128629409D01*
X138500461Y-128566615D01*
X138501140Y-128394637D01*
X138505743Y-128286174D01*
X138518124Y-128226586D01*
X138542136Y-128201233D01*
X138581629Y-128195478D01*
X138598154Y-128195384D01*
X138643411Y-128197962D01*
X138643411Y-128197962D01*
G37*
X138643411Y-128197962D02*
X138671954Y-128215455D01*
X138687635Y-128262504D01*
X138694307Y-128353746D01*
X138695821Y-128503821D01*
X138695846Y-128566615D01*
X138695168Y-128738593D01*
X138690564Y-128847056D01*
X138678183Y-128906644D01*
X138654172Y-128931996D01*
X138614678Y-128937752D01*
X138598154Y-128937846D01*
X138552896Y-128935268D01*
X138524353Y-128917774D01*
X138508672Y-128870726D01*
X138502001Y-128779484D01*
X138500486Y-128629409D01*
X138500461Y-128566615D01*
X138501140Y-128394637D01*
X138505743Y-128286174D01*
X138518124Y-128226586D01*
X138542136Y-128201233D01*
X138581629Y-128195478D01*
X138598154Y-128195384D01*
X138643411Y-128197962D01*
G36*
X139444238Y-128197974D02*
X139518545Y-128209448D01*
X139549779Y-128235364D01*
X139555538Y-128273538D01*
X139546210Y-128318703D01*
X139505876Y-128342231D01*
X139416016Y-128350858D01*
X139340615Y-128351692D01*
X139125692Y-128351692D01*
X139125692Y-128644769D01*
X139123846Y-128794615D01*
X139115429Y-128882536D01*
X139096122Y-128924728D01*
X139061607Y-128937386D01*
X139047538Y-128937846D01*
X139009171Y-128931532D01*
X138985907Y-128902288D01*
X138974023Y-128834660D01*
X138969796Y-128713196D01*
X138969385Y-128613507D01*
X138975283Y-128432362D01*
X138991900Y-128303926D01*
X139016277Y-128242276D01*
X139079803Y-128216708D01*
X139196700Y-128199891D01*
X139309354Y-128195384D01*
X139444238Y-128197974D01*
X139444238Y-128197974D01*
G37*
X139444238Y-128197974D02*
X139518545Y-128209448D01*
X139549779Y-128235364D01*
X139555538Y-128273538D01*
X139546210Y-128318703D01*
X139505876Y-128342231D01*
X139416016Y-128350858D01*
X139340615Y-128351692D01*
X139125692Y-128351692D01*
X139125692Y-128644769D01*
X139123846Y-128794615D01*
X139115429Y-128882536D01*
X139096122Y-128924728D01*
X139061607Y-128937386D01*
X139047538Y-128937846D01*
X139009171Y-128931532D01*
X138985907Y-128902288D01*
X138974023Y-128834660D01*
X138969796Y-128713196D01*
X138969385Y-128613507D01*
X138975283Y-128432362D01*
X138991900Y-128303926D01*
X139016277Y-128242276D01*
X139079803Y-128216708D01*
X139196700Y-128199891D01*
X139309354Y-128195384D01*
X139444238Y-128197974D01*
G36*
X139972026Y-128197962D02*
X140000569Y-128215455D01*
X140016251Y-128262504D01*
X140022922Y-128353746D01*
X140024437Y-128503821D01*
X140024461Y-128566615D01*
X140023783Y-128738593D01*
X140019179Y-128847056D01*
X140006798Y-128906644D01*
X139982787Y-128931996D01*
X139943294Y-128937752D01*
X139926769Y-128937846D01*
X139881512Y-128935268D01*
X139852969Y-128917774D01*
X139837288Y-128870726D01*
X139830616Y-128779484D01*
X139829102Y-128629409D01*
X139829077Y-128566615D01*
X139829755Y-128394637D01*
X139834359Y-128286174D01*
X139846740Y-128226586D01*
X139870751Y-128201233D01*
X139910244Y-128195478D01*
X139926769Y-128195384D01*
X139972026Y-128197962D01*
X139972026Y-128197962D01*
G37*
X139972026Y-128197962D02*
X140000569Y-128215455D01*
X140016251Y-128262504D01*
X140022922Y-128353746D01*
X140024437Y-128503821D01*
X140024461Y-128566615D01*
X140023783Y-128738593D01*
X140019179Y-128847056D01*
X140006798Y-128906644D01*
X139982787Y-128931996D01*
X139943294Y-128937752D01*
X139926769Y-128937846D01*
X139881512Y-128935268D01*
X139852969Y-128917774D01*
X139837288Y-128870726D01*
X139830616Y-128779484D01*
X139829102Y-128629409D01*
X139829077Y-128566615D01*
X139829755Y-128394637D01*
X139834359Y-128286174D01*
X139846740Y-128226586D01*
X139870751Y-128201233D01*
X139910244Y-128195478D01*
X139926769Y-128195384D01*
X139972026Y-128197962D01*
G36*
X140922521Y-128201698D02*
X140945785Y-128230942D01*
X140957669Y-128298570D01*
X140961896Y-128420033D01*
X140962308Y-128519723D01*
X140956409Y-128700868D01*
X140939792Y-128829304D01*
X140915415Y-128890953D01*
X140856323Y-128913101D01*
X140746520Y-128928859D01*
X140612108Y-128937308D01*
X140479189Y-128937526D01*
X140373863Y-128928596D01*
X140324051Y-128911794D01*
X140312392Y-128863406D01*
X140303429Y-128756289D01*
X140298523Y-128609856D01*
X140298000Y-128540564D01*
X140299352Y-128375317D01*
X140305676Y-128273202D01*
X140320367Y-128219211D01*
X140346824Y-128198336D01*
X140376154Y-128195384D01*
X140416113Y-128202306D01*
X140439558Y-128233870D01*
X140450810Y-128306271D01*
X140454185Y-128435705D01*
X140454308Y-128488461D01*
X140454308Y-128781538D01*
X140806000Y-128781538D01*
X140806000Y-128488461D01*
X140807846Y-128338614D01*
X140816263Y-128250693D01*
X140835570Y-128208502D01*
X140870086Y-128195844D01*
X140884154Y-128195384D01*
X140922521Y-128201698D01*
X140922521Y-128201698D01*
G37*
X140922521Y-128201698D02*
X140945785Y-128230942D01*
X140957669Y-128298570D01*
X140961896Y-128420033D01*
X140962308Y-128519723D01*
X140956409Y-128700868D01*
X140939792Y-128829304D01*
X140915415Y-128890953D01*
X140856323Y-128913101D01*
X140746520Y-128928859D01*
X140612108Y-128937308D01*
X140479189Y-128937526D01*
X140373863Y-128928596D01*
X140324051Y-128911794D01*
X140312392Y-128863406D01*
X140303429Y-128756289D01*
X140298523Y-128609856D01*
X140298000Y-128540564D01*
X140299352Y-128375317D01*
X140305676Y-128273202D01*
X140320367Y-128219211D01*
X140346824Y-128198336D01*
X140376154Y-128195384D01*
X140416113Y-128202306D01*
X140439558Y-128233870D01*
X140450810Y-128306271D01*
X140454185Y-128435705D01*
X140454308Y-128488461D01*
X140454308Y-128781538D01*
X140806000Y-128781538D01*
X140806000Y-128488461D01*
X140807846Y-128338614D01*
X140816263Y-128250693D01*
X140835570Y-128208502D01*
X140870086Y-128195844D01*
X140884154Y-128195384D01*
X140922521Y-128201698D01*
G36*
X141710700Y-128197974D02*
X141785006Y-128209448D01*
X141816240Y-128235364D01*
X141822000Y-128273538D01*
X141813057Y-128317936D01*
X141774102Y-128341541D01*
X141686945Y-128350698D01*
X141597308Y-128351905D01*
X141372615Y-128352119D01*
X141636385Y-128510378D01*
X141779764Y-128602537D01*
X141863044Y-128673401D01*
X141897508Y-128733493D01*
X141900154Y-128756349D01*
X141885545Y-128842341D01*
X141833495Y-128897264D01*
X141731667Y-128927025D01*
X141567722Y-128937531D01*
X141521108Y-128937846D01*
X141373676Y-128935901D01*
X141287964Y-128927073D01*
X141247576Y-128906869D01*
X141236115Y-128870797D01*
X141235846Y-128859692D01*
X141244112Y-128816712D01*
X141280618Y-128793039D01*
X141362923Y-128783016D01*
X141480077Y-128781007D01*
X141724308Y-128780477D01*
X141480077Y-128635715D01*
X141347909Y-128552151D01*
X141272597Y-128488032D01*
X141240315Y-128429452D01*
X141235846Y-128390060D01*
X141251373Y-128293587D01*
X141306342Y-128233788D01*
X141413332Y-128203460D01*
X141575815Y-128195384D01*
X141710700Y-128197974D01*
X141710700Y-128197974D01*
G37*
X141710700Y-128197974D02*
X141785006Y-128209448D01*
X141816240Y-128235364D01*
X141822000Y-128273538D01*
X141813057Y-128317936D01*
X141774102Y-128341541D01*
X141686945Y-128350698D01*
X141597308Y-128351905D01*
X141372615Y-128352119D01*
X141636385Y-128510378D01*
X141779764Y-128602537D01*
X141863044Y-128673401D01*
X141897508Y-128733493D01*
X141900154Y-128756349D01*
X141885545Y-128842341D01*
X141833495Y-128897264D01*
X141731667Y-128927025D01*
X141567722Y-128937531D01*
X141521108Y-128937846D01*
X141373676Y-128935901D01*
X141287964Y-128927073D01*
X141247576Y-128906869D01*
X141236115Y-128870797D01*
X141235846Y-128859692D01*
X141244112Y-128816712D01*
X141280618Y-128793039D01*
X141362923Y-128783016D01*
X141480077Y-128781007D01*
X141724308Y-128780477D01*
X141480077Y-128635715D01*
X141347909Y-128552151D01*
X141272597Y-128488032D01*
X141240315Y-128429452D01*
X141235846Y-128390060D01*
X141251373Y-128293587D01*
X141306342Y-128233788D01*
X141413332Y-128203460D01*
X141575815Y-128195384D01*
X141710700Y-128197974D01*
G36*
X135686923Y-128136769D02*
X135667385Y-128156307D01*
X135647846Y-128136769D01*
X135667385Y-128117230D01*
X135686923Y-128136769D01*
X135686923Y-128136769D01*
G37*
X135686923Y-128136769D02*
X135667385Y-128156307D01*
X135647846Y-128136769D01*
X135667385Y-128117230D01*
X135686923Y-128136769D01*
G36*
X138674760Y-127783855D02*
X138695846Y-127843692D01*
X138672950Y-127904977D01*
X138598154Y-127921846D01*
X138521547Y-127903529D01*
X138500461Y-127843692D01*
X138523358Y-127782406D01*
X138598154Y-127765538D01*
X138674760Y-127783855D01*
X138674760Y-127783855D01*
G37*
X138674760Y-127783855D02*
X138695846Y-127843692D01*
X138672950Y-127904977D01*
X138598154Y-127921846D01*
X138521547Y-127903529D01*
X138500461Y-127843692D01*
X138523358Y-127782406D01*
X138598154Y-127765538D01*
X138674760Y-127783855D01*
G36*
X140003376Y-127783855D02*
X140024461Y-127843692D01*
X140001565Y-127904977D01*
X139926769Y-127921846D01*
X139850162Y-127903529D01*
X139829077Y-127843692D01*
X139851973Y-127782406D01*
X139926769Y-127765538D01*
X140003376Y-127783855D01*
X140003376Y-127783855D01*
G37*
X140003376Y-127783855D02*
X140024461Y-127843692D01*
X140001565Y-127904977D01*
X139926769Y-127921846D01*
X139850162Y-127903529D01*
X139829077Y-127843692D01*
X139851973Y-127782406D01*
X139926769Y-127765538D01*
X140003376Y-127783855D01*
G36*
X142017385Y-127374769D02*
X127363538Y-127374769D01*
X127363538Y-127062153D01*
X142017385Y-127062153D01*
X142017385Y-127374769D01*
X142017385Y-127374769D01*
G37*
X142017385Y-127374769D02*
X127363538Y-127374769D01*
X127363538Y-127062153D01*
X142017385Y-127062153D01*
X142017385Y-127374769D01*
G36*
X128027846Y-125227314D02*
X128027575Y-125507233D01*
X128033148Y-125718666D01*
X128054144Y-125871193D01*
X128100142Y-125974394D01*
X128180723Y-126037848D01*
X128305465Y-126071135D01*
X128483948Y-126083833D01*
X128725752Y-126085523D01*
X128885762Y-126085230D01*
X129551846Y-126085230D01*
X129551846Y-126436923D01*
X128719972Y-126436923D01*
X128442105Y-126436482D01*
X128230390Y-126434461D01*
X128072830Y-126429811D01*
X127957424Y-126421483D01*
X127872174Y-126408430D01*
X127805081Y-126389602D01*
X127744145Y-126363952D01*
X127713741Y-126349000D01*
X127564519Y-126247041D01*
X127460068Y-126103370D01*
X127451461Y-126086720D01*
X127419227Y-126017245D01*
X127395966Y-125947052D01*
X127380230Y-125862154D01*
X127370574Y-125748570D01*
X127365551Y-125592315D01*
X127363715Y-125379405D01*
X127363538Y-125236796D01*
X127363538Y-124561230D01*
X128027846Y-124561230D01*
X128027846Y-125227314D01*
X128027846Y-125227314D01*
G37*
X128027846Y-125227314D02*
X128027575Y-125507233D01*
X128033148Y-125718666D01*
X128054144Y-125871193D01*
X128100142Y-125974394D01*
X128180723Y-126037848D01*
X128305465Y-126071135D01*
X128483948Y-126083833D01*
X128725752Y-126085523D01*
X128885762Y-126085230D01*
X129551846Y-126085230D01*
X129551846Y-126436923D01*
X128719972Y-126436923D01*
X128442105Y-126436482D01*
X128230390Y-126434461D01*
X128072830Y-126429811D01*
X127957424Y-126421483D01*
X127872174Y-126408430D01*
X127805081Y-126389602D01*
X127744145Y-126363952D01*
X127713741Y-126349000D01*
X127564519Y-126247041D01*
X127460068Y-126103370D01*
X127451461Y-126086720D01*
X127419227Y-126017245D01*
X127395966Y-125947052D01*
X127380230Y-125862154D01*
X127370574Y-125748570D01*
X127365551Y-125592315D01*
X127363715Y-125379405D01*
X127363538Y-125236796D01*
X127363538Y-124561230D01*
X128027846Y-124561230D01*
X128027846Y-125227314D01*
G36*
X133811231Y-126436923D02*
X133245478Y-126436923D01*
X132610047Y-125802367D01*
X131974615Y-125167811D01*
X131974615Y-126436923D01*
X131349385Y-126436923D01*
X131349385Y-124561230D01*
X131613154Y-124562116D01*
X131876923Y-124563003D01*
X133146923Y-125779827D01*
X133146923Y-124561230D01*
X133811231Y-124561230D01*
X133811231Y-126436923D01*
X133811231Y-126436923D01*
G37*
X133811231Y-126436923D02*
X133245478Y-126436923D01*
X132610047Y-125802367D01*
X131974615Y-125167811D01*
X131974615Y-126436923D01*
X131349385Y-126436923D01*
X131349385Y-124561230D01*
X131613154Y-124562116D01*
X131876923Y-124563003D01*
X133146923Y-125779827D01*
X133146923Y-124561230D01*
X133811231Y-124561230D01*
X133811231Y-126436923D01*
G36*
X136390308Y-125227314D02*
X136390667Y-125470149D01*
X136392798Y-125647373D01*
X136398279Y-125771531D01*
X136408689Y-125855167D01*
X136425607Y-125910823D01*
X136450612Y-125951044D01*
X136485284Y-125988374D01*
X136486224Y-125989314D01*
X136523636Y-126024231D01*
X136563646Y-126049444D01*
X136618798Y-126066534D01*
X136701635Y-126077078D01*
X136824702Y-126082656D01*
X137000541Y-126084847D01*
X137241696Y-126085230D01*
X137914308Y-126085230D01*
X137914308Y-126436923D01*
X137082434Y-126436923D01*
X136804566Y-126436482D01*
X136592852Y-126434461D01*
X136435291Y-126429811D01*
X136319886Y-126421483D01*
X136234636Y-126408430D01*
X136167542Y-126389602D01*
X136106607Y-126363952D01*
X136076203Y-126349000D01*
X135926981Y-126247041D01*
X135822529Y-126103370D01*
X135813923Y-126086720D01*
X135781689Y-126017245D01*
X135758427Y-125947052D01*
X135742692Y-125862154D01*
X135733036Y-125748570D01*
X135728013Y-125592315D01*
X135726176Y-125379405D01*
X135726000Y-125236796D01*
X135726000Y-124561230D01*
X136390308Y-124561230D01*
X136390308Y-125227314D01*
X136390308Y-125227314D01*
G37*
X136390308Y-125227314D02*
X136390667Y-125470149D01*
X136392798Y-125647373D01*
X136398279Y-125771531D01*
X136408689Y-125855167D01*
X136425607Y-125910823D01*
X136450612Y-125951044D01*
X136485284Y-125988374D01*
X136486224Y-125989314D01*
X136523636Y-126024231D01*
X136563646Y-126049444D01*
X136618798Y-126066534D01*
X136701635Y-126077078D01*
X136824702Y-126082656D01*
X137000541Y-126084847D01*
X137241696Y-126085230D01*
X137914308Y-126085230D01*
X137914308Y-126436923D01*
X137082434Y-126436923D01*
X136804566Y-126436482D01*
X136592852Y-126434461D01*
X136435291Y-126429811D01*
X136319886Y-126421483D01*
X136234636Y-126408430D01*
X136167542Y-126389602D01*
X136106607Y-126363952D01*
X136076203Y-126349000D01*
X135926981Y-126247041D01*
X135822529Y-126103370D01*
X135813923Y-126086720D01*
X135781689Y-126017245D01*
X135758427Y-125947052D01*
X135742692Y-125862154D01*
X135733036Y-125748570D01*
X135728013Y-125592315D01*
X135726176Y-125379405D01*
X135726000Y-125236796D01*
X135726000Y-124561230D01*
X136390308Y-124561230D01*
X136390308Y-125227314D01*
G36*
X141861077Y-124912923D02*
X140299802Y-124912923D01*
X140237508Y-125007994D01*
X140202442Y-125119362D01*
X140239325Y-125220732D01*
X140342087Y-125297541D01*
X140361535Y-125305562D01*
X140434185Y-125318672D01*
X140568443Y-125329778D01*
X140747770Y-125337986D01*
X140955629Y-125342403D01*
X141052775Y-125342915D01*
X141286338Y-125344018D01*
X141456130Y-125348241D01*
X141576517Y-125357154D01*
X141661864Y-125372329D01*
X141726540Y-125395335D01*
X141775505Y-125421924D01*
X141907880Y-125545042D01*
X141988549Y-125708998D01*
X142013122Y-125892428D01*
X141977208Y-126073967D01*
X141928682Y-126167375D01*
X141871585Y-126246431D01*
X141811662Y-126308354D01*
X141738969Y-126355224D01*
X141643561Y-126389121D01*
X141515493Y-126412122D01*
X141344823Y-126426309D01*
X141121604Y-126433760D01*
X140835893Y-126436555D01*
X140639923Y-126436862D01*
X139711846Y-126436923D01*
X139711846Y-126085230D01*
X140467790Y-126085230D01*
X140731521Y-126084621D01*
X140928186Y-126082150D01*
X141068866Y-126076852D01*
X141164643Y-126067762D01*
X141226599Y-126053915D01*
X141265816Y-126034347D01*
X141288405Y-126013769D01*
X141346508Y-125903833D01*
X141334101Y-125794954D01*
X141266228Y-125716215D01*
X141216730Y-125692108D01*
X141140062Y-125675015D01*
X141024211Y-125663901D01*
X140857161Y-125657728D01*
X140626899Y-125655462D01*
X140560903Y-125655384D01*
X140289027Y-125652982D01*
X140083023Y-125643620D01*
X139930699Y-125624069D01*
X139819862Y-125591097D01*
X139738318Y-125541473D01*
X139673876Y-125471966D01*
X139632110Y-125409256D01*
X139570707Y-125244272D01*
X139559104Y-125055259D01*
X139597466Y-124876776D01*
X139629225Y-124812103D01*
X139678871Y-124739156D01*
X139734941Y-124681815D01*
X139806981Y-124638221D01*
X139904540Y-124606518D01*
X140037166Y-124584850D01*
X140214406Y-124571360D01*
X140445808Y-124564192D01*
X140740921Y-124561488D01*
X140919367Y-124561230D01*
X141861077Y-124561230D01*
X141861077Y-124912923D01*
X141861077Y-124912923D01*
G37*
X141861077Y-124912923D02*
X140299802Y-124912923D01*
X140237508Y-125007994D01*
X140202442Y-125119362D01*
X140239325Y-125220732D01*
X140342087Y-125297541D01*
X140361535Y-125305562D01*
X140434185Y-125318672D01*
X140568443Y-125329778D01*
X140747770Y-125337986D01*
X140955629Y-125342403D01*
X141052775Y-125342915D01*
X141286338Y-125344018D01*
X141456130Y-125348241D01*
X141576517Y-125357154D01*
X141661864Y-125372329D01*
X141726540Y-125395335D01*
X141775505Y-125421924D01*
X141907880Y-125545042D01*
X141988549Y-125708998D01*
X142013122Y-125892428D01*
X141977208Y-126073967D01*
X141928682Y-126167375D01*
X141871585Y-126246431D01*
X141811662Y-126308354D01*
X141738969Y-126355224D01*
X141643561Y-126389121D01*
X141515493Y-126412122D01*
X141344823Y-126426309D01*
X141121604Y-126433760D01*
X140835893Y-126436555D01*
X140639923Y-126436862D01*
X139711846Y-126436923D01*
X139711846Y-126085230D01*
X140467790Y-126085230D01*
X140731521Y-126084621D01*
X140928186Y-126082150D01*
X141068866Y-126076852D01*
X141164643Y-126067762D01*
X141226599Y-126053915D01*
X141265816Y-126034347D01*
X141288405Y-126013769D01*
X141346508Y-125903833D01*
X141334101Y-125794954D01*
X141266228Y-125716215D01*
X141216730Y-125692108D01*
X141140062Y-125675015D01*
X141024211Y-125663901D01*
X140857161Y-125657728D01*
X140626899Y-125655462D01*
X140560903Y-125655384D01*
X140289027Y-125652982D01*
X140083023Y-125643620D01*
X139930699Y-125624069D01*
X139819862Y-125591097D01*
X139738318Y-125541473D01*
X139673876Y-125471966D01*
X139632110Y-125409256D01*
X139570707Y-125244272D01*
X139559104Y-125055259D01*
X139597466Y-124876776D01*
X139629225Y-124812103D01*
X139678871Y-124739156D01*
X139734941Y-124681815D01*
X139806981Y-124638221D01*
X139904540Y-124606518D01*
X140037166Y-124584850D01*
X140214406Y-124571360D01*
X140445808Y-124564192D01*
X140740921Y-124561488D01*
X140919367Y-124561230D01*
X141861077Y-124561230D01*
X141861077Y-124912923D01*
G36*
X142115077Y-124033692D02*
X134699043Y-124043562D01*
X133773127Y-124044703D01*
X132922554Y-124045549D01*
X132144515Y-124046086D01*
X131436201Y-124046298D01*
X130794800Y-124046170D01*
X130217504Y-124045689D01*
X129701504Y-124044839D01*
X129243988Y-124043605D01*
X128842147Y-124041973D01*
X128493173Y-124039928D01*
X128194254Y-124037455D01*
X127942581Y-124034539D01*
X127735345Y-124031166D01*
X127569735Y-124027320D01*
X127442942Y-124022988D01*
X127352157Y-124018154D01*
X127294569Y-124012803D01*
X127267368Y-124006921D01*
X127264392Y-124004485D01*
X127262368Y-123960551D01*
X127260532Y-123842691D01*
X127258889Y-123655130D01*
X127257445Y-123402096D01*
X127256206Y-123087815D01*
X127255178Y-122716513D01*
X127254367Y-122292419D01*
X127253778Y-121819757D01*
X127253418Y-121302756D01*
X127253292Y-120745642D01*
X127253407Y-120152640D01*
X127253767Y-119527979D01*
X127254380Y-118875885D01*
X127255251Y-118200584D01*
X127255810Y-117840000D01*
X127265429Y-111978461D01*
X127519846Y-111978461D01*
X127519846Y-123779692D01*
X128477231Y-123779692D01*
X128741461Y-123779258D01*
X128977754Y-123778039D01*
X129175541Y-123776158D01*
X129324251Y-123773737D01*
X129413317Y-123770900D01*
X129434615Y-123768568D01*
X129422289Y-123729064D01*
X129390126Y-123636961D01*
X129349499Y-123524337D01*
X129285734Y-123280854D01*
X129249409Y-122992609D01*
X129241255Y-122688288D01*
X129262003Y-122396577D01*
X129312384Y-122146163D01*
X129314221Y-122140049D01*
X129470515Y-121752098D01*
X129687180Y-121405841D01*
X129956667Y-121106974D01*
X130271426Y-120861195D01*
X130623908Y-120674200D01*
X131006563Y-120551685D01*
X131411842Y-120499348D01*
X131490589Y-120497808D01*
X131805178Y-120512754D01*
X132081321Y-120564244D01*
X132353257Y-120660103D01*
X132502154Y-120728989D01*
X132865615Y-120949215D01*
X133174293Y-121221101D01*
X133424322Y-121537526D01*
X133611841Y-121891370D01*
X133732984Y-122275511D01*
X133783888Y-122682829D01*
X133766882Y-123059916D01*
X133737279Y-123239882D01*
X133695782Y-123421174D01*
X133653394Y-123558657D01*
X133611317Y-123670969D01*
X133583492Y-123748325D01*
X133576789Y-123769923D01*
X133614794Y-123771585D01*
X133724546Y-123773159D01*
X133899637Y-123774619D01*
X134133659Y-123775942D01*
X134420205Y-123777104D01*
X134752867Y-123778080D01*
X135125237Y-123778847D01*
X135530909Y-123779381D01*
X135963475Y-123779658D01*
X136181783Y-123779692D01*
X138786797Y-123779692D01*
X138301706Y-123287758D01*
X137621478Y-122643027D01*
X136926749Y-122074352D01*
X136215605Y-121580657D01*
X135486132Y-121160864D01*
X134736417Y-120813897D01*
X133964545Y-120538677D01*
X133168603Y-120334128D01*
X132990615Y-120298606D01*
X132772315Y-120256616D01*
X132578437Y-120218159D01*
X132423103Y-120186128D01*
X132320437Y-120163418D01*
X132287231Y-120154526D01*
X132285018Y-120137226D01*
X132352047Y-120115830D01*
X132479587Y-120091575D01*
X132658909Y-120065696D01*
X132881281Y-120039431D01*
X133137974Y-120014016D01*
X133420257Y-119990686D01*
X133470044Y-119987025D01*
X134317564Y-119964111D01*
X135176554Y-120015525D01*
X136039990Y-120139656D01*
X136900850Y-120334898D01*
X137752110Y-120599643D01*
X138586748Y-120932281D01*
X139397740Y-121331206D01*
X139439365Y-121353860D01*
X139610041Y-121448571D01*
X139832508Y-121574084D01*
X140091228Y-121721517D01*
X140370662Y-121881986D01*
X140655274Y-122046609D01*
X140872432Y-122173099D01*
X141118117Y-122316252D01*
X141341571Y-122445584D01*
X141533997Y-122556074D01*
X141686598Y-122642699D01*
X141790576Y-122700438D01*
X141837136Y-122724269D01*
X141838528Y-122724615D01*
X141841220Y-122686282D01*
X141843819Y-122574256D01*
X141846308Y-122393000D01*
X141848669Y-122146974D01*
X141850881Y-121840642D01*
X141852927Y-121478463D01*
X141854788Y-121064899D01*
X141856444Y-120604413D01*
X141857878Y-120101466D01*
X141859071Y-119560519D01*
X141860004Y-118986033D01*
X141860657Y-118382472D01*
X141861014Y-117754295D01*
X141861077Y-117351538D01*
X141861077Y-111978461D01*
X127519846Y-111978461D01*
X127265429Y-111978461D01*
X127265846Y-111724461D01*
X142115077Y-111724461D01*
X142115077Y-124033692D01*
X142115077Y-124033692D01*
G37*
X142115077Y-124033692D02*
X134699043Y-124043562D01*
X133773127Y-124044703D01*
X132922554Y-124045549D01*
X132144515Y-124046086D01*
X131436201Y-124046298D01*
X130794800Y-124046170D01*
X130217504Y-124045689D01*
X129701504Y-124044839D01*
X129243988Y-124043605D01*
X128842147Y-124041973D01*
X128493173Y-124039928D01*
X128194254Y-124037455D01*
X127942581Y-124034539D01*
X127735345Y-124031166D01*
X127569735Y-124027320D01*
X127442942Y-124022988D01*
X127352157Y-124018154D01*
X127294569Y-124012803D01*
X127267368Y-124006921D01*
X127264392Y-124004485D01*
X127262368Y-123960551D01*
X127260532Y-123842691D01*
X127258889Y-123655130D01*
X127257445Y-123402096D01*
X127256206Y-123087815D01*
X127255178Y-122716513D01*
X127254367Y-122292419D01*
X127253778Y-121819757D01*
X127253418Y-121302756D01*
X127253292Y-120745642D01*
X127253407Y-120152640D01*
X127253767Y-119527979D01*
X127254380Y-118875885D01*
X127255251Y-118200584D01*
X127255810Y-117840000D01*
X127265429Y-111978461D01*
X127519846Y-111978461D01*
X127519846Y-123779692D01*
X128477231Y-123779692D01*
X128741461Y-123779258D01*
X128977754Y-123778039D01*
X129175541Y-123776158D01*
X129324251Y-123773737D01*
X129413317Y-123770900D01*
X129434615Y-123768568D01*
X129422289Y-123729064D01*
X129390126Y-123636961D01*
X129349499Y-123524337D01*
X129285734Y-123280854D01*
X129249409Y-122992609D01*
X129241255Y-122688288D01*
X129262003Y-122396577D01*
X129312384Y-122146163D01*
X129314221Y-122140049D01*
X129470515Y-121752098D01*
X129687180Y-121405841D01*
X129956667Y-121106974D01*
X130271426Y-120861195D01*
X130623908Y-120674200D01*
X131006563Y-120551685D01*
X131411842Y-120499348D01*
X131490589Y-120497808D01*
X131805178Y-120512754D01*
X132081321Y-120564244D01*
X132353257Y-120660103D01*
X132502154Y-120728989D01*
X132865615Y-120949215D01*
X133174293Y-121221101D01*
X133424322Y-121537526D01*
X133611841Y-121891370D01*
X133732984Y-122275511D01*
X133783888Y-122682829D01*
X133766882Y-123059916D01*
X133737279Y-123239882D01*
X133695782Y-123421174D01*
X133653394Y-123558657D01*
X133611317Y-123670969D01*
X133583492Y-123748325D01*
X133576789Y-123769923D01*
X133614794Y-123771585D01*
X133724546Y-123773159D01*
X133899637Y-123774619D01*
X134133659Y-123775942D01*
X134420205Y-123777104D01*
X134752867Y-123778080D01*
X135125237Y-123778847D01*
X135530909Y-123779381D01*
X135963475Y-123779658D01*
X136181783Y-123779692D01*
X138786797Y-123779692D01*
X138301706Y-123287758D01*
X137621478Y-122643027D01*
X136926749Y-122074352D01*
X136215605Y-121580657D01*
X135486132Y-121160864D01*
X134736417Y-120813897D01*
X133964545Y-120538677D01*
X133168603Y-120334128D01*
X132990615Y-120298606D01*
X132772315Y-120256616D01*
X132578437Y-120218159D01*
X132423103Y-120186128D01*
X132320437Y-120163418D01*
X132287231Y-120154526D01*
X132285018Y-120137226D01*
X132352047Y-120115830D01*
X132479587Y-120091575D01*
X132658909Y-120065696D01*
X132881281Y-120039431D01*
X133137974Y-120014016D01*
X133420257Y-119990686D01*
X133470044Y-119987025D01*
X134317564Y-119964111D01*
X135176554Y-120015525D01*
X136039990Y-120139656D01*
X136900850Y-120334898D01*
X137752110Y-120599643D01*
X138586748Y-120932281D01*
X139397740Y-121331206D01*
X139439365Y-121353860D01*
X139610041Y-121448571D01*
X139832508Y-121574084D01*
X140091228Y-121721517D01*
X140370662Y-121881986D01*
X140655274Y-122046609D01*
X140872432Y-122173099D01*
X141118117Y-122316252D01*
X141341571Y-122445584D01*
X141533997Y-122556074D01*
X141686598Y-122642699D01*
X141790576Y-122700438D01*
X141837136Y-122724269D01*
X141838528Y-122724615D01*
X141841220Y-122686282D01*
X141843819Y-122574256D01*
X141846308Y-122393000D01*
X141848669Y-122146974D01*
X141850881Y-121840642D01*
X141852927Y-121478463D01*
X141854788Y-121064899D01*
X141856444Y-120604413D01*
X141857878Y-120101466D01*
X141859071Y-119560519D01*
X141860004Y-118986033D01*
X141860657Y-118382472D01*
X141861014Y-117754295D01*
X141861077Y-117351538D01*
X141861077Y-111978461D01*
X127519846Y-111978461D01*
X127265429Y-111978461D01*
X127265846Y-111724461D01*
X142115077Y-111724461D01*
X142115077Y-124033692D01*
G36*
X131680153Y-112366797D02*
X131751733Y-112409002D01*
X131881063Y-112484168D01*
X132058034Y-112586491D01*
X132272535Y-112710164D01*
X132514457Y-112849380D01*
X132773689Y-112998335D01*
X133040122Y-113151221D01*
X133303646Y-113302233D01*
X133554150Y-113445565D01*
X133781525Y-113575409D01*
X133975661Y-113685960D01*
X134094472Y-113753344D01*
X134254897Y-113845922D01*
X134387066Y-113925684D01*
X134477913Y-113984493D01*
X134514371Y-114014208D01*
X134514549Y-114015006D01*
X134484102Y-114044742D01*
X134400771Y-114108973D01*
X134276650Y-114198768D01*
X134123833Y-114305194D01*
X134094538Y-114325204D01*
X133323531Y-114877227D01*
X132625878Y-115434317D01*
X131996779Y-116001616D01*
X131431435Y-116584268D01*
X130925046Y-117187417D01*
X130472812Y-117816204D01*
X130069934Y-118475775D01*
X129866386Y-118856000D01*
X129651126Y-119298850D01*
X129471790Y-119718258D01*
X129320940Y-120136124D01*
X129191139Y-120574347D01*
X129074948Y-121054826D01*
X129004444Y-121393868D01*
X128950140Y-121662454D01*
X128907947Y-121856242D01*
X128877263Y-121977545D01*
X128857487Y-122028677D01*
X128848017Y-122011952D01*
X128847222Y-121998435D01*
X128841327Y-121946675D01*
X128826434Y-121835936D01*
X128805057Y-121684541D01*
X128788705Y-121571846D01*
X128767064Y-121392580D01*
X128745743Y-121160034D01*
X128726670Y-120899065D01*
X128711776Y-120634530D01*
X128706796Y-120516769D01*
X128712475Y-119618929D01*
X128795959Y-118724195D01*
X128956918Y-117833859D01*
X129195024Y-116949216D01*
X129509947Y-116071559D01*
X129901360Y-115202181D01*
X130202765Y-114631171D01*
X130300807Y-114457716D01*
X130429410Y-114232957D01*
X130579353Y-113972859D01*
X130741410Y-113693387D01*
X130906360Y-113410506D01*
X131020006Y-113216627D01*
X131561537Y-112295065D01*
X131680153Y-112366797D01*
X131680153Y-112366797D01*
G37*
X131680153Y-112366797D02*
X131751733Y-112409002D01*
X131881063Y-112484168D01*
X132058034Y-112586491D01*
X132272535Y-112710164D01*
X132514457Y-112849380D01*
X132773689Y-112998335D01*
X133040122Y-113151221D01*
X133303646Y-113302233D01*
X133554150Y-113445565D01*
X133781525Y-113575409D01*
X133975661Y-113685960D01*
X134094472Y-113753344D01*
X134254897Y-113845922D01*
X134387066Y-113925684D01*
X134477913Y-113984493D01*
X134514371Y-114014208D01*
X134514549Y-114015006D01*
X134484102Y-114044742D01*
X134400771Y-114108973D01*
X134276650Y-114198768D01*
X134123833Y-114305194D01*
X134094538Y-114325204D01*
X133323531Y-114877227D01*
X132625878Y-115434317D01*
X131996779Y-116001616D01*
X131431435Y-116584268D01*
X130925046Y-117187417D01*
X130472812Y-117816204D01*
X130069934Y-118475775D01*
X129866386Y-118856000D01*
X129651126Y-119298850D01*
X129471790Y-119718258D01*
X129320940Y-120136124D01*
X129191139Y-120574347D01*
X129074948Y-121054826D01*
X129004444Y-121393868D01*
X128950140Y-121662454D01*
X128907947Y-121856242D01*
X128877263Y-121977545D01*
X128857487Y-122028677D01*
X128848017Y-122011952D01*
X128847222Y-121998435D01*
X128841327Y-121946675D01*
X128826434Y-121835936D01*
X128805057Y-121684541D01*
X128788705Y-121571846D01*
X128767064Y-121392580D01*
X128745743Y-121160034D01*
X128726670Y-120899065D01*
X128711776Y-120634530D01*
X128706796Y-120516769D01*
X128712475Y-119618929D01*
X128795959Y-118724195D01*
X128956918Y-117833859D01*
X129195024Y-116949216D01*
X129509947Y-116071559D01*
X129901360Y-115202181D01*
X130202765Y-114631171D01*
X130300807Y-114457716D01*
X130429410Y-114232957D01*
X130579353Y-113972859D01*
X130741410Y-113693387D01*
X130906360Y-113410506D01*
X131020006Y-113216627D01*
X131561537Y-112295065D01*
X131680153Y-112366797D01*
G36*
X139214447Y-117581334D02*
X139423065Y-117585786D01*
X140610615Y-117614515D01*
X140610615Y-119329411D01*
X140609970Y-119686879D01*
X140608125Y-120018957D01*
X140605214Y-120317769D01*
X140601373Y-120575439D01*
X140596737Y-120784090D01*
X140591440Y-120935845D01*
X140585617Y-121022827D01*
X140581308Y-121040958D01*
X140536968Y-121023015D01*
X140437489Y-120976540D01*
X140297371Y-120908471D01*
X140131116Y-120825749D01*
X140122154Y-120821240D01*
X139272649Y-120421877D01*
X138444848Y-120091333D01*
X137629088Y-119826841D01*
X136815708Y-119625636D01*
X135995044Y-119484953D01*
X135165981Y-119402580D01*
X134367547Y-119382883D01*
X133584176Y-119430702D01*
X132805285Y-119547586D01*
X132020288Y-119735082D01*
X131288679Y-119969456D01*
X131125248Y-120025373D01*
X130987975Y-120067715D01*
X130894102Y-120091434D01*
X130862900Y-120094094D01*
X130867091Y-120065636D01*
X130929555Y-120002746D01*
X131041617Y-119911313D01*
X131194601Y-119797225D01*
X131379830Y-119666371D01*
X131588629Y-119524640D01*
X131812322Y-119377920D01*
X132042231Y-119232100D01*
X132269683Y-119093070D01*
X132486000Y-118966716D01*
X132682506Y-118858929D01*
X132683502Y-118858405D01*
X133246536Y-118580016D01*
X133807407Y-118339299D01*
X134374431Y-118134685D01*
X134955923Y-117964602D01*
X135560202Y-117827481D01*
X136195582Y-117721751D01*
X136870380Y-117645842D01*
X137592913Y-117598183D01*
X138371497Y-117577204D01*
X139214447Y-117581334D01*
X139214447Y-117581334D01*
G37*
X139214447Y-117581334D02*
X139423065Y-117585786D01*
X140610615Y-117614515D01*
X140610615Y-119329411D01*
X140609970Y-119686879D01*
X140608125Y-120018957D01*
X140605214Y-120317769D01*
X140601373Y-120575439D01*
X140596737Y-120784090D01*
X140591440Y-120935845D01*
X140585617Y-121022827D01*
X140581308Y-121040958D01*
X140536968Y-121023015D01*
X140437489Y-120976540D01*
X140297371Y-120908471D01*
X140131116Y-120825749D01*
X140122154Y-120821240D01*
X139272649Y-120421877D01*
X138444848Y-120091333D01*
X137629088Y-119826841D01*
X136815708Y-119625636D01*
X135995044Y-119484953D01*
X135165981Y-119402580D01*
X134367547Y-119382883D01*
X133584176Y-119430702D01*
X132805285Y-119547586D01*
X132020288Y-119735082D01*
X131288679Y-119969456D01*
X131125248Y-120025373D01*
X130987975Y-120067715D01*
X130894102Y-120091434D01*
X130862900Y-120094094D01*
X130867091Y-120065636D01*
X130929555Y-120002746D01*
X131041617Y-119911313D01*
X131194601Y-119797225D01*
X131379830Y-119666371D01*
X131588629Y-119524640D01*
X131812322Y-119377920D01*
X132042231Y-119232100D01*
X132269683Y-119093070D01*
X132486000Y-118966716D01*
X132682506Y-118858929D01*
X132683502Y-118858405D01*
X133246536Y-118580016D01*
X133807407Y-118339299D01*
X134374431Y-118134685D01*
X134955923Y-117964602D01*
X135560202Y-117827481D01*
X136195582Y-117721751D01*
X136870380Y-117645842D01*
X137592913Y-117598183D01*
X138371497Y-117577204D01*
X139214447Y-117581334D01*
G36*
X136877159Y-113903641D02*
X136926689Y-113985866D01*
X137005921Y-114120141D01*
X137109903Y-114297877D01*
X137233683Y-114510485D01*
X137372311Y-114749377D01*
X137520833Y-115005962D01*
X137674299Y-115271652D01*
X137827756Y-115537858D01*
X137976254Y-115795991D01*
X138114841Y-116037461D01*
X138238564Y-116253679D01*
X138342472Y-116436057D01*
X138421614Y-116576005D01*
X138471038Y-116664934D01*
X138485995Y-116694319D01*
X138447043Y-116699750D01*
X138342456Y-116710583D01*
X138184479Y-116725651D01*
X137985353Y-116743787D01*
X137757424Y-116763813D01*
X137179228Y-116819748D01*
X136664120Y-116882884D01*
X136197184Y-116955535D01*
X135763506Y-117040014D01*
X135358485Y-117135971D01*
X134474322Y-117395423D01*
X133648974Y-117703571D01*
X132878129Y-118063036D01*
X132157476Y-118476437D01*
X131482705Y-118946395D01*
X130849502Y-119475528D01*
X130253558Y-120066457D01*
X129923222Y-120438615D01*
X129788032Y-120597940D01*
X129695510Y-120706112D01*
X129637592Y-120771427D01*
X129606209Y-120802178D01*
X129593297Y-120806661D01*
X129590789Y-120793170D01*
X129590923Y-120780331D01*
X129606611Y-120721419D01*
X129649499Y-120606350D01*
X129713326Y-120449598D01*
X129791830Y-120265633D01*
X129878747Y-120068927D01*
X129967815Y-119873952D01*
X130052773Y-119695180D01*
X130110806Y-119578923D01*
X130497884Y-118884164D01*
X130918847Y-118245008D01*
X131388014Y-117641391D01*
X131895838Y-117078000D01*
X132211642Y-116758650D01*
X132521897Y-116464998D01*
X132836283Y-116189895D01*
X133164479Y-115926191D01*
X133516165Y-115666737D01*
X133901019Y-115404385D01*
X134328722Y-115131984D01*
X134808952Y-114842386D01*
X135335231Y-114537648D01*
X135555810Y-114412363D01*
X135787545Y-114281517D01*
X136017337Y-114152431D01*
X136232088Y-114032424D01*
X136418696Y-113928814D01*
X136564063Y-113848923D01*
X136655089Y-113800069D01*
X136657297Y-113798925D01*
X136774713Y-113738207D01*
X136877159Y-113903641D01*
X136877159Y-113903641D01*
G37*
X136877159Y-113903641D02*
X136926689Y-113985866D01*
X137005921Y-114120141D01*
X137109903Y-114297877D01*
X137233683Y-114510485D01*
X137372311Y-114749377D01*
X137520833Y-115005962D01*
X137674299Y-115271652D01*
X137827756Y-115537858D01*
X137976254Y-115795991D01*
X138114841Y-116037461D01*
X138238564Y-116253679D01*
X138342472Y-116436057D01*
X138421614Y-116576005D01*
X138471038Y-116664934D01*
X138485995Y-116694319D01*
X138447043Y-116699750D01*
X138342456Y-116710583D01*
X138184479Y-116725651D01*
X137985353Y-116743787D01*
X137757424Y-116763813D01*
X137179228Y-116819748D01*
X136664120Y-116882884D01*
X136197184Y-116955535D01*
X135763506Y-117040014D01*
X135358485Y-117135971D01*
X134474322Y-117395423D01*
X133648974Y-117703571D01*
X132878129Y-118063036D01*
X132157476Y-118476437D01*
X131482705Y-118946395D01*
X130849502Y-119475528D01*
X130253558Y-120066457D01*
X129923222Y-120438615D01*
X129788032Y-120597940D01*
X129695510Y-120706112D01*
X129637592Y-120771427D01*
X129606209Y-120802178D01*
X129593297Y-120806661D01*
X129590789Y-120793170D01*
X129590923Y-120780331D01*
X129606611Y-120721419D01*
X129649499Y-120606350D01*
X129713326Y-120449598D01*
X129791830Y-120265633D01*
X129878747Y-120068927D01*
X129967815Y-119873952D01*
X130052773Y-119695180D01*
X130110806Y-119578923D01*
X130497884Y-118884164D01*
X130918847Y-118245008D01*
X131388014Y-117641391D01*
X131895838Y-117078000D01*
X132211642Y-116758650D01*
X132521897Y-116464998D01*
X132836283Y-116189895D01*
X133164479Y-115926191D01*
X133516165Y-115666737D01*
X133901019Y-115404385D01*
X134328722Y-115131984D01*
X134808952Y-114842386D01*
X135335231Y-114537648D01*
X135555810Y-114412363D01*
X135787545Y-114281517D01*
X136017337Y-114152431D01*
X136232088Y-114032424D01*
X136418696Y-113928814D01*
X136564063Y-113848923D01*
X136655089Y-113800069D01*
X136657297Y-113798925D01*
X136774713Y-113738207D01*
X136877159Y-113903641D01*
D13*
X163700000Y-116810000D03*
X163700000Y-112810000D03*
D14*
X168940000Y-116800000D03*
X168940000Y-114300000D03*
X177690000Y-114300000D03*
X177690000Y-116800000D03*
D15*
X132970000Y-89990000D03*
X135470000Y-89990000D03*
X172450000Y-104450000D03*
X174950000Y-104450000D03*
X135520000Y-92590000D03*
X133020000Y-92590000D03*
D14*
X155100000Y-91150000D03*
X155100000Y-93650000D03*
X152070000Y-91150000D03*
X152070000Y-93650000D03*
D16*
X173440000Y-116900000D03*
X173440000Y-114200000D03*
D17*
X189250000Y-102904000D03*
D18*
X183925000Y-104954000D03*
X183925000Y-106554000D03*
X185675000Y-105754000D03*
X185675000Y-107354000D03*
X183925000Y-108154000D03*
D17*
X189250000Y-110204000D03*
D19*
X115370000Y-92460000D03*
X115370000Y-95230000D03*
X115370000Y-98000000D03*
X115370000Y-100770000D03*
X115370000Y-103540000D03*
X112830000Y-93845000D03*
X112830000Y-96615000D03*
X112830000Y-99385000D03*
X112830000Y-102155000D03*
D20*
X114100000Y-85505000D03*
X114100000Y-110495000D03*
D21*
X173650000Y-97450000D03*
X176350000Y-97450000D03*
X173650000Y-88850000D03*
X176350000Y-88850000D03*
D22*
X161900000Y-98125000D03*
X161900000Y-98775000D03*
X161900000Y-99425000D03*
X161900000Y-100075000D03*
X161900000Y-100725000D03*
X161900000Y-101375000D03*
X161900000Y-102025000D03*
X161900000Y-102675000D03*
X161900000Y-103325000D03*
X161900000Y-103975000D03*
X161900000Y-104625000D03*
X161900000Y-105275000D03*
X161900000Y-105925000D03*
X161900000Y-106575000D03*
X169100000Y-106575000D03*
X169100000Y-105925000D03*
X169100000Y-105275000D03*
X169100000Y-104625000D03*
X169100000Y-103975000D03*
X169100000Y-103325000D03*
X169100000Y-102675000D03*
X169100000Y-102025000D03*
X169100000Y-101375000D03*
X169100000Y-100725000D03*
X169100000Y-100075000D03*
X169100000Y-99425000D03*
X169100000Y-98775000D03*
X169100000Y-98125000D03*
D23*
X138805000Y-89870000D03*
X138805000Y-91140000D03*
X138805000Y-92410000D03*
X138805000Y-93680000D03*
X138805000Y-94950000D03*
X138805000Y-96220000D03*
X138805000Y-97490000D03*
X138805000Y-98760000D03*
X138805000Y-100030000D03*
X138805000Y-101300000D03*
X138805000Y-102570000D03*
X138805000Y-103840000D03*
X138805000Y-105110000D03*
X138805000Y-106380000D03*
X148205000Y-106380000D03*
X148205000Y-105110000D03*
X148205000Y-103840000D03*
X148205000Y-102570000D03*
X148205000Y-101300000D03*
X148205000Y-100030000D03*
X148205000Y-98760000D03*
X148205000Y-97490000D03*
X148205000Y-96220000D03*
X148205000Y-94950000D03*
X148205000Y-93680000D03*
X148205000Y-92410000D03*
X148205000Y-91140000D03*
X148205000Y-89870000D03*
D24*
X187100000Y-94881000D03*
X187100000Y-97421000D03*
X187100000Y-86328000D03*
X187100000Y-88868000D03*
D25*
X178550000Y-65840000D03*
X117840000Y-130320000D03*
D26*
X122770000Y-107300000D03*
X166520000Y-90300000D03*
X181640000Y-101010000D03*
X179590000Y-97420000D03*
X180530000Y-102030000D03*
X179490000Y-88870000D03*
X177920000Y-105550000D03*
X131450000Y-97500000D03*
X123850000Y-95230000D03*
X120190000Y-98000000D03*
X123740000Y-100840000D03*
X132210000Y-96220000D03*
X124020000Y-97780000D03*
X126330000Y-98760000D03*
X129070000Y-97480000D03*
D27*
X168940000Y-116800000D02*
X163710000Y-116800000D01*
X163710000Y-116800000D02*
X163700000Y-116810000D01*
D28*
X160860000Y-111810000D02*
X160860000Y-115350000D01*
X165820000Y-104420000D02*
X165820000Y-106850000D01*
X165820000Y-106850000D02*
X160860000Y-111810000D01*
X162320000Y-116810000D02*
X163700000Y-116810000D01*
X160860000Y-115350000D02*
X162320000Y-116810000D01*
X165820000Y-102340000D02*
X165820000Y-98180000D01*
X167130000Y-96870000D02*
X173070000Y-96870000D01*
X165820000Y-98180000D02*
X167130000Y-96870000D01*
X173070000Y-96870000D02*
X173650000Y-97450000D01*
X165820000Y-104420000D02*
X165820000Y-102340000D01*
X163555000Y-100075000D02*
X161900000Y-100075000D01*
X165820000Y-102340000D02*
X163555000Y-100075000D01*
X165820000Y-104420000D02*
X166915000Y-103325000D01*
X166915000Y-103325000D02*
X169100000Y-103325000D01*
X148205000Y-97490000D02*
X151760000Y-97490000D01*
X150490000Y-96220000D02*
X151760000Y-97490000D01*
X151760000Y-97490000D02*
X154345000Y-100075000D01*
X154345000Y-100075000D02*
X161900000Y-100075000D01*
X148205000Y-96220000D02*
X150490000Y-96220000D01*
D27*
X148205000Y-92410000D02*
X146370000Y-92410000D01*
X146370000Y-96220000D02*
X148205000Y-96220000D01*
X145720000Y-95570000D02*
X146370000Y-96220000D01*
X145720000Y-93060000D02*
X145720000Y-95570000D01*
X146370000Y-92410000D02*
X145720000Y-93060000D01*
X173440000Y-116900000D02*
X173340000Y-116800000D01*
X173340000Y-116800000D02*
X168940000Y-116800000D01*
X173650000Y-88850000D02*
X173650000Y-97450000D01*
D29*
X115370000Y-103540000D02*
X119130000Y-107300000D01*
X119130000Y-107300000D02*
X122770000Y-107300000D01*
X152070000Y-93650000D02*
X153340000Y-93650000D01*
X153900000Y-92400000D02*
X156580000Y-92400000D01*
X153720000Y-92580000D02*
X153900000Y-92400000D01*
X153720000Y-93270000D02*
X153720000Y-92580000D01*
X153340000Y-93650000D02*
X153720000Y-93270000D01*
D27*
X148205000Y-93680000D02*
X152040000Y-93680000D01*
D28*
X169100000Y-104625000D02*
X170455000Y-104625000D01*
X170455000Y-104625000D02*
X170630000Y-104450000D01*
X169100000Y-100075000D02*
X167575000Y-100075000D01*
D29*
X167575000Y-100075000D02*
X167570000Y-100070000D01*
D28*
X169100000Y-99425000D02*
X167575000Y-99425000D01*
D29*
X167575000Y-99425000D02*
X167570000Y-99430000D01*
D28*
X169100000Y-99425000D02*
X170445000Y-99425000D01*
D29*
X170445000Y-99425000D02*
X170460000Y-99410000D01*
D28*
X169100000Y-100075000D02*
X170535000Y-100075000D01*
D29*
X170535000Y-100075000D02*
X170560000Y-100100000D01*
D28*
X169100000Y-104625000D02*
X167825000Y-104625000D01*
X169100000Y-102675000D02*
X170435000Y-102675000D01*
X170435000Y-102675000D02*
X170560000Y-102800000D01*
X169100000Y-102675000D02*
X167545000Y-102675000D01*
D29*
X167545000Y-102675000D02*
X167540000Y-102680000D01*
D28*
X161900000Y-102025000D02*
X160475000Y-102025000D01*
D29*
X160475000Y-102025000D02*
X160470000Y-102020000D01*
D28*
X161900000Y-102025000D02*
X163425000Y-102025000D01*
D29*
X163425000Y-102025000D02*
X163430000Y-102030000D01*
D27*
X152040000Y-93680000D02*
X152070000Y-93650000D01*
X184200000Y-108154000D02*
X183836000Y-108154000D01*
X183836000Y-108154000D02*
X177690000Y-114300000D01*
X177690000Y-114300000D02*
X177590000Y-114200000D01*
X177590000Y-114200000D02*
X173440000Y-114200000D01*
X138805000Y-89870000D02*
X137870000Y-89870000D01*
X137870000Y-89870000D02*
X136490000Y-88490000D01*
X136490000Y-88490000D02*
X134470000Y-88490000D01*
X134470000Y-88490000D02*
X132970000Y-89990000D01*
X138805000Y-91140000D02*
X136620000Y-91140000D01*
X136620000Y-91140000D02*
X135470000Y-89990000D01*
D28*
X169100000Y-105275000D02*
X171625000Y-105275000D01*
X171625000Y-105275000D02*
X172450000Y-104450000D01*
D27*
X135520000Y-92590000D02*
X135700000Y-92410000D01*
X135700000Y-92410000D02*
X138805000Y-92410000D01*
X148205000Y-89870000D02*
X153820000Y-89870000D01*
X153820000Y-89870000D02*
X155100000Y-91150000D01*
X148205000Y-94950000D02*
X153800000Y-94950000D01*
X153800000Y-94950000D02*
X155100000Y-93650000D01*
X152060000Y-91140000D02*
X152070000Y-91150000D01*
X148205000Y-91140000D02*
X152060000Y-91140000D01*
D28*
X169100000Y-101375000D02*
X171215000Y-101375000D01*
X171580000Y-101010000D02*
X181640000Y-101010000D01*
X171215000Y-101375000D02*
X171580000Y-101010000D01*
D27*
X179560000Y-97450000D02*
X176350000Y-97450000D01*
X179590000Y-97420000D02*
X179560000Y-97450000D01*
D28*
X169100000Y-102025000D02*
X180525000Y-102025000D01*
X180525000Y-102025000D02*
X180530000Y-102030000D01*
D27*
X179470000Y-88850000D02*
X176350000Y-88850000D01*
X179490000Y-88870000D02*
X179470000Y-88850000D01*
D28*
X169100000Y-106575000D02*
X184179000Y-106575000D01*
X184179000Y-106575000D02*
X184200000Y-106554000D01*
X169100000Y-105925000D02*
X177545000Y-105925000D01*
X177920000Y-105550000D02*
X177545000Y-105925000D01*
D27*
X131460000Y-97490000D02*
X138805000Y-97490000D01*
X131450000Y-97500000D02*
X131460000Y-97490000D01*
X129470000Y-95230000D02*
X131020000Y-93680000D01*
X131020000Y-93680000D02*
X138805000Y-93680000D01*
X123850000Y-95230000D02*
X129470000Y-95230000D01*
X122530000Y-102570000D02*
X121510000Y-101550000D01*
X121510000Y-99320000D02*
X120190000Y-98000000D01*
X121510000Y-101550000D02*
X121510000Y-99320000D01*
X122530000Y-102570000D02*
X138805000Y-102570000D01*
X138805000Y-101300000D02*
X124200000Y-101300000D01*
X124200000Y-101300000D02*
X123740000Y-100840000D01*
X132210000Y-96220000D02*
X138805000Y-96220000D01*
X124020000Y-97780000D02*
X126270000Y-100030000D01*
X126270000Y-100030000D02*
X138805000Y-100030000D01*
X126330000Y-98760000D02*
X138805000Y-98760000D01*
X129070000Y-97480000D02*
X131600000Y-94950000D01*
X131600000Y-94950000D02*
X138805000Y-94950000D01*
D28*
X161900000Y-98125000D02*
X160595000Y-98125000D01*
X159370000Y-87010000D02*
X157570000Y-85210000D01*
X159370000Y-96900000D02*
X159370000Y-87010000D01*
X160595000Y-98125000D02*
X159370000Y-96900000D01*
X140380000Y-103840000D02*
X138805000Y-103840000D01*
X141490000Y-102730000D02*
X140380000Y-103840000D01*
X141490000Y-86950000D02*
X141490000Y-102730000D01*
X143230000Y-85210000D02*
X141490000Y-86950000D01*
X157570000Y-85210000D02*
X143230000Y-85210000D01*
X161900000Y-98775000D02*
X160235000Y-98775000D01*
X140620000Y-105110000D02*
X138805000Y-105110000D01*
X142580000Y-103150000D02*
X140620000Y-105110000D01*
X142580000Y-87810000D02*
X142580000Y-103150000D01*
X144270000Y-86120000D02*
X142580000Y-87810000D01*
X156950000Y-86120000D02*
X144270000Y-86120000D01*
X158640000Y-87810000D02*
X156950000Y-86120000D01*
X158640000Y-97180000D02*
X158640000Y-87810000D01*
X160235000Y-98775000D02*
X158640000Y-97180000D01*
X138805000Y-106380000D02*
X141500000Y-106380000D01*
X159325000Y-99425000D02*
X161900000Y-99425000D01*
X157730000Y-97830000D02*
X159325000Y-99425000D01*
X157730000Y-88640000D02*
X157730000Y-97830000D01*
X156310000Y-87220000D02*
X157730000Y-88640000D01*
X145270000Y-87220000D02*
X156310000Y-87220000D01*
X143890000Y-88600000D02*
X145270000Y-87220000D01*
X143890000Y-103990000D02*
X143890000Y-88600000D01*
X141500000Y-106380000D02*
X143890000Y-103990000D01*
X148205000Y-101300000D02*
X153450000Y-101300000D01*
X154025000Y-100725000D02*
X161900000Y-100725000D01*
X153450000Y-101300000D02*
X154025000Y-100725000D01*
X148205000Y-102570000D02*
X153930000Y-102570000D01*
X155125000Y-101375000D02*
X161900000Y-101375000D01*
X153930000Y-102570000D02*
X155125000Y-101375000D01*
X148205000Y-103840000D02*
X155470000Y-103840000D01*
X155985000Y-103325000D02*
X161900000Y-103325000D01*
X155470000Y-103840000D02*
X155985000Y-103325000D01*
X148205000Y-105110000D02*
X155790000Y-105110000D01*
X156925000Y-103975000D02*
X161900000Y-103975000D01*
X155790000Y-105110000D02*
X156925000Y-103975000D01*
X148205000Y-106380000D02*
X156010000Y-106380000D01*
X157765000Y-104625000D02*
X161900000Y-104625000D01*
X156010000Y-106380000D02*
X157765000Y-104625000D01*
D30*
G36*
X181500000Y-70500000D02*
X181538060Y-70691342D01*
X181646447Y-70853553D01*
X181808658Y-70961940D01*
X182000000Y-71000000D01*
X191000000Y-71000000D01*
X191000000Y-102329862D01*
X190889857Y-102087999D01*
X190490820Y-101713909D01*
X189979000Y-101521000D01*
X189479000Y-101521000D01*
X189479000Y-102675000D01*
X189499000Y-102675000D01*
X189499000Y-103133000D01*
X189479000Y-103133000D01*
X189479000Y-104287000D01*
X189979000Y-104287000D01*
X190490820Y-104094091D01*
X190889857Y-103720001D01*
X191000000Y-103478138D01*
X191000000Y-109629862D01*
X190889857Y-109387999D01*
X190490820Y-109013909D01*
X189979000Y-108821000D01*
X189479000Y-108821000D01*
X189479000Y-109975000D01*
X189499000Y-109975000D01*
X189499000Y-110433000D01*
X189479000Y-110433000D01*
X189479000Y-111587000D01*
X189979000Y-111587000D01*
X190490820Y-111394091D01*
X190889857Y-111020001D01*
X191000000Y-110778138D01*
X191000000Y-125000000D01*
X182000000Y-125000000D01*
X181808658Y-125038060D01*
X181646447Y-125146447D01*
X181538060Y-125308658D01*
X181500000Y-125500000D01*
X181500000Y-132900000D01*
X114500000Y-132900000D01*
X114500000Y-130586461D01*
X116544775Y-130586461D01*
X116741512Y-131062600D01*
X117105483Y-131427208D01*
X117581278Y-131624775D01*
X118096461Y-131625225D01*
X118572600Y-131428488D01*
X118937208Y-131064517D01*
X119134775Y-130588722D01*
X119135225Y-130073539D01*
X118938488Y-129597400D01*
X118574517Y-129232792D01*
X118098722Y-129035225D01*
X117583539Y-129034775D01*
X117107400Y-129231512D01*
X116742792Y-129595483D01*
X116545225Y-130071278D01*
X116544775Y-130586461D01*
X114500000Y-130586461D01*
X114500000Y-125500000D01*
X114461940Y-125308658D01*
X114353553Y-125146447D01*
X114191342Y-125038060D01*
X114000000Y-125000000D01*
X105000000Y-125000000D01*
X105000000Y-122610246D01*
X117004580Y-122610246D01*
X117372986Y-123501858D01*
X118054554Y-124184617D01*
X118945521Y-124554579D01*
X119910246Y-124555420D01*
X120801858Y-124187014D01*
X121484617Y-123505446D01*
X121854579Y-122614479D01*
X121855420Y-121649754D01*
X121487014Y-120758142D01*
X120805446Y-120075383D01*
X119914479Y-119705421D01*
X118949754Y-119704580D01*
X118058142Y-120072986D01*
X117375383Y-120754554D01*
X117005421Y-121645521D01*
X117004580Y-122610246D01*
X105000000Y-122610246D01*
X105000000Y-111074266D01*
X111174494Y-111074266D01*
X111618860Y-112149715D01*
X112440957Y-112973248D01*
X113515629Y-113419491D01*
X114679266Y-113420506D01*
X115754715Y-112976140D01*
X116578248Y-112154043D01*
X116912115Y-111350000D01*
X126835000Y-111350000D01*
X126835000Y-129920000D01*
X126836903Y-129929567D01*
X126842322Y-129937678D01*
X126850433Y-129943097D01*
X126860000Y-129945000D01*
X142520000Y-129945000D01*
X142529567Y-129943097D01*
X142537678Y-129937678D01*
X142543097Y-129929567D01*
X142545000Y-129920000D01*
X142545000Y-122090000D01*
X143355000Y-122090000D01*
X143355000Y-129890000D01*
X143356903Y-129899567D01*
X143362322Y-129907678D01*
X143370433Y-129913097D01*
X143380000Y-129915000D01*
X174580000Y-129915000D01*
X174589567Y-129913097D01*
X174597678Y-129907678D01*
X174603097Y-129899567D01*
X174605000Y-129890000D01*
X174605000Y-122090000D01*
X174603097Y-122080433D01*
X174597678Y-122072322D01*
X174589567Y-122066903D01*
X174580000Y-122065000D01*
X143380000Y-122065000D01*
X143370433Y-122066903D01*
X143362322Y-122072322D01*
X143356903Y-122080433D01*
X143355000Y-122090000D01*
X142545000Y-122090000D01*
X142545000Y-111520000D01*
X143315000Y-111520000D01*
X143315000Y-121020000D01*
X143316903Y-121029567D01*
X143322322Y-121037678D01*
X143330433Y-121043097D01*
X143340000Y-121045000D01*
X157850000Y-121045000D01*
X157859567Y-121043097D01*
X157867678Y-121037678D01*
X157873097Y-121029567D01*
X157875000Y-121020000D01*
X157875000Y-119435246D01*
X183044580Y-119435246D01*
X183412986Y-120326858D01*
X184094554Y-121009617D01*
X184985521Y-121379579D01*
X185950246Y-121380420D01*
X186841858Y-121012014D01*
X187524617Y-120330446D01*
X187894579Y-119439479D01*
X187895420Y-118474754D01*
X187527014Y-117583142D01*
X186845446Y-116900383D01*
X185954479Y-116530421D01*
X184989754Y-116529580D01*
X184098142Y-116897986D01*
X183415383Y-117579554D01*
X183045421Y-118470521D01*
X183044580Y-119435246D01*
X157875000Y-119435246D01*
X157875000Y-111520000D01*
X157873097Y-111510433D01*
X157867678Y-111502322D01*
X157859567Y-111496903D01*
X157850000Y-111495000D01*
X143340000Y-111495000D01*
X143330433Y-111496903D01*
X143322322Y-111502322D01*
X143316903Y-111510433D01*
X143315000Y-111520000D01*
X142545000Y-111520000D01*
X142545000Y-111350000D01*
X142543097Y-111340433D01*
X142537678Y-111332322D01*
X142529567Y-111326903D01*
X142520000Y-111325000D01*
X126860000Y-111325000D01*
X126850433Y-111326903D01*
X126842322Y-111332322D01*
X126836903Y-111340433D01*
X126835000Y-111350000D01*
X116912115Y-111350000D01*
X117024491Y-111079371D01*
X117025506Y-109915734D01*
X116581140Y-108840285D01*
X115759043Y-108016752D01*
X114684371Y-107570509D01*
X113520734Y-107569494D01*
X112445285Y-108013860D01*
X111621752Y-108835957D01*
X111175509Y-109910629D01*
X111174494Y-111074266D01*
X105000000Y-111074266D01*
X105000000Y-104553486D01*
X114680369Y-104553486D01*
X114767818Y-104758430D01*
X115279929Y-104896128D01*
X115805752Y-104827368D01*
X115972182Y-104758430D01*
X116059631Y-104553486D01*
X115370000Y-103863855D01*
X114680369Y-104553486D01*
X105000000Y-104553486D01*
X105000000Y-103449929D01*
X114013872Y-103449929D01*
X114082632Y-103975752D01*
X114151570Y-104142182D01*
X114356514Y-104229631D01*
X115046145Y-103540000D01*
X115693855Y-103540000D01*
X116383486Y-104229631D01*
X116588430Y-104142182D01*
X116726128Y-103630071D01*
X116657368Y-103104248D01*
X116588430Y-102937818D01*
X116383486Y-102850369D01*
X115693855Y-103540000D01*
X115046145Y-103540000D01*
X114356514Y-102850369D01*
X114151570Y-102937818D01*
X114013872Y-103449929D01*
X105000000Y-103449929D01*
X105000000Y-102397599D01*
X111604788Y-102397599D01*
X111790890Y-102848000D01*
X112135187Y-103192899D01*
X112585263Y-103379787D01*
X113072599Y-103380212D01*
X113523000Y-103194110D01*
X113867899Y-102849813D01*
X114002144Y-102526514D01*
X114680369Y-102526514D01*
X115370000Y-103216145D01*
X116059631Y-102526514D01*
X115972182Y-102321570D01*
X115460071Y-102183872D01*
X114934248Y-102252632D01*
X114767818Y-102321570D01*
X114680369Y-102526514D01*
X114002144Y-102526514D01*
X114054787Y-102399737D01*
X114055212Y-101912401D01*
X113869110Y-101462000D01*
X113524813Y-101117101D01*
X113273145Y-101012599D01*
X114144788Y-101012599D01*
X114330890Y-101463000D01*
X114675187Y-101807899D01*
X115125263Y-101994787D01*
X115612599Y-101995212D01*
X116063000Y-101809110D01*
X116407899Y-101464813D01*
X116594787Y-101014737D01*
X116595212Y-100527401D01*
X116409110Y-100077000D01*
X116064813Y-99732101D01*
X115614737Y-99545213D01*
X115127401Y-99544788D01*
X114677000Y-99730890D01*
X114332101Y-100075187D01*
X114145213Y-100525263D01*
X114144788Y-101012599D01*
X113273145Y-101012599D01*
X113074737Y-100930213D01*
X112587401Y-100929788D01*
X112137000Y-101115890D01*
X111792101Y-101460187D01*
X111605213Y-101910263D01*
X111604788Y-102397599D01*
X105000000Y-102397599D01*
X105000000Y-99627599D01*
X111604788Y-99627599D01*
X111790890Y-100078000D01*
X112135187Y-100422899D01*
X112585263Y-100609787D01*
X113072599Y-100610212D01*
X113523000Y-100424110D01*
X113867899Y-100079813D01*
X114054787Y-99629737D01*
X114055212Y-99142401D01*
X113869110Y-98692000D01*
X113524813Y-98347101D01*
X113273145Y-98242599D01*
X114144788Y-98242599D01*
X114330890Y-98693000D01*
X114675187Y-99037899D01*
X115125263Y-99224787D01*
X115612599Y-99225212D01*
X116063000Y-99039110D01*
X116407899Y-98694813D01*
X116594787Y-98244737D01*
X116594849Y-98173285D01*
X119314849Y-98173285D01*
X119447779Y-98495000D01*
X119693705Y-98741356D01*
X120015188Y-98874848D01*
X120110337Y-98874931D01*
X120835000Y-99599594D01*
X120835000Y-101550000D01*
X120886381Y-101808312D01*
X121032703Y-102027297D01*
X122052703Y-103047297D01*
X122271688Y-103193619D01*
X122530000Y-103245000D01*
X137490969Y-103245000D01*
X137404659Y-103374173D01*
X137371674Y-103540000D01*
X137371674Y-104140000D01*
X137404659Y-104305827D01*
X137498592Y-104446408D01*
X137541383Y-104475000D01*
X137498592Y-104503592D01*
X137404659Y-104644173D01*
X137371674Y-104810000D01*
X137371674Y-105410000D01*
X137404659Y-105575827D01*
X137498592Y-105716408D01*
X137541383Y-105745000D01*
X137498592Y-105773592D01*
X137404659Y-105914173D01*
X137371674Y-106080000D01*
X137371674Y-106680000D01*
X137404659Y-106845827D01*
X137498592Y-106986408D01*
X137639173Y-107080341D01*
X137805000Y-107113326D01*
X139805000Y-107113326D01*
X139970827Y-107080341D01*
X140083583Y-107005000D01*
X141500000Y-107005000D01*
X141739177Y-106957425D01*
X141941942Y-106821942D01*
X144331939Y-104431944D01*
X144331942Y-104431942D01*
X144467122Y-104229631D01*
X144467425Y-104229178D01*
X144515000Y-103990000D01*
X144515000Y-88858884D01*
X145528884Y-87845000D01*
X156051116Y-87845000D01*
X157105000Y-88898884D01*
X157105000Y-97830000D01*
X157152575Y-98069177D01*
X157288058Y-98271942D01*
X158466117Y-99450000D01*
X154603884Y-99450000D01*
X150931942Y-95778058D01*
X150729177Y-95642575D01*
X150640821Y-95625000D01*
X153800000Y-95625000D01*
X154058312Y-95573619D01*
X154277297Y-95427297D01*
X154871268Y-94833326D01*
X155725000Y-94833326D01*
X155890827Y-94800341D01*
X156031408Y-94706408D01*
X156125341Y-94565827D01*
X156158326Y-94400000D01*
X156158326Y-92900000D01*
X156125341Y-92734173D01*
X156031408Y-92593592D01*
X155890827Y-92499659D01*
X155725000Y-92466674D01*
X154475000Y-92466674D01*
X154309173Y-92499659D01*
X154168592Y-92593592D01*
X154074659Y-92734173D01*
X154041674Y-92900000D01*
X154041674Y-93753732D01*
X153520406Y-94275000D01*
X153228000Y-94275000D01*
X153228000Y-94012250D01*
X153094750Y-93879000D01*
X152299000Y-93879000D01*
X152299000Y-93899000D01*
X151841000Y-93899000D01*
X151841000Y-93879000D01*
X151045250Y-93879000D01*
X150912000Y-94012250D01*
X150912000Y-94275000D01*
X149659721Y-94275000D01*
X149738000Y-94086021D01*
X149738000Y-93963250D01*
X149604750Y-93830000D01*
X148434000Y-93830000D01*
X148434000Y-93929000D01*
X147976000Y-93929000D01*
X147976000Y-93830000D01*
X146805250Y-93830000D01*
X146672000Y-93963250D01*
X146672000Y-94086021D01*
X146753145Y-94281920D01*
X146865036Y-94393812D01*
X146804659Y-94484173D01*
X146771674Y-94650000D01*
X146771674Y-95250000D01*
X146804659Y-95415827D01*
X146890969Y-95545000D01*
X146649594Y-95545000D01*
X146395000Y-95290406D01*
X146395000Y-93339594D01*
X146649594Y-93085000D01*
X146750279Y-93085000D01*
X146672000Y-93273979D01*
X146672000Y-93396750D01*
X146805250Y-93530000D01*
X147976000Y-93530000D01*
X147976000Y-93431000D01*
X148434000Y-93431000D01*
X148434000Y-93530000D01*
X149604750Y-93530000D01*
X149738000Y-93396750D01*
X149738000Y-93273979D01*
X149656855Y-93078080D01*
X149544964Y-92966188D01*
X149605341Y-92875827D01*
X149621621Y-92793980D01*
X150912000Y-92793980D01*
X150912000Y-93287750D01*
X151045250Y-93421000D01*
X151841000Y-93421000D01*
X151841000Y-92500250D01*
X152299000Y-92500250D01*
X152299000Y-93421000D01*
X153094750Y-93421000D01*
X153228000Y-93287750D01*
X153228000Y-92793980D01*
X153146856Y-92598080D01*
X152996920Y-92448145D01*
X152801021Y-92367000D01*
X152432250Y-92367000D01*
X152299000Y-92500250D01*
X151841000Y-92500250D01*
X151707750Y-92367000D01*
X151338979Y-92367000D01*
X151143080Y-92448145D01*
X150993144Y-92598080D01*
X150912000Y-92793980D01*
X149621621Y-92793980D01*
X149638326Y-92710000D01*
X149638326Y-92110000D01*
X149605341Y-91944173D01*
X149519031Y-91815000D01*
X151011674Y-91815000D01*
X151011674Y-91900000D01*
X151044659Y-92065827D01*
X151138592Y-92206408D01*
X151279173Y-92300341D01*
X151445000Y-92333326D01*
X152695000Y-92333326D01*
X152860827Y-92300341D01*
X153001408Y-92206408D01*
X153095341Y-92065827D01*
X153128326Y-91900000D01*
X153128326Y-90545000D01*
X153540406Y-90545000D01*
X154041674Y-91046268D01*
X154041674Y-91900000D01*
X154074659Y-92065827D01*
X154168592Y-92206408D01*
X154309173Y-92300341D01*
X154475000Y-92333326D01*
X155725000Y-92333326D01*
X155890827Y-92300341D01*
X156031408Y-92206408D01*
X156125341Y-92065827D01*
X156158326Y-91900000D01*
X156158326Y-90400000D01*
X156125341Y-90234173D01*
X156031408Y-90093592D01*
X155890827Y-89999659D01*
X155725000Y-89966674D01*
X154871268Y-89966674D01*
X154297297Y-89392703D01*
X154078312Y-89246381D01*
X153820000Y-89195000D01*
X149408753Y-89195000D01*
X149370827Y-89169659D01*
X149205000Y-89136674D01*
X147205000Y-89136674D01*
X147039173Y-89169659D01*
X146898592Y-89263592D01*
X146804659Y-89404173D01*
X146771674Y-89570000D01*
X146771674Y-90170000D01*
X146804659Y-90335827D01*
X146898592Y-90476408D01*
X146941383Y-90505000D01*
X146898592Y-90533592D01*
X146804659Y-90674173D01*
X146771674Y-90840000D01*
X146771674Y-91440000D01*
X146804659Y-91605827D01*
X146890969Y-91735000D01*
X146370000Y-91735000D01*
X146111688Y-91786381D01*
X145892703Y-91932703D01*
X145242703Y-92582703D01*
X145096381Y-92801688D01*
X145076826Y-92900000D01*
X145045000Y-93060000D01*
X145045000Y-95570000D01*
X145096381Y-95828312D01*
X145242703Y-96047297D01*
X145892703Y-96697297D01*
X146111688Y-96843619D01*
X146370000Y-96895000D01*
X146890969Y-96895000D01*
X146804659Y-97024173D01*
X146771674Y-97190000D01*
X146771674Y-97790000D01*
X146804659Y-97955827D01*
X146898592Y-98096408D01*
X146941383Y-98125000D01*
X146898592Y-98153592D01*
X146804659Y-98294173D01*
X146771674Y-98460000D01*
X146771674Y-99060000D01*
X146804659Y-99225827D01*
X146898592Y-99366408D01*
X146941383Y-99395000D01*
X146898592Y-99423592D01*
X146804659Y-99564173D01*
X146771674Y-99730000D01*
X146771674Y-100330000D01*
X146804659Y-100495827D01*
X146898592Y-100636408D01*
X146941383Y-100665000D01*
X146898592Y-100693592D01*
X146804659Y-100834173D01*
X146771674Y-101000000D01*
X146771674Y-101600000D01*
X146804659Y-101765827D01*
X146898592Y-101906408D01*
X146941383Y-101935000D01*
X146898592Y-101963592D01*
X146804659Y-102104173D01*
X146771674Y-102270000D01*
X146771674Y-102870000D01*
X146804659Y-103035827D01*
X146898592Y-103176408D01*
X146941383Y-103205000D01*
X146898592Y-103233592D01*
X146804659Y-103374173D01*
X146771674Y-103540000D01*
X146771674Y-104140000D01*
X146804659Y-104305827D01*
X146898592Y-104446408D01*
X146941383Y-104475000D01*
X146898592Y-104503592D01*
X146804659Y-104644173D01*
X146771674Y-104810000D01*
X146771674Y-105410000D01*
X146804659Y-105575827D01*
X146898592Y-105716408D01*
X146941383Y-105745000D01*
X146898592Y-105773592D01*
X146804659Y-105914173D01*
X146771674Y-106080000D01*
X146771674Y-106680000D01*
X146804659Y-106845827D01*
X146898592Y-106986408D01*
X147039173Y-107080341D01*
X147205000Y-107113326D01*
X149205000Y-107113326D01*
X149370827Y-107080341D01*
X149483583Y-107005000D01*
X156010000Y-107005000D01*
X156249177Y-106957425D01*
X156451942Y-106821942D01*
X158023884Y-105250000D01*
X160591674Y-105250000D01*
X160591674Y-105500000D01*
X160611565Y-105600000D01*
X160591674Y-105700000D01*
X160591674Y-106150000D01*
X160611565Y-106250000D01*
X160591674Y-106350000D01*
X160591674Y-106800000D01*
X160624659Y-106965827D01*
X160718592Y-107106408D01*
X160859173Y-107200341D01*
X161025000Y-107233326D01*
X162775000Y-107233326D01*
X162940827Y-107200341D01*
X163081408Y-107106408D01*
X163175341Y-106965827D01*
X163208326Y-106800000D01*
X163208326Y-106350000D01*
X163188435Y-106250000D01*
X163208326Y-106150000D01*
X163208326Y-105700000D01*
X163188435Y-105600000D01*
X163208326Y-105500000D01*
X163208326Y-105050000D01*
X163188435Y-104950000D01*
X163208326Y-104850000D01*
X163208326Y-104400000D01*
X163188435Y-104300000D01*
X163208326Y-104200000D01*
X163208326Y-103750000D01*
X163188435Y-103650000D01*
X163208326Y-103550000D01*
X163208326Y-103100000D01*
X163188435Y-103000000D01*
X163208326Y-102900000D01*
X163208326Y-102570449D01*
X163226855Y-102551920D01*
X163308000Y-102356021D01*
X163308000Y-102270750D01*
X163174750Y-102137500D01*
X163072291Y-102137500D01*
X162940827Y-102049659D01*
X162816858Y-102025000D01*
X162940827Y-102000341D01*
X163072291Y-101912500D01*
X163174750Y-101912500D01*
X163308000Y-101779250D01*
X163308000Y-101693979D01*
X163226855Y-101498080D01*
X163208326Y-101479551D01*
X163208326Y-101150000D01*
X163188435Y-101050000D01*
X163208326Y-100950000D01*
X163208326Y-100700000D01*
X163296116Y-100700000D01*
X165195000Y-102598884D01*
X165195000Y-106591116D01*
X160418058Y-111368058D01*
X160282575Y-111570823D01*
X160235000Y-111810000D01*
X160235000Y-115350000D01*
X160282575Y-115589177D01*
X160418058Y-115791942D01*
X161878058Y-117251942D01*
X162016674Y-117344562D01*
X162016674Y-117810000D01*
X162049659Y-117975827D01*
X162143592Y-118116408D01*
X162284173Y-118210341D01*
X162450000Y-118243326D01*
X164950000Y-118243326D01*
X165115827Y-118210341D01*
X165256408Y-118116408D01*
X165350341Y-117975827D01*
X165383326Y-117810000D01*
X165383326Y-117475000D01*
X167881674Y-117475000D01*
X167881674Y-117550000D01*
X167914659Y-117715827D01*
X168008592Y-117856408D01*
X168149173Y-117950341D01*
X168315000Y-117983326D01*
X169565000Y-117983326D01*
X169730827Y-117950341D01*
X169871408Y-117856408D01*
X169965341Y-117715827D01*
X169998326Y-117550000D01*
X169998326Y-117475000D01*
X172356674Y-117475000D01*
X172356674Y-117650000D01*
X172389659Y-117815827D01*
X172483592Y-117956408D01*
X172624173Y-118050341D01*
X172790000Y-118083326D01*
X174090000Y-118083326D01*
X174255827Y-118050341D01*
X174396408Y-117956408D01*
X174490341Y-117815827D01*
X174523326Y-117650000D01*
X174523326Y-117162250D01*
X176532000Y-117162250D01*
X176532000Y-117656020D01*
X176613144Y-117851920D01*
X176763080Y-118001855D01*
X176958979Y-118083000D01*
X177327750Y-118083000D01*
X177461000Y-117949750D01*
X177461000Y-117029000D01*
X177919000Y-117029000D01*
X177919000Y-117949750D01*
X178052250Y-118083000D01*
X178421021Y-118083000D01*
X178616920Y-118001855D01*
X178766856Y-117851920D01*
X178848000Y-117656020D01*
X178848000Y-117162250D01*
X178714750Y-117029000D01*
X177919000Y-117029000D01*
X177461000Y-117029000D01*
X176665250Y-117029000D01*
X176532000Y-117162250D01*
X174523326Y-117162250D01*
X174523326Y-116150000D01*
X174490341Y-115984173D01*
X174463485Y-115943980D01*
X176532000Y-115943980D01*
X176532000Y-116437750D01*
X176665250Y-116571000D01*
X177461000Y-116571000D01*
X177461000Y-115650250D01*
X177919000Y-115650250D01*
X177919000Y-116571000D01*
X178714750Y-116571000D01*
X178848000Y-116437750D01*
X178848000Y-115943980D01*
X178766856Y-115748080D01*
X178616920Y-115598145D01*
X178421021Y-115517000D01*
X178052250Y-115517000D01*
X177919000Y-115650250D01*
X177461000Y-115650250D01*
X177327750Y-115517000D01*
X176958979Y-115517000D01*
X176763080Y-115598145D01*
X176613144Y-115748080D01*
X176532000Y-115943980D01*
X174463485Y-115943980D01*
X174396408Y-115843592D01*
X174255827Y-115749659D01*
X174090000Y-115716674D01*
X172790000Y-115716674D01*
X172624173Y-115749659D01*
X172483592Y-115843592D01*
X172389659Y-115984173D01*
X172361647Y-116125000D01*
X169998326Y-116125000D01*
X169998326Y-116050000D01*
X169965341Y-115884173D01*
X169871408Y-115743592D01*
X169730827Y-115649659D01*
X169565000Y-115616674D01*
X168315000Y-115616674D01*
X168149173Y-115649659D01*
X168008592Y-115743592D01*
X167914659Y-115884173D01*
X167881674Y-116050000D01*
X167881674Y-116125000D01*
X165383326Y-116125000D01*
X165383326Y-115810000D01*
X165350341Y-115644173D01*
X165256408Y-115503592D01*
X165115827Y-115409659D01*
X164950000Y-115376674D01*
X162450000Y-115376674D01*
X162284173Y-115409659D01*
X162143592Y-115503592D01*
X162049659Y-115644173D01*
X162047734Y-115653850D01*
X161485000Y-115091116D01*
X161485000Y-114662250D01*
X167782000Y-114662250D01*
X167782000Y-115156020D01*
X167863144Y-115351920D01*
X168013080Y-115501855D01*
X168208979Y-115583000D01*
X168577750Y-115583000D01*
X168711000Y-115449750D01*
X168711000Y-114529000D01*
X169169000Y-114529000D01*
X169169000Y-115449750D01*
X169302250Y-115583000D01*
X169671021Y-115583000D01*
X169866920Y-115501855D01*
X170016856Y-115351920D01*
X170098000Y-115156020D01*
X170098000Y-114662250D01*
X169964750Y-114529000D01*
X169169000Y-114529000D01*
X168711000Y-114529000D01*
X167915250Y-114529000D01*
X167782000Y-114662250D01*
X161485000Y-114662250D01*
X161485000Y-113172250D01*
X161917000Y-113172250D01*
X161917000Y-113916020D01*
X161998144Y-114111920D01*
X162148080Y-114261855D01*
X162343979Y-114343000D01*
X163337750Y-114343000D01*
X163471000Y-114209750D01*
X163471000Y-113039000D01*
X163929000Y-113039000D01*
X163929000Y-114209750D01*
X164062250Y-114343000D01*
X165056021Y-114343000D01*
X165251920Y-114261855D01*
X165401856Y-114111920D01*
X165483000Y-113916020D01*
X165483000Y-113443980D01*
X167782000Y-113443980D01*
X167782000Y-113937750D01*
X167915250Y-114071000D01*
X168711000Y-114071000D01*
X168711000Y-113150250D01*
X169169000Y-113150250D01*
X169169000Y-114071000D01*
X169964750Y-114071000D01*
X170098000Y-113937750D01*
X170098000Y-113443980D01*
X170016856Y-113248080D01*
X169866920Y-113098145D01*
X169671021Y-113017000D01*
X169302250Y-113017000D01*
X169169000Y-113150250D01*
X168711000Y-113150250D01*
X168577750Y-113017000D01*
X168208979Y-113017000D01*
X168013080Y-113098145D01*
X167863144Y-113248080D01*
X167782000Y-113443980D01*
X165483000Y-113443980D01*
X165483000Y-113172250D01*
X165349750Y-113039000D01*
X163929000Y-113039000D01*
X163471000Y-113039000D01*
X162050250Y-113039000D01*
X161917000Y-113172250D01*
X161485000Y-113172250D01*
X161485000Y-112068884D01*
X161964444Y-111589440D01*
X161917000Y-111703980D01*
X161917000Y-112447750D01*
X162050250Y-112581000D01*
X163471000Y-112581000D01*
X163471000Y-111410250D01*
X163929000Y-111410250D01*
X163929000Y-112581000D01*
X165349750Y-112581000D01*
X165483000Y-112447750D01*
X165483000Y-111703980D01*
X165401856Y-111508080D01*
X165251920Y-111358145D01*
X165056021Y-111277000D01*
X164062250Y-111277000D01*
X163929000Y-111410250D01*
X163471000Y-111410250D01*
X163337750Y-111277000D01*
X162343979Y-111277000D01*
X162229440Y-111324444D01*
X166261942Y-107291942D01*
X166397425Y-107089178D01*
X166445000Y-106850000D01*
X166445000Y-104678884D01*
X167173884Y-103950000D01*
X167791674Y-103950000D01*
X167791674Y-104079551D01*
X167773145Y-104098080D01*
X167692000Y-104293979D01*
X167692000Y-104379250D01*
X167825250Y-104512500D01*
X167927709Y-104512500D01*
X168059173Y-104600341D01*
X168183142Y-104625000D01*
X168059173Y-104649659D01*
X167927709Y-104737500D01*
X167825250Y-104737500D01*
X167692000Y-104870750D01*
X167692000Y-104956021D01*
X167773145Y-105151920D01*
X167791674Y-105170449D01*
X167791674Y-105500000D01*
X167811565Y-105600000D01*
X167791674Y-105700000D01*
X167791674Y-106150000D01*
X167811565Y-106250000D01*
X167791674Y-106350000D01*
X167791674Y-106800000D01*
X167824659Y-106965827D01*
X167918592Y-107106408D01*
X168059173Y-107200341D01*
X168225000Y-107233326D01*
X169975000Y-107233326D01*
X170140827Y-107200341D01*
X170141337Y-107200000D01*
X182907064Y-107200000D01*
X182936082Y-107243429D01*
X183101563Y-107354000D01*
X182936082Y-107464571D01*
X182724728Y-107780884D01*
X182650511Y-108154000D01*
X182688819Y-108346587D01*
X177918732Y-113116674D01*
X177065000Y-113116674D01*
X176899173Y-113149659D01*
X176758592Y-113243592D01*
X176664659Y-113384173D01*
X176636647Y-113525000D01*
X174523326Y-113525000D01*
X174523326Y-113450000D01*
X174490341Y-113284173D01*
X174396408Y-113143592D01*
X174255827Y-113049659D01*
X174090000Y-113016674D01*
X172790000Y-113016674D01*
X172624173Y-113049659D01*
X172483592Y-113143592D01*
X172389659Y-113284173D01*
X172356674Y-113450000D01*
X172356674Y-114950000D01*
X172389659Y-115115827D01*
X172483592Y-115256408D01*
X172624173Y-115350341D01*
X172790000Y-115383326D01*
X174090000Y-115383326D01*
X174255827Y-115350341D01*
X174396408Y-115256408D01*
X174490341Y-115115827D01*
X174523326Y-114950000D01*
X174523326Y-114875000D01*
X176631674Y-114875000D01*
X176631674Y-115050000D01*
X176664659Y-115215827D01*
X176758592Y-115356408D01*
X176899173Y-115450341D01*
X177065000Y-115483326D01*
X178315000Y-115483326D01*
X178480827Y-115450341D01*
X178621408Y-115356408D01*
X178715341Y-115215827D01*
X178748326Y-115050000D01*
X178748326Y-114196268D01*
X182301051Y-110643543D01*
X187438706Y-110643543D01*
X187610143Y-111020001D01*
X188009180Y-111394091D01*
X188521000Y-111587000D01*
X189021000Y-111587000D01*
X189021000Y-110433000D01*
X187521410Y-110433000D01*
X187438706Y-110643543D01*
X182301051Y-110643543D01*
X183180137Y-109764457D01*
X187438706Y-109764457D01*
X187521410Y-109975000D01*
X189021000Y-109975000D01*
X189021000Y-108821000D01*
X188521000Y-108821000D01*
X188009180Y-109013909D01*
X187610143Y-109387999D01*
X187438706Y-109764457D01*
X183180137Y-109764457D01*
X183815594Y-109129000D01*
X184224489Y-109129000D01*
X184597605Y-109054783D01*
X184913918Y-108843429D01*
X185125272Y-108527116D01*
X185172704Y-108288659D01*
X185375511Y-108329000D01*
X185974489Y-108329000D01*
X186347605Y-108254783D01*
X186663918Y-108043429D01*
X186875272Y-107727116D01*
X186949489Y-107354000D01*
X186875272Y-106980884D01*
X186663918Y-106664571D01*
X186498437Y-106554000D01*
X186663918Y-106443429D01*
X186875272Y-106127116D01*
X186949489Y-105754000D01*
X186875272Y-105380884D01*
X186663918Y-105064571D01*
X186347605Y-104853217D01*
X185974489Y-104779000D01*
X185375511Y-104779000D01*
X185283000Y-104797401D01*
X185283000Y-104724998D01*
X185121730Y-104724998D01*
X185209656Y-104562232D01*
X185053049Y-104277364D01*
X184729177Y-104002422D01*
X184324743Y-103872349D01*
X184154000Y-103999402D01*
X184154000Y-104725000D01*
X184174000Y-104725000D01*
X184174000Y-105183000D01*
X184154000Y-105183000D01*
X184154000Y-105203000D01*
X183696000Y-105203000D01*
X183696000Y-105183000D01*
X182728271Y-105183000D01*
X182640344Y-105345768D01*
X182796951Y-105630636D01*
X183012427Y-105813559D01*
X182936082Y-105864571D01*
X182879000Y-105950000D01*
X178701341Y-105950000D01*
X178794848Y-105724812D01*
X178795151Y-105376715D01*
X178662221Y-105055000D01*
X178416295Y-104808644D01*
X178094812Y-104675152D01*
X177746715Y-104674849D01*
X177425000Y-104807779D01*
X177178644Y-105053705D01*
X177076373Y-105300000D01*
X176183717Y-105300000D01*
X176233000Y-105181021D01*
X176233000Y-104812250D01*
X176099750Y-104679000D01*
X175179000Y-104679000D01*
X175179000Y-104699000D01*
X174721000Y-104699000D01*
X174721000Y-104679000D01*
X173800250Y-104679000D01*
X173667000Y-104812250D01*
X173667000Y-105181021D01*
X173716283Y-105300000D01*
X173560803Y-105300000D01*
X173600341Y-105240827D01*
X173633326Y-105075000D01*
X173633326Y-104562232D01*
X182640344Y-104562232D01*
X182728271Y-104725000D01*
X183696000Y-104725000D01*
X183696000Y-103999402D01*
X183525257Y-103872349D01*
X183120823Y-104002422D01*
X182796951Y-104277364D01*
X182640344Y-104562232D01*
X173633326Y-104562232D01*
X173633326Y-103825000D01*
X173612238Y-103718979D01*
X173667000Y-103718979D01*
X173667000Y-104087750D01*
X173800250Y-104221000D01*
X174721000Y-104221000D01*
X174721000Y-103425250D01*
X175179000Y-103425250D01*
X175179000Y-104221000D01*
X176099750Y-104221000D01*
X176233000Y-104087750D01*
X176233000Y-103718979D01*
X176151855Y-103523080D01*
X176001920Y-103373144D01*
X175930457Y-103343543D01*
X187438706Y-103343543D01*
X187610143Y-103720001D01*
X188009180Y-104094091D01*
X188521000Y-104287000D01*
X189021000Y-104287000D01*
X189021000Y-103133000D01*
X187521410Y-103133000D01*
X187438706Y-103343543D01*
X175930457Y-103343543D01*
X175806020Y-103292000D01*
X175312250Y-103292000D01*
X175179000Y-103425250D01*
X174721000Y-103425250D01*
X174587750Y-103292000D01*
X174093980Y-103292000D01*
X173898080Y-103373144D01*
X173748145Y-103523080D01*
X173667000Y-103718979D01*
X173612238Y-103718979D01*
X173600341Y-103659173D01*
X173506408Y-103518592D01*
X173365827Y-103424659D01*
X173200000Y-103391674D01*
X171700000Y-103391674D01*
X171534173Y-103424659D01*
X171393592Y-103518592D01*
X171299659Y-103659173D01*
X171266674Y-103825000D01*
X171266674Y-104650000D01*
X170141337Y-104650000D01*
X170140827Y-104649659D01*
X170016858Y-104625000D01*
X170140827Y-104600341D01*
X170272291Y-104512500D01*
X170374750Y-104512500D01*
X170508000Y-104379250D01*
X170508000Y-104293979D01*
X170426855Y-104098080D01*
X170408326Y-104079551D01*
X170408326Y-103750000D01*
X170388435Y-103650000D01*
X170408326Y-103550000D01*
X170408326Y-103220449D01*
X170426855Y-103201920D01*
X170508000Y-103006021D01*
X170508000Y-102920750D01*
X170374750Y-102787500D01*
X170272291Y-102787500D01*
X170140827Y-102699659D01*
X170016858Y-102675000D01*
X170140827Y-102650341D01*
X170141337Y-102650000D01*
X179912561Y-102650000D01*
X180033705Y-102771356D01*
X180355188Y-102904848D01*
X180703285Y-102905151D01*
X181025000Y-102772221D01*
X181271356Y-102526295D01*
X181297033Y-102464457D01*
X187438706Y-102464457D01*
X187521410Y-102675000D01*
X189021000Y-102675000D01*
X189021000Y-101521000D01*
X188521000Y-101521000D01*
X188009180Y-101713909D01*
X187610143Y-102087999D01*
X187438706Y-102464457D01*
X181297033Y-102464457D01*
X181404848Y-102204812D01*
X181405148Y-101859917D01*
X181465188Y-101884848D01*
X181813285Y-101885151D01*
X182135000Y-101752221D01*
X182381356Y-101506295D01*
X182514848Y-101184812D01*
X182515151Y-100836715D01*
X182382221Y-100515000D01*
X182136295Y-100268644D01*
X181814812Y-100135152D01*
X181466715Y-100134849D01*
X181145000Y-100267779D01*
X181027574Y-100385000D01*
X171580000Y-100385000D01*
X171340823Y-100432575D01*
X171138058Y-100568058D01*
X170956116Y-100750000D01*
X170408326Y-100750000D01*
X170408326Y-100620449D01*
X170426855Y-100601920D01*
X170508000Y-100406021D01*
X170508000Y-100320750D01*
X170374750Y-100187500D01*
X170272291Y-100187500D01*
X170194937Y-100135814D01*
X170276920Y-100101856D01*
X170426855Y-99951920D01*
X170456218Y-99881032D01*
X170508000Y-99829250D01*
X170508000Y-99670750D01*
X170456218Y-99618968D01*
X170426855Y-99548080D01*
X170276920Y-99398144D01*
X170194937Y-99364186D01*
X170272291Y-99312500D01*
X170374750Y-99312500D01*
X170508000Y-99179250D01*
X170508000Y-99093979D01*
X170426855Y-98898080D01*
X170408326Y-98879551D01*
X170408326Y-98550000D01*
X170388435Y-98450000D01*
X170408326Y-98350000D01*
X170408326Y-97900000D01*
X170375341Y-97734173D01*
X170281408Y-97593592D01*
X170140827Y-97499659D01*
X170117405Y-97495000D01*
X172466674Y-97495000D01*
X172466674Y-98100000D01*
X172499659Y-98265827D01*
X172593592Y-98406408D01*
X172734173Y-98500341D01*
X172900000Y-98533326D01*
X174400000Y-98533326D01*
X174565827Y-98500341D01*
X174706408Y-98406408D01*
X174800341Y-98265827D01*
X174833326Y-98100000D01*
X174833326Y-96800000D01*
X175166674Y-96800000D01*
X175166674Y-98100000D01*
X175199659Y-98265827D01*
X175293592Y-98406408D01*
X175434173Y-98500341D01*
X175600000Y-98533326D01*
X177100000Y-98533326D01*
X177265827Y-98500341D01*
X177406408Y-98406408D01*
X177500341Y-98265827D01*
X177528353Y-98125000D01*
X179057412Y-98125000D01*
X179093705Y-98161356D01*
X179415188Y-98294848D01*
X179763285Y-98295151D01*
X180085000Y-98162221D01*
X180331356Y-97916295D01*
X180444508Y-97643795D01*
X185974805Y-97643795D01*
X186145715Y-98057429D01*
X186461907Y-98374172D01*
X186875242Y-98545804D01*
X187322795Y-98546195D01*
X187736429Y-98375285D01*
X188053172Y-98059093D01*
X188224804Y-97645758D01*
X188225195Y-97198205D01*
X188054285Y-96784571D01*
X187738093Y-96467828D01*
X187324758Y-96296196D01*
X186877205Y-96295805D01*
X186463571Y-96466715D01*
X186146828Y-96782907D01*
X185975196Y-97196242D01*
X185974805Y-97643795D01*
X180444508Y-97643795D01*
X180464848Y-97594812D01*
X180465151Y-97246715D01*
X180332221Y-96925000D01*
X180086295Y-96678644D01*
X179764812Y-96545152D01*
X179416715Y-96544849D01*
X179095000Y-96677779D01*
X178997609Y-96775000D01*
X177528353Y-96775000D01*
X177500341Y-96634173D01*
X177406408Y-96493592D01*
X177265827Y-96399659D01*
X177100000Y-96366674D01*
X175600000Y-96366674D01*
X175434173Y-96399659D01*
X175293592Y-96493592D01*
X175199659Y-96634173D01*
X175166674Y-96800000D01*
X174833326Y-96800000D01*
X174800341Y-96634173D01*
X174706408Y-96493592D01*
X174565827Y-96399659D01*
X174400000Y-96366674D01*
X174325000Y-96366674D01*
X174325000Y-95103795D01*
X185974805Y-95103795D01*
X186145715Y-95517429D01*
X186461907Y-95834172D01*
X186875242Y-96005804D01*
X187322795Y-96006195D01*
X187736429Y-95835285D01*
X188053172Y-95519093D01*
X188224804Y-95105758D01*
X188225195Y-94658205D01*
X188054285Y-94244571D01*
X187738093Y-93927828D01*
X187324758Y-93756196D01*
X186877205Y-93755805D01*
X186463571Y-93926715D01*
X186146828Y-94242907D01*
X185975196Y-94656242D01*
X185974805Y-95103795D01*
X174325000Y-95103795D01*
X174325000Y-89933326D01*
X174400000Y-89933326D01*
X174565827Y-89900341D01*
X174706408Y-89806408D01*
X174800341Y-89665827D01*
X174833326Y-89500000D01*
X174833326Y-88200000D01*
X175166674Y-88200000D01*
X175166674Y-89500000D01*
X175199659Y-89665827D01*
X175293592Y-89806408D01*
X175434173Y-89900341D01*
X175600000Y-89933326D01*
X177100000Y-89933326D01*
X177265827Y-89900341D01*
X177406408Y-89806408D01*
X177500341Y-89665827D01*
X177528353Y-89525000D01*
X178907500Y-89525000D01*
X178993705Y-89611356D01*
X179315188Y-89744848D01*
X179663285Y-89745151D01*
X179985000Y-89612221D01*
X180231356Y-89366295D01*
X180345754Y-89090795D01*
X185974805Y-89090795D01*
X186145715Y-89504429D01*
X186461907Y-89821172D01*
X186875242Y-89992804D01*
X187322795Y-89993195D01*
X187736429Y-89822285D01*
X188053172Y-89506093D01*
X188224804Y-89092758D01*
X188225195Y-88645205D01*
X188054285Y-88231571D01*
X187738093Y-87914828D01*
X187324758Y-87743196D01*
X186877205Y-87742805D01*
X186463571Y-87913715D01*
X186146828Y-88229907D01*
X185975196Y-88643242D01*
X185974805Y-89090795D01*
X180345754Y-89090795D01*
X180364848Y-89044812D01*
X180365151Y-88696715D01*
X180232221Y-88375000D01*
X179986295Y-88128644D01*
X179664812Y-87995152D01*
X179316715Y-87994849D01*
X178995000Y-88127779D01*
X178947696Y-88175000D01*
X177528353Y-88175000D01*
X177500341Y-88034173D01*
X177406408Y-87893592D01*
X177265827Y-87799659D01*
X177100000Y-87766674D01*
X175600000Y-87766674D01*
X175434173Y-87799659D01*
X175293592Y-87893592D01*
X175199659Y-88034173D01*
X175166674Y-88200000D01*
X174833326Y-88200000D01*
X174800341Y-88034173D01*
X174706408Y-87893592D01*
X174565827Y-87799659D01*
X174400000Y-87766674D01*
X172900000Y-87766674D01*
X172734173Y-87799659D01*
X172593592Y-87893592D01*
X172499659Y-88034173D01*
X172466674Y-88200000D01*
X172466674Y-89500000D01*
X172499659Y-89665827D01*
X172593592Y-89806408D01*
X172734173Y-89900341D01*
X172900000Y-89933326D01*
X172975000Y-89933326D01*
X172975000Y-96245000D01*
X167130005Y-96245000D01*
X167130000Y-96244999D01*
X166890823Y-96292575D01*
X166688058Y-96428058D01*
X165378058Y-97738058D01*
X165242575Y-97940823D01*
X165195000Y-98180000D01*
X165195000Y-100831116D01*
X163996942Y-99633058D01*
X163794177Y-99497575D01*
X163555000Y-99450000D01*
X163208326Y-99450000D01*
X163208326Y-99200000D01*
X163188435Y-99100000D01*
X163208326Y-99000000D01*
X163208326Y-98550000D01*
X163188435Y-98450000D01*
X163208326Y-98350000D01*
X163208326Y-97900000D01*
X163175341Y-97734173D01*
X163081408Y-97593592D01*
X162940827Y-97499659D01*
X162775000Y-97466674D01*
X161025000Y-97466674D01*
X160859173Y-97499659D01*
X160858663Y-97500000D01*
X160853883Y-97500000D01*
X159995000Y-96641116D01*
X159995000Y-87010000D01*
X159947425Y-86770823D01*
X159947425Y-86770822D01*
X159893158Y-86689606D01*
X159811942Y-86568058D01*
X159811939Y-86568056D01*
X159794679Y-86550795D01*
X185974805Y-86550795D01*
X186145715Y-86964429D01*
X186461907Y-87281172D01*
X186875242Y-87452804D01*
X187322795Y-87453195D01*
X187736429Y-87282285D01*
X188053172Y-86966093D01*
X188224804Y-86552758D01*
X188225195Y-86105205D01*
X188054285Y-85691571D01*
X187738093Y-85374828D01*
X187324758Y-85203196D01*
X186877205Y-85202805D01*
X186463571Y-85373715D01*
X186146828Y-85689907D01*
X185975196Y-86103242D01*
X185974805Y-86550795D01*
X159794679Y-86550795D01*
X158011942Y-84768058D01*
X157809177Y-84632575D01*
X157570000Y-84585000D01*
X143230005Y-84585000D01*
X143230000Y-84584999D01*
X142990823Y-84632575D01*
X142788058Y-84768058D01*
X142788056Y-84768061D01*
X141048058Y-86508058D01*
X140912575Y-86710823D01*
X140865000Y-86950000D01*
X140865000Y-102471116D01*
X140121116Y-103215000D01*
X140083583Y-103215000D01*
X140068617Y-103205000D01*
X140111408Y-103176408D01*
X140205341Y-103035827D01*
X140238326Y-102870000D01*
X140238326Y-102270000D01*
X140205341Y-102104173D01*
X140111408Y-101963592D01*
X140068617Y-101935000D01*
X140111408Y-101906408D01*
X140205341Y-101765827D01*
X140238326Y-101600000D01*
X140238326Y-101000000D01*
X140205341Y-100834173D01*
X140111408Y-100693592D01*
X140068617Y-100665000D01*
X140111408Y-100636408D01*
X140205341Y-100495827D01*
X140238326Y-100330000D01*
X140238326Y-99730000D01*
X140205341Y-99564173D01*
X140111408Y-99423592D01*
X140068617Y-99395000D01*
X140111408Y-99366408D01*
X140205341Y-99225827D01*
X140238326Y-99060000D01*
X140238326Y-98460000D01*
X140205341Y-98294173D01*
X140111408Y-98153592D01*
X140068617Y-98125000D01*
X140111408Y-98096408D01*
X140205341Y-97955827D01*
X140238326Y-97790000D01*
X140238326Y-97190000D01*
X140205341Y-97024173D01*
X140111408Y-96883592D01*
X140068617Y-96855000D01*
X140111408Y-96826408D01*
X140205341Y-96685827D01*
X140238326Y-96520000D01*
X140238326Y-95920000D01*
X140205341Y-95754173D01*
X140111408Y-95613592D01*
X140068617Y-95585000D01*
X140111408Y-95556408D01*
X140205341Y-95415827D01*
X140238326Y-95250000D01*
X140238326Y-94650000D01*
X140205341Y-94484173D01*
X140111408Y-94343592D01*
X140068617Y-94315000D01*
X140111408Y-94286408D01*
X140205341Y-94145827D01*
X140238326Y-93980000D01*
X140238326Y-93380000D01*
X140205341Y-93214173D01*
X140111408Y-93073592D01*
X140068617Y-93045000D01*
X140111408Y-93016408D01*
X140205341Y-92875827D01*
X140238326Y-92710000D01*
X140238326Y-92110000D01*
X140205341Y-91944173D01*
X140111408Y-91803592D01*
X140068617Y-91775000D01*
X140111408Y-91746408D01*
X140205341Y-91605827D01*
X140238326Y-91440000D01*
X140238326Y-90840000D01*
X140205341Y-90674173D01*
X140111408Y-90533592D01*
X140068617Y-90505000D01*
X140111408Y-90476408D01*
X140205341Y-90335827D01*
X140238326Y-90170000D01*
X140238326Y-89570000D01*
X140205341Y-89404173D01*
X140111408Y-89263592D01*
X139970827Y-89169659D01*
X139805000Y-89136674D01*
X138091268Y-89136674D01*
X136967297Y-88012703D01*
X136748312Y-87866381D01*
X136490000Y-87815000D01*
X134470000Y-87815000D01*
X134211689Y-87866381D01*
X134032457Y-87986140D01*
X133992703Y-88012703D01*
X133073732Y-88931674D01*
X132220000Y-88931674D01*
X132054173Y-88964659D01*
X131913592Y-89058592D01*
X131819659Y-89199173D01*
X131786674Y-89365000D01*
X131786674Y-90615000D01*
X131819659Y-90780827D01*
X131913592Y-90921408D01*
X132054173Y-91015341D01*
X132220000Y-91048326D01*
X133720000Y-91048326D01*
X133885827Y-91015341D01*
X134026408Y-90921408D01*
X134120341Y-90780827D01*
X134153326Y-90615000D01*
X134153326Y-89761268D01*
X134286674Y-89627920D01*
X134286674Y-90615000D01*
X134319659Y-90780827D01*
X134413592Y-90921408D01*
X134554173Y-91015341D01*
X134720000Y-91048326D01*
X135573732Y-91048326D01*
X136057080Y-91531674D01*
X134770000Y-91531674D01*
X134604173Y-91564659D01*
X134463592Y-91658592D01*
X134369659Y-91799173D01*
X134336674Y-91965000D01*
X134336674Y-93005000D01*
X134203326Y-93005000D01*
X134203326Y-91965000D01*
X134170341Y-91799173D01*
X134076408Y-91658592D01*
X133935827Y-91564659D01*
X133770000Y-91531674D01*
X132270000Y-91531674D01*
X132104173Y-91564659D01*
X131963592Y-91658592D01*
X131869659Y-91799173D01*
X131836674Y-91965000D01*
X131836674Y-93005000D01*
X131020000Y-93005000D01*
X130761688Y-93056381D01*
X130542703Y-93202703D01*
X129190406Y-94555000D01*
X124412535Y-94555000D01*
X124346295Y-94488644D01*
X124024812Y-94355152D01*
X123676715Y-94354849D01*
X123355000Y-94487779D01*
X123108644Y-94733705D01*
X122975152Y-95055188D01*
X122974849Y-95403285D01*
X123107779Y-95725000D01*
X123353705Y-95971356D01*
X123675188Y-96104848D01*
X124023285Y-96105151D01*
X124345000Y-95972221D01*
X124412339Y-95905000D01*
X129470000Y-95905000D01*
X129728312Y-95853619D01*
X129768922Y-95826484D01*
X128990475Y-96604931D01*
X128896715Y-96604849D01*
X128575000Y-96737779D01*
X128328644Y-96983705D01*
X128195152Y-97305188D01*
X128194849Y-97653285D01*
X128327779Y-97975000D01*
X128437587Y-98085000D01*
X126892535Y-98085000D01*
X126826295Y-98018644D01*
X126504812Y-97885152D01*
X126156715Y-97884849D01*
X125835000Y-98017779D01*
X125588644Y-98263705D01*
X125550400Y-98355806D01*
X124895069Y-97700475D01*
X124895151Y-97606715D01*
X124762221Y-97285000D01*
X124516295Y-97038644D01*
X124194812Y-96905152D01*
X123846715Y-96904849D01*
X123525000Y-97037779D01*
X123278644Y-97283705D01*
X123145152Y-97605188D01*
X123144849Y-97953285D01*
X123277779Y-98275000D01*
X123523705Y-98521356D01*
X123845188Y-98654848D01*
X123940337Y-98654931D01*
X125792703Y-100507297D01*
X125968858Y-100625000D01*
X124597915Y-100625000D01*
X124482221Y-100345000D01*
X124236295Y-100098644D01*
X123914812Y-99965152D01*
X123566715Y-99964849D01*
X123245000Y-100097779D01*
X122998644Y-100343705D01*
X122865152Y-100665188D01*
X122864849Y-101013285D01*
X122997779Y-101335000D01*
X123243705Y-101581356D01*
X123565188Y-101714848D01*
X123660337Y-101714931D01*
X123722703Y-101777297D01*
X123898857Y-101895000D01*
X122809594Y-101895000D01*
X122185000Y-101270406D01*
X122185000Y-99320000D01*
X122133619Y-99061689D01*
X122133619Y-99061688D01*
X121987297Y-98842703D01*
X121065069Y-97920475D01*
X121065151Y-97826715D01*
X120932221Y-97505000D01*
X120686295Y-97258644D01*
X120364812Y-97125152D01*
X120016715Y-97124849D01*
X119695000Y-97257779D01*
X119448644Y-97503705D01*
X119315152Y-97825188D01*
X119314849Y-98173285D01*
X116594849Y-98173285D01*
X116595212Y-97757401D01*
X116409110Y-97307000D01*
X116064813Y-96962101D01*
X115614737Y-96775213D01*
X115127401Y-96774788D01*
X114677000Y-96960890D01*
X114332101Y-97305187D01*
X114145213Y-97755263D01*
X114144788Y-98242599D01*
X113273145Y-98242599D01*
X113074737Y-98160213D01*
X112587401Y-98159788D01*
X112137000Y-98345890D01*
X111792101Y-98690187D01*
X111605213Y-99140263D01*
X111604788Y-99627599D01*
X105000000Y-99627599D01*
X105000000Y-96857599D01*
X111604788Y-96857599D01*
X111790890Y-97308000D01*
X112135187Y-97652899D01*
X112585263Y-97839787D01*
X113072599Y-97840212D01*
X113523000Y-97654110D01*
X113867899Y-97309813D01*
X114054787Y-96859737D01*
X114055212Y-96372401D01*
X113869110Y-95922000D01*
X113524813Y-95577101D01*
X113273145Y-95472599D01*
X114144788Y-95472599D01*
X114330890Y-95923000D01*
X114675187Y-96267899D01*
X115125263Y-96454787D01*
X115612599Y-96455212D01*
X116063000Y-96269110D01*
X116407899Y-95924813D01*
X116594787Y-95474737D01*
X116595212Y-94987401D01*
X116409110Y-94537000D01*
X116064813Y-94192101D01*
X115614737Y-94005213D01*
X115127401Y-94004788D01*
X114677000Y-94190890D01*
X114332101Y-94535187D01*
X114145213Y-94985263D01*
X114144788Y-95472599D01*
X113273145Y-95472599D01*
X113074737Y-95390213D01*
X112587401Y-95389788D01*
X112137000Y-95575890D01*
X111792101Y-95920187D01*
X111605213Y-96370263D01*
X111604788Y-96857599D01*
X105000000Y-96857599D01*
X105000000Y-94087599D01*
X111604788Y-94087599D01*
X111790890Y-94538000D01*
X112135187Y-94882899D01*
X112585263Y-95069787D01*
X113072599Y-95070212D01*
X113523000Y-94884110D01*
X113867899Y-94539813D01*
X114054787Y-94089737D01*
X114055212Y-93602401D01*
X113869110Y-93152000D01*
X113524813Y-92807101D01*
X113273145Y-92702599D01*
X114144788Y-92702599D01*
X114330890Y-93153000D01*
X114675187Y-93497899D01*
X115125263Y-93684787D01*
X115612599Y-93685212D01*
X116063000Y-93499110D01*
X116407899Y-93154813D01*
X116594787Y-92704737D01*
X116595212Y-92217401D01*
X116409110Y-91767000D01*
X116064813Y-91422101D01*
X115614737Y-91235213D01*
X115127401Y-91234788D01*
X114677000Y-91420890D01*
X114332101Y-91765187D01*
X114145213Y-92215263D01*
X114144788Y-92702599D01*
X113273145Y-92702599D01*
X113074737Y-92620213D01*
X112587401Y-92619788D01*
X112137000Y-92805890D01*
X111792101Y-93150187D01*
X111605213Y-93600263D01*
X111604788Y-94087599D01*
X105000000Y-94087599D01*
X105000000Y-86084266D01*
X111174494Y-86084266D01*
X111618860Y-87159715D01*
X112440957Y-87983248D01*
X113515629Y-88429491D01*
X114679266Y-88430506D01*
X115754715Y-87986140D01*
X116578248Y-87164043D01*
X117024491Y-86089371D01*
X117025506Y-84925734D01*
X116581140Y-83850285D01*
X115759043Y-83026752D01*
X114684371Y-82580509D01*
X113520734Y-82579494D01*
X112445285Y-83023860D01*
X111621752Y-83845957D01*
X111175509Y-84920629D01*
X111174494Y-86084266D01*
X105000000Y-86084266D01*
X105000000Y-77525246D01*
X183044580Y-77525246D01*
X183412986Y-78416858D01*
X184094554Y-79099617D01*
X184985521Y-79469579D01*
X185950246Y-79470420D01*
X186841858Y-79102014D01*
X187524617Y-78420446D01*
X187894579Y-77529479D01*
X187895420Y-76564754D01*
X187527014Y-75673142D01*
X186845446Y-74990383D01*
X185954479Y-74620421D01*
X184989754Y-74619580D01*
X184098142Y-74987986D01*
X183415383Y-75669554D01*
X183045421Y-76560521D01*
X183044580Y-77525246D01*
X105000000Y-77525246D01*
X105000000Y-74350246D01*
X117004580Y-74350246D01*
X117372986Y-75241858D01*
X118054554Y-75924617D01*
X118945521Y-76294579D01*
X119910246Y-76295420D01*
X120801858Y-75927014D01*
X121484617Y-75245446D01*
X121854579Y-74354479D01*
X121855420Y-73389754D01*
X121487014Y-72498142D01*
X120805446Y-71815383D01*
X119914479Y-71445421D01*
X118949754Y-71444580D01*
X118058142Y-71812986D01*
X117375383Y-72494554D01*
X117005421Y-73385521D01*
X117004580Y-74350246D01*
X105000000Y-74350246D01*
X105000000Y-71000000D01*
X114000000Y-71000000D01*
X114191342Y-70961940D01*
X114353553Y-70853553D01*
X114461940Y-70691342D01*
X114500000Y-70500000D01*
X114500000Y-66096461D01*
X177254775Y-66096461D01*
X177451512Y-66572600D01*
X177815483Y-66937208D01*
X178291278Y-67134775D01*
X178806461Y-67135225D01*
X179282600Y-66938488D01*
X179647208Y-66574517D01*
X179844775Y-66098722D01*
X179845225Y-65583539D01*
X179648488Y-65107400D01*
X179284517Y-64742792D01*
X178808722Y-64545225D01*
X178293539Y-64544775D01*
X177817400Y-64741512D01*
X177452792Y-65105483D01*
X177255225Y-65581278D01*
X177254775Y-66096461D01*
X114500000Y-66096461D01*
X114500000Y-63100000D01*
X181500000Y-63100000D01*
X181500000Y-70500000D01*
X181500000Y-70500000D01*
G37*
X181500000Y-70500000D02*
X181538060Y-70691342D01*
X181646447Y-70853553D01*
X181808658Y-70961940D01*
X182000000Y-71000000D01*
X191000000Y-71000000D01*
X191000000Y-102329862D01*
X190889857Y-102087999D01*
X190490820Y-101713909D01*
X189979000Y-101521000D01*
X189479000Y-101521000D01*
X189479000Y-102675000D01*
X189499000Y-102675000D01*
X189499000Y-103133000D01*
X189479000Y-103133000D01*
X189479000Y-104287000D01*
X189979000Y-104287000D01*
X190490820Y-104094091D01*
X190889857Y-103720001D01*
X191000000Y-103478138D01*
X191000000Y-109629862D01*
X190889857Y-109387999D01*
X190490820Y-109013909D01*
X189979000Y-108821000D01*
X189479000Y-108821000D01*
X189479000Y-109975000D01*
X189499000Y-109975000D01*
X189499000Y-110433000D01*
X189479000Y-110433000D01*
X189479000Y-111587000D01*
X189979000Y-111587000D01*
X190490820Y-111394091D01*
X190889857Y-111020001D01*
X191000000Y-110778138D01*
X191000000Y-125000000D01*
X182000000Y-125000000D01*
X181808658Y-125038060D01*
X181646447Y-125146447D01*
X181538060Y-125308658D01*
X181500000Y-125500000D01*
X181500000Y-132900000D01*
X114500000Y-132900000D01*
X114500000Y-130586461D01*
X116544775Y-130586461D01*
X116741512Y-131062600D01*
X117105483Y-131427208D01*
X117581278Y-131624775D01*
X118096461Y-131625225D01*
X118572600Y-131428488D01*
X118937208Y-131064517D01*
X119134775Y-130588722D01*
X119135225Y-130073539D01*
X118938488Y-129597400D01*
X118574517Y-129232792D01*
X118098722Y-129035225D01*
X117583539Y-129034775D01*
X117107400Y-129231512D01*
X116742792Y-129595483D01*
X116545225Y-130071278D01*
X116544775Y-130586461D01*
X114500000Y-130586461D01*
X114500000Y-125500000D01*
X114461940Y-125308658D01*
X114353553Y-125146447D01*
X114191342Y-125038060D01*
X114000000Y-125000000D01*
X105000000Y-125000000D01*
X105000000Y-122610246D01*
X117004580Y-122610246D01*
X117372986Y-123501858D01*
X118054554Y-124184617D01*
X118945521Y-124554579D01*
X119910246Y-124555420D01*
X120801858Y-124187014D01*
X121484617Y-123505446D01*
X121854579Y-122614479D01*
X121855420Y-121649754D01*
X121487014Y-120758142D01*
X120805446Y-120075383D01*
X119914479Y-119705421D01*
X118949754Y-119704580D01*
X118058142Y-120072986D01*
X117375383Y-120754554D01*
X117005421Y-121645521D01*
X117004580Y-122610246D01*
X105000000Y-122610246D01*
X105000000Y-111074266D01*
X111174494Y-111074266D01*
X111618860Y-112149715D01*
X112440957Y-112973248D01*
X113515629Y-113419491D01*
X114679266Y-113420506D01*
X115754715Y-112976140D01*
X116578248Y-112154043D01*
X116912115Y-111350000D01*
X126835000Y-111350000D01*
X126835000Y-129920000D01*
X126836903Y-129929567D01*
X126842322Y-129937678D01*
X126850433Y-129943097D01*
X126860000Y-129945000D01*
X142520000Y-129945000D01*
X142529567Y-129943097D01*
X142537678Y-129937678D01*
X142543097Y-129929567D01*
X142545000Y-129920000D01*
X142545000Y-122090000D01*
X143355000Y-122090000D01*
X143355000Y-129890000D01*
X143356903Y-129899567D01*
X143362322Y-129907678D01*
X143370433Y-129913097D01*
X143380000Y-129915000D01*
X174580000Y-129915000D01*
X174589567Y-129913097D01*
X174597678Y-129907678D01*
X174603097Y-129899567D01*
X174605000Y-129890000D01*
X174605000Y-122090000D01*
X174603097Y-122080433D01*
X174597678Y-122072322D01*
X174589567Y-122066903D01*
X174580000Y-122065000D01*
X143380000Y-122065000D01*
X143370433Y-122066903D01*
X143362322Y-122072322D01*
X143356903Y-122080433D01*
X143355000Y-122090000D01*
X142545000Y-122090000D01*
X142545000Y-111520000D01*
X143315000Y-111520000D01*
X143315000Y-121020000D01*
X143316903Y-121029567D01*
X143322322Y-121037678D01*
X143330433Y-121043097D01*
X143340000Y-121045000D01*
X157850000Y-121045000D01*
X157859567Y-121043097D01*
X157867678Y-121037678D01*
X157873097Y-121029567D01*
X157875000Y-121020000D01*
X157875000Y-119435246D01*
X183044580Y-119435246D01*
X183412986Y-120326858D01*
X184094554Y-121009617D01*
X184985521Y-121379579D01*
X185950246Y-121380420D01*
X186841858Y-121012014D01*
X187524617Y-120330446D01*
X187894579Y-119439479D01*
X187895420Y-118474754D01*
X187527014Y-117583142D01*
X186845446Y-116900383D01*
X185954479Y-116530421D01*
X184989754Y-116529580D01*
X184098142Y-116897986D01*
X183415383Y-117579554D01*
X183045421Y-118470521D01*
X183044580Y-119435246D01*
X157875000Y-119435246D01*
X157875000Y-111520000D01*
X157873097Y-111510433D01*
X157867678Y-111502322D01*
X157859567Y-111496903D01*
X157850000Y-111495000D01*
X143340000Y-111495000D01*
X143330433Y-111496903D01*
X143322322Y-111502322D01*
X143316903Y-111510433D01*
X143315000Y-111520000D01*
X142545000Y-111520000D01*
X142545000Y-111350000D01*
X142543097Y-111340433D01*
X142537678Y-111332322D01*
X142529567Y-111326903D01*
X142520000Y-111325000D01*
X126860000Y-111325000D01*
X126850433Y-111326903D01*
X126842322Y-111332322D01*
X126836903Y-111340433D01*
X126835000Y-111350000D01*
X116912115Y-111350000D01*
X117024491Y-111079371D01*
X117025506Y-109915734D01*
X116581140Y-108840285D01*
X115759043Y-108016752D01*
X114684371Y-107570509D01*
X113520734Y-107569494D01*
X112445285Y-108013860D01*
X111621752Y-108835957D01*
X111175509Y-109910629D01*
X111174494Y-111074266D01*
X105000000Y-111074266D01*
X105000000Y-104553486D01*
X114680369Y-104553486D01*
X114767818Y-104758430D01*
X115279929Y-104896128D01*
X115805752Y-104827368D01*
X115972182Y-104758430D01*
X116059631Y-104553486D01*
X115370000Y-103863855D01*
X114680369Y-104553486D01*
X105000000Y-104553486D01*
X105000000Y-103449929D01*
X114013872Y-103449929D01*
X114082632Y-103975752D01*
X114151570Y-104142182D01*
X114356514Y-104229631D01*
X115046145Y-103540000D01*
X115693855Y-103540000D01*
X116383486Y-104229631D01*
X116588430Y-104142182D01*
X116726128Y-103630071D01*
X116657368Y-103104248D01*
X116588430Y-102937818D01*
X116383486Y-102850369D01*
X115693855Y-103540000D01*
X115046145Y-103540000D01*
X114356514Y-102850369D01*
X114151570Y-102937818D01*
X114013872Y-103449929D01*
X105000000Y-103449929D01*
X105000000Y-102397599D01*
X111604788Y-102397599D01*
X111790890Y-102848000D01*
X112135187Y-103192899D01*
X112585263Y-103379787D01*
X113072599Y-103380212D01*
X113523000Y-103194110D01*
X113867899Y-102849813D01*
X114002144Y-102526514D01*
X114680369Y-102526514D01*
X115370000Y-103216145D01*
X116059631Y-102526514D01*
X115972182Y-102321570D01*
X115460071Y-102183872D01*
X114934248Y-102252632D01*
X114767818Y-102321570D01*
X114680369Y-102526514D01*
X114002144Y-102526514D01*
X114054787Y-102399737D01*
X114055212Y-101912401D01*
X113869110Y-101462000D01*
X113524813Y-101117101D01*
X113273145Y-101012599D01*
X114144788Y-101012599D01*
X114330890Y-101463000D01*
X114675187Y-101807899D01*
X115125263Y-101994787D01*
X115612599Y-101995212D01*
X116063000Y-101809110D01*
X116407899Y-101464813D01*
X116594787Y-101014737D01*
X116595212Y-100527401D01*
X116409110Y-100077000D01*
X116064813Y-99732101D01*
X115614737Y-99545213D01*
X115127401Y-99544788D01*
X114677000Y-99730890D01*
X114332101Y-100075187D01*
X114145213Y-100525263D01*
X114144788Y-101012599D01*
X113273145Y-101012599D01*
X113074737Y-100930213D01*
X112587401Y-100929788D01*
X112137000Y-101115890D01*
X111792101Y-101460187D01*
X111605213Y-101910263D01*
X111604788Y-102397599D01*
X105000000Y-102397599D01*
X105000000Y-99627599D01*
X111604788Y-99627599D01*
X111790890Y-100078000D01*
X112135187Y-100422899D01*
X112585263Y-100609787D01*
X113072599Y-100610212D01*
X113523000Y-100424110D01*
X113867899Y-100079813D01*
X114054787Y-99629737D01*
X114055212Y-99142401D01*
X113869110Y-98692000D01*
X113524813Y-98347101D01*
X113273145Y-98242599D01*
X114144788Y-98242599D01*
X114330890Y-98693000D01*
X114675187Y-99037899D01*
X115125263Y-99224787D01*
X115612599Y-99225212D01*
X116063000Y-99039110D01*
X116407899Y-98694813D01*
X116594787Y-98244737D01*
X116594849Y-98173285D01*
X119314849Y-98173285D01*
X119447779Y-98495000D01*
X119693705Y-98741356D01*
X120015188Y-98874848D01*
X120110337Y-98874931D01*
X120835000Y-99599594D01*
X120835000Y-101550000D01*
X120886381Y-101808312D01*
X121032703Y-102027297D01*
X122052703Y-103047297D01*
X122271688Y-103193619D01*
X122530000Y-103245000D01*
X137490969Y-103245000D01*
X137404659Y-103374173D01*
X137371674Y-103540000D01*
X137371674Y-104140000D01*
X137404659Y-104305827D01*
X137498592Y-104446408D01*
X137541383Y-104475000D01*
X137498592Y-104503592D01*
X137404659Y-104644173D01*
X137371674Y-104810000D01*
X137371674Y-105410000D01*
X137404659Y-105575827D01*
X137498592Y-105716408D01*
X137541383Y-105745000D01*
X137498592Y-105773592D01*
X137404659Y-105914173D01*
X137371674Y-106080000D01*
X137371674Y-106680000D01*
X137404659Y-106845827D01*
X137498592Y-106986408D01*
X137639173Y-107080341D01*
X137805000Y-107113326D01*
X139805000Y-107113326D01*
X139970827Y-107080341D01*
X140083583Y-107005000D01*
X141500000Y-107005000D01*
X141739177Y-106957425D01*
X141941942Y-106821942D01*
X144331939Y-104431944D01*
X144331942Y-104431942D01*
X144467122Y-104229631D01*
X144467425Y-104229178D01*
X144515000Y-103990000D01*
X144515000Y-88858884D01*
X145528884Y-87845000D01*
X156051116Y-87845000D01*
X157105000Y-88898884D01*
X157105000Y-97830000D01*
X157152575Y-98069177D01*
X157288058Y-98271942D01*
X158466117Y-99450000D01*
X154603884Y-99450000D01*
X150931942Y-95778058D01*
X150729177Y-95642575D01*
X150640821Y-95625000D01*
X153800000Y-95625000D01*
X154058312Y-95573619D01*
X154277297Y-95427297D01*
X154871268Y-94833326D01*
X155725000Y-94833326D01*
X155890827Y-94800341D01*
X156031408Y-94706408D01*
X156125341Y-94565827D01*
X156158326Y-94400000D01*
X156158326Y-92900000D01*
X156125341Y-92734173D01*
X156031408Y-92593592D01*
X155890827Y-92499659D01*
X155725000Y-92466674D01*
X154475000Y-92466674D01*
X154309173Y-92499659D01*
X154168592Y-92593592D01*
X154074659Y-92734173D01*
X154041674Y-92900000D01*
X154041674Y-93753732D01*
X153520406Y-94275000D01*
X153228000Y-94275000D01*
X153228000Y-94012250D01*
X153094750Y-93879000D01*
X152299000Y-93879000D01*
X152299000Y-93899000D01*
X151841000Y-93899000D01*
X151841000Y-93879000D01*
X151045250Y-93879000D01*
X150912000Y-94012250D01*
X150912000Y-94275000D01*
X149659721Y-94275000D01*
X149738000Y-94086021D01*
X149738000Y-93963250D01*
X149604750Y-93830000D01*
X148434000Y-93830000D01*
X148434000Y-93929000D01*
X147976000Y-93929000D01*
X147976000Y-93830000D01*
X146805250Y-93830000D01*
X146672000Y-93963250D01*
X146672000Y-94086021D01*
X146753145Y-94281920D01*
X146865036Y-94393812D01*
X146804659Y-94484173D01*
X146771674Y-94650000D01*
X146771674Y-95250000D01*
X146804659Y-95415827D01*
X146890969Y-95545000D01*
X146649594Y-95545000D01*
X146395000Y-95290406D01*
X146395000Y-93339594D01*
X146649594Y-93085000D01*
X146750279Y-93085000D01*
X146672000Y-93273979D01*
X146672000Y-93396750D01*
X146805250Y-93530000D01*
X147976000Y-93530000D01*
X147976000Y-93431000D01*
X148434000Y-93431000D01*
X148434000Y-93530000D01*
X149604750Y-93530000D01*
X149738000Y-93396750D01*
X149738000Y-93273979D01*
X149656855Y-93078080D01*
X149544964Y-92966188D01*
X149605341Y-92875827D01*
X149621621Y-92793980D01*
X150912000Y-92793980D01*
X150912000Y-93287750D01*
X151045250Y-93421000D01*
X151841000Y-93421000D01*
X151841000Y-92500250D01*
X152299000Y-92500250D01*
X152299000Y-93421000D01*
X153094750Y-93421000D01*
X153228000Y-93287750D01*
X153228000Y-92793980D01*
X153146856Y-92598080D01*
X152996920Y-92448145D01*
X152801021Y-92367000D01*
X152432250Y-92367000D01*
X152299000Y-92500250D01*
X151841000Y-92500250D01*
X151707750Y-92367000D01*
X151338979Y-92367000D01*
X151143080Y-92448145D01*
X150993144Y-92598080D01*
X150912000Y-92793980D01*
X149621621Y-92793980D01*
X149638326Y-92710000D01*
X149638326Y-92110000D01*
X149605341Y-91944173D01*
X149519031Y-91815000D01*
X151011674Y-91815000D01*
X151011674Y-91900000D01*
X151044659Y-92065827D01*
X151138592Y-92206408D01*
X151279173Y-92300341D01*
X151445000Y-92333326D01*
X152695000Y-92333326D01*
X152860827Y-92300341D01*
X153001408Y-92206408D01*
X153095341Y-92065827D01*
X153128326Y-91900000D01*
X153128326Y-90545000D01*
X153540406Y-90545000D01*
X154041674Y-91046268D01*
X154041674Y-91900000D01*
X154074659Y-92065827D01*
X154168592Y-92206408D01*
X154309173Y-92300341D01*
X154475000Y-92333326D01*
X155725000Y-92333326D01*
X155890827Y-92300341D01*
X156031408Y-92206408D01*
X156125341Y-92065827D01*
X156158326Y-91900000D01*
X156158326Y-90400000D01*
X156125341Y-90234173D01*
X156031408Y-90093592D01*
X155890827Y-89999659D01*
X155725000Y-89966674D01*
X154871268Y-89966674D01*
X154297297Y-89392703D01*
X154078312Y-89246381D01*
X153820000Y-89195000D01*
X149408753Y-89195000D01*
X149370827Y-89169659D01*
X149205000Y-89136674D01*
X147205000Y-89136674D01*
X147039173Y-89169659D01*
X146898592Y-89263592D01*
X146804659Y-89404173D01*
X146771674Y-89570000D01*
X146771674Y-90170000D01*
X146804659Y-90335827D01*
X146898592Y-90476408D01*
X146941383Y-90505000D01*
X146898592Y-90533592D01*
X146804659Y-90674173D01*
X146771674Y-90840000D01*
X146771674Y-91440000D01*
X146804659Y-91605827D01*
X146890969Y-91735000D01*
X146370000Y-91735000D01*
X146111688Y-91786381D01*
X145892703Y-91932703D01*
X145242703Y-92582703D01*
X145096381Y-92801688D01*
X145076826Y-92900000D01*
X145045000Y-93060000D01*
X145045000Y-95570000D01*
X145096381Y-95828312D01*
X145242703Y-96047297D01*
X145892703Y-96697297D01*
X146111688Y-96843619D01*
X146370000Y-96895000D01*
X146890969Y-96895000D01*
X146804659Y-97024173D01*
X146771674Y-97190000D01*
X146771674Y-97790000D01*
X146804659Y-97955827D01*
X146898592Y-98096408D01*
X146941383Y-98125000D01*
X146898592Y-98153592D01*
X146804659Y-98294173D01*
X146771674Y-98460000D01*
X146771674Y-99060000D01*
X146804659Y-99225827D01*
X146898592Y-99366408D01*
X146941383Y-99395000D01*
X146898592Y-99423592D01*
X146804659Y-99564173D01*
X146771674Y-99730000D01*
X146771674Y-100330000D01*
X146804659Y-100495827D01*
X146898592Y-100636408D01*
X146941383Y-100665000D01*
X146898592Y-100693592D01*
X146804659Y-100834173D01*
X146771674Y-101000000D01*
X146771674Y-101600000D01*
X146804659Y-101765827D01*
X146898592Y-101906408D01*
X146941383Y-101935000D01*
X146898592Y-101963592D01*
X146804659Y-102104173D01*
X146771674Y-102270000D01*
X146771674Y-102870000D01*
X146804659Y-103035827D01*
X146898592Y-103176408D01*
X146941383Y-103205000D01*
X146898592Y-103233592D01*
X146804659Y-103374173D01*
X146771674Y-103540000D01*
X146771674Y-104140000D01*
X146804659Y-104305827D01*
X146898592Y-104446408D01*
X146941383Y-104475000D01*
X146898592Y-104503592D01*
X146804659Y-104644173D01*
X146771674Y-104810000D01*
X146771674Y-105410000D01*
X146804659Y-105575827D01*
X146898592Y-105716408D01*
X146941383Y-105745000D01*
X146898592Y-105773592D01*
X146804659Y-105914173D01*
X146771674Y-106080000D01*
X146771674Y-106680000D01*
X146804659Y-106845827D01*
X146898592Y-106986408D01*
X147039173Y-107080341D01*
X147205000Y-107113326D01*
X149205000Y-107113326D01*
X149370827Y-107080341D01*
X149483583Y-107005000D01*
X156010000Y-107005000D01*
X156249177Y-106957425D01*
X156451942Y-106821942D01*
X158023884Y-105250000D01*
X160591674Y-105250000D01*
X160591674Y-105500000D01*
X160611565Y-105600000D01*
X160591674Y-105700000D01*
X160591674Y-106150000D01*
X160611565Y-106250000D01*
X160591674Y-106350000D01*
X160591674Y-106800000D01*
X160624659Y-106965827D01*
X160718592Y-107106408D01*
X160859173Y-107200341D01*
X161025000Y-107233326D01*
X162775000Y-107233326D01*
X162940827Y-107200341D01*
X163081408Y-107106408D01*
X163175341Y-106965827D01*
X163208326Y-106800000D01*
X163208326Y-106350000D01*
X163188435Y-106250000D01*
X163208326Y-106150000D01*
X163208326Y-105700000D01*
X163188435Y-105600000D01*
X163208326Y-105500000D01*
X163208326Y-105050000D01*
X163188435Y-104950000D01*
X163208326Y-104850000D01*
X163208326Y-104400000D01*
X163188435Y-104300000D01*
X163208326Y-104200000D01*
X163208326Y-103750000D01*
X163188435Y-103650000D01*
X163208326Y-103550000D01*
X163208326Y-103100000D01*
X163188435Y-103000000D01*
X163208326Y-102900000D01*
X163208326Y-102570449D01*
X163226855Y-102551920D01*
X163308000Y-102356021D01*
X163308000Y-102270750D01*
X163174750Y-102137500D01*
X163072291Y-102137500D01*
X162940827Y-102049659D01*
X162816858Y-102025000D01*
X162940827Y-102000341D01*
X163072291Y-101912500D01*
X163174750Y-101912500D01*
X163308000Y-101779250D01*
X163308000Y-101693979D01*
X163226855Y-101498080D01*
X163208326Y-101479551D01*
X163208326Y-101150000D01*
X163188435Y-101050000D01*
X163208326Y-100950000D01*
X163208326Y-100700000D01*
X163296116Y-100700000D01*
X165195000Y-102598884D01*
X165195000Y-106591116D01*
X160418058Y-111368058D01*
X160282575Y-111570823D01*
X160235000Y-111810000D01*
X160235000Y-115350000D01*
X160282575Y-115589177D01*
X160418058Y-115791942D01*
X161878058Y-117251942D01*
X162016674Y-117344562D01*
X162016674Y-117810000D01*
X162049659Y-117975827D01*
X162143592Y-118116408D01*
X162284173Y-118210341D01*
X162450000Y-118243326D01*
X164950000Y-118243326D01*
X165115827Y-118210341D01*
X165256408Y-118116408D01*
X165350341Y-117975827D01*
X165383326Y-117810000D01*
X165383326Y-117475000D01*
X167881674Y-117475000D01*
X167881674Y-117550000D01*
X167914659Y-117715827D01*
X168008592Y-117856408D01*
X168149173Y-117950341D01*
X168315000Y-117983326D01*
X169565000Y-117983326D01*
X169730827Y-117950341D01*
X169871408Y-117856408D01*
X169965341Y-117715827D01*
X169998326Y-117550000D01*
X169998326Y-117475000D01*
X172356674Y-117475000D01*
X172356674Y-117650000D01*
X172389659Y-117815827D01*
X172483592Y-117956408D01*
X172624173Y-118050341D01*
X172790000Y-118083326D01*
X174090000Y-118083326D01*
X174255827Y-118050341D01*
X174396408Y-117956408D01*
X174490341Y-117815827D01*
X174523326Y-117650000D01*
X174523326Y-117162250D01*
X176532000Y-117162250D01*
X176532000Y-117656020D01*
X176613144Y-117851920D01*
X176763080Y-118001855D01*
X176958979Y-118083000D01*
X177327750Y-118083000D01*
X177461000Y-117949750D01*
X177461000Y-117029000D01*
X177919000Y-117029000D01*
X177919000Y-117949750D01*
X178052250Y-118083000D01*
X178421021Y-118083000D01*
X178616920Y-118001855D01*
X178766856Y-117851920D01*
X178848000Y-117656020D01*
X178848000Y-117162250D01*
X178714750Y-117029000D01*
X177919000Y-117029000D01*
X177461000Y-117029000D01*
X176665250Y-117029000D01*
X176532000Y-117162250D01*
X174523326Y-117162250D01*
X174523326Y-116150000D01*
X174490341Y-115984173D01*
X174463485Y-115943980D01*
X176532000Y-115943980D01*
X176532000Y-116437750D01*
X176665250Y-116571000D01*
X177461000Y-116571000D01*
X177461000Y-115650250D01*
X177919000Y-115650250D01*
X177919000Y-116571000D01*
X178714750Y-116571000D01*
X178848000Y-116437750D01*
X178848000Y-115943980D01*
X178766856Y-115748080D01*
X178616920Y-115598145D01*
X178421021Y-115517000D01*
X178052250Y-115517000D01*
X177919000Y-115650250D01*
X177461000Y-115650250D01*
X177327750Y-115517000D01*
X176958979Y-115517000D01*
X176763080Y-115598145D01*
X176613144Y-115748080D01*
X176532000Y-115943980D01*
X174463485Y-115943980D01*
X174396408Y-115843592D01*
X174255827Y-115749659D01*
X174090000Y-115716674D01*
X172790000Y-115716674D01*
X172624173Y-115749659D01*
X172483592Y-115843592D01*
X172389659Y-115984173D01*
X172361647Y-116125000D01*
X169998326Y-116125000D01*
X169998326Y-116050000D01*
X169965341Y-115884173D01*
X169871408Y-115743592D01*
X169730827Y-115649659D01*
X169565000Y-115616674D01*
X168315000Y-115616674D01*
X168149173Y-115649659D01*
X168008592Y-115743592D01*
X167914659Y-115884173D01*
X167881674Y-116050000D01*
X167881674Y-116125000D01*
X165383326Y-116125000D01*
X165383326Y-115810000D01*
X165350341Y-115644173D01*
X165256408Y-115503592D01*
X165115827Y-115409659D01*
X164950000Y-115376674D01*
X162450000Y-115376674D01*
X162284173Y-115409659D01*
X162143592Y-115503592D01*
X162049659Y-115644173D01*
X162047734Y-115653850D01*
X161485000Y-115091116D01*
X161485000Y-114662250D01*
X167782000Y-114662250D01*
X167782000Y-115156020D01*
X167863144Y-115351920D01*
X168013080Y-115501855D01*
X168208979Y-115583000D01*
X168577750Y-115583000D01*
X168711000Y-115449750D01*
X168711000Y-114529000D01*
X169169000Y-114529000D01*
X169169000Y-115449750D01*
X169302250Y-115583000D01*
X169671021Y-115583000D01*
X169866920Y-115501855D01*
X170016856Y-115351920D01*
X170098000Y-115156020D01*
X170098000Y-114662250D01*
X169964750Y-114529000D01*
X169169000Y-114529000D01*
X168711000Y-114529000D01*
X167915250Y-114529000D01*
X167782000Y-114662250D01*
X161485000Y-114662250D01*
X161485000Y-113172250D01*
X161917000Y-113172250D01*
X161917000Y-113916020D01*
X161998144Y-114111920D01*
X162148080Y-114261855D01*
X162343979Y-114343000D01*
X163337750Y-114343000D01*
X163471000Y-114209750D01*
X163471000Y-113039000D01*
X163929000Y-113039000D01*
X163929000Y-114209750D01*
X164062250Y-114343000D01*
X165056021Y-114343000D01*
X165251920Y-114261855D01*
X165401856Y-114111920D01*
X165483000Y-113916020D01*
X165483000Y-113443980D01*
X167782000Y-113443980D01*
X167782000Y-113937750D01*
X167915250Y-114071000D01*
X168711000Y-114071000D01*
X168711000Y-113150250D01*
X169169000Y-113150250D01*
X169169000Y-114071000D01*
X169964750Y-114071000D01*
X170098000Y-113937750D01*
X170098000Y-113443980D01*
X170016856Y-113248080D01*
X169866920Y-113098145D01*
X169671021Y-113017000D01*
X169302250Y-113017000D01*
X169169000Y-113150250D01*
X168711000Y-113150250D01*
X168577750Y-113017000D01*
X168208979Y-113017000D01*
X168013080Y-113098145D01*
X167863144Y-113248080D01*
X167782000Y-113443980D01*
X165483000Y-113443980D01*
X165483000Y-113172250D01*
X165349750Y-113039000D01*
X163929000Y-113039000D01*
X163471000Y-113039000D01*
X162050250Y-113039000D01*
X161917000Y-113172250D01*
X161485000Y-113172250D01*
X161485000Y-112068884D01*
X161964444Y-111589440D01*
X161917000Y-111703980D01*
X161917000Y-112447750D01*
X162050250Y-112581000D01*
X163471000Y-112581000D01*
X163471000Y-111410250D01*
X163929000Y-111410250D01*
X163929000Y-112581000D01*
X165349750Y-112581000D01*
X165483000Y-112447750D01*
X165483000Y-111703980D01*
X165401856Y-111508080D01*
X165251920Y-111358145D01*
X165056021Y-111277000D01*
X164062250Y-111277000D01*
X163929000Y-111410250D01*
X163471000Y-111410250D01*
X163337750Y-111277000D01*
X162343979Y-111277000D01*
X162229440Y-111324444D01*
X166261942Y-107291942D01*
X166397425Y-107089178D01*
X166445000Y-106850000D01*
X166445000Y-104678884D01*
X167173884Y-103950000D01*
X167791674Y-103950000D01*
X167791674Y-104079551D01*
X167773145Y-104098080D01*
X167692000Y-104293979D01*
X167692000Y-104379250D01*
X167825250Y-104512500D01*
X167927709Y-104512500D01*
X168059173Y-104600341D01*
X168183142Y-104625000D01*
X168059173Y-104649659D01*
X167927709Y-104737500D01*
X167825250Y-104737500D01*
X167692000Y-104870750D01*
X167692000Y-104956021D01*
X167773145Y-105151920D01*
X167791674Y-105170449D01*
X167791674Y-105500000D01*
X167811565Y-105600000D01*
X167791674Y-105700000D01*
X167791674Y-106150000D01*
X167811565Y-106250000D01*
X167791674Y-106350000D01*
X167791674Y-106800000D01*
X167824659Y-106965827D01*
X167918592Y-107106408D01*
X168059173Y-107200341D01*
X168225000Y-107233326D01*
X169975000Y-107233326D01*
X170140827Y-107200341D01*
X170141337Y-107200000D01*
X182907064Y-107200000D01*
X182936082Y-107243429D01*
X183101563Y-107354000D01*
X182936082Y-107464571D01*
X182724728Y-107780884D01*
X182650511Y-108154000D01*
X182688819Y-108346587D01*
X177918732Y-113116674D01*
X177065000Y-113116674D01*
X176899173Y-113149659D01*
X176758592Y-113243592D01*
X176664659Y-113384173D01*
X176636647Y-113525000D01*
X174523326Y-113525000D01*
X174523326Y-113450000D01*
X174490341Y-113284173D01*
X174396408Y-113143592D01*
X174255827Y-113049659D01*
X174090000Y-113016674D01*
X172790000Y-113016674D01*
X172624173Y-113049659D01*
X172483592Y-113143592D01*
X172389659Y-113284173D01*
X172356674Y-113450000D01*
X172356674Y-114950000D01*
X172389659Y-115115827D01*
X172483592Y-115256408D01*
X172624173Y-115350341D01*
X172790000Y-115383326D01*
X174090000Y-115383326D01*
X174255827Y-115350341D01*
X174396408Y-115256408D01*
X174490341Y-115115827D01*
X174523326Y-114950000D01*
X174523326Y-114875000D01*
X176631674Y-114875000D01*
X176631674Y-115050000D01*
X176664659Y-115215827D01*
X176758592Y-115356408D01*
X176899173Y-115450341D01*
X177065000Y-115483326D01*
X178315000Y-115483326D01*
X178480827Y-115450341D01*
X178621408Y-115356408D01*
X178715341Y-115215827D01*
X178748326Y-115050000D01*
X178748326Y-114196268D01*
X182301051Y-110643543D01*
X187438706Y-110643543D01*
X187610143Y-111020001D01*
X188009180Y-111394091D01*
X188521000Y-111587000D01*
X189021000Y-111587000D01*
X189021000Y-110433000D01*
X187521410Y-110433000D01*
X187438706Y-110643543D01*
X182301051Y-110643543D01*
X183180137Y-109764457D01*
X187438706Y-109764457D01*
X187521410Y-109975000D01*
X189021000Y-109975000D01*
X189021000Y-108821000D01*
X188521000Y-108821000D01*
X188009180Y-109013909D01*
X187610143Y-109387999D01*
X187438706Y-109764457D01*
X183180137Y-109764457D01*
X183815594Y-109129000D01*
X184224489Y-109129000D01*
X184597605Y-109054783D01*
X184913918Y-108843429D01*
X185125272Y-108527116D01*
X185172704Y-108288659D01*
X185375511Y-108329000D01*
X185974489Y-108329000D01*
X186347605Y-108254783D01*
X186663918Y-108043429D01*
X186875272Y-107727116D01*
X186949489Y-107354000D01*
X186875272Y-106980884D01*
X186663918Y-106664571D01*
X186498437Y-106554000D01*
X186663918Y-106443429D01*
X186875272Y-106127116D01*
X186949489Y-105754000D01*
X186875272Y-105380884D01*
X186663918Y-105064571D01*
X186347605Y-104853217D01*
X185974489Y-104779000D01*
X185375511Y-104779000D01*
X185283000Y-104797401D01*
X185283000Y-104724998D01*
X185121730Y-104724998D01*
X185209656Y-104562232D01*
X185053049Y-104277364D01*
X184729177Y-104002422D01*
X184324743Y-103872349D01*
X184154000Y-103999402D01*
X184154000Y-104725000D01*
X184174000Y-104725000D01*
X184174000Y-105183000D01*
X184154000Y-105183000D01*
X184154000Y-105203000D01*
X183696000Y-105203000D01*
X183696000Y-105183000D01*
X182728271Y-105183000D01*
X182640344Y-105345768D01*
X182796951Y-105630636D01*
X183012427Y-105813559D01*
X182936082Y-105864571D01*
X182879000Y-105950000D01*
X178701341Y-105950000D01*
X178794848Y-105724812D01*
X178795151Y-105376715D01*
X178662221Y-105055000D01*
X178416295Y-104808644D01*
X178094812Y-104675152D01*
X177746715Y-104674849D01*
X177425000Y-104807779D01*
X177178644Y-105053705D01*
X177076373Y-105300000D01*
X176183717Y-105300000D01*
X176233000Y-105181021D01*
X176233000Y-104812250D01*
X176099750Y-104679000D01*
X175179000Y-104679000D01*
X175179000Y-104699000D01*
X174721000Y-104699000D01*
X174721000Y-104679000D01*
X173800250Y-104679000D01*
X173667000Y-104812250D01*
X173667000Y-105181021D01*
X173716283Y-105300000D01*
X173560803Y-105300000D01*
X173600341Y-105240827D01*
X173633326Y-105075000D01*
X173633326Y-104562232D01*
X182640344Y-104562232D01*
X182728271Y-104725000D01*
X183696000Y-104725000D01*
X183696000Y-103999402D01*
X183525257Y-103872349D01*
X183120823Y-104002422D01*
X182796951Y-104277364D01*
X182640344Y-104562232D01*
X173633326Y-104562232D01*
X173633326Y-103825000D01*
X173612238Y-103718979D01*
X173667000Y-103718979D01*
X173667000Y-104087750D01*
X173800250Y-104221000D01*
X174721000Y-104221000D01*
X174721000Y-103425250D01*
X175179000Y-103425250D01*
X175179000Y-104221000D01*
X176099750Y-104221000D01*
X176233000Y-104087750D01*
X176233000Y-103718979D01*
X176151855Y-103523080D01*
X176001920Y-103373144D01*
X175930457Y-103343543D01*
X187438706Y-103343543D01*
X187610143Y-103720001D01*
X188009180Y-104094091D01*
X188521000Y-104287000D01*
X189021000Y-104287000D01*
X189021000Y-103133000D01*
X187521410Y-103133000D01*
X187438706Y-103343543D01*
X175930457Y-103343543D01*
X175806020Y-103292000D01*
X175312250Y-103292000D01*
X175179000Y-103425250D01*
X174721000Y-103425250D01*
X174587750Y-103292000D01*
X174093980Y-103292000D01*
X173898080Y-103373144D01*
X173748145Y-103523080D01*
X173667000Y-103718979D01*
X173612238Y-103718979D01*
X173600341Y-103659173D01*
X173506408Y-103518592D01*
X173365827Y-103424659D01*
X173200000Y-103391674D01*
X171700000Y-103391674D01*
X171534173Y-103424659D01*
X171393592Y-103518592D01*
X171299659Y-103659173D01*
X171266674Y-103825000D01*
X171266674Y-104650000D01*
X170141337Y-104650000D01*
X170140827Y-104649659D01*
X170016858Y-104625000D01*
X170140827Y-104600341D01*
X170272291Y-104512500D01*
X170374750Y-104512500D01*
X170508000Y-104379250D01*
X170508000Y-104293979D01*
X170426855Y-104098080D01*
X170408326Y-104079551D01*
X170408326Y-103750000D01*
X170388435Y-103650000D01*
X170408326Y-103550000D01*
X170408326Y-103220449D01*
X170426855Y-103201920D01*
X170508000Y-103006021D01*
X170508000Y-102920750D01*
X170374750Y-102787500D01*
X170272291Y-102787500D01*
X170140827Y-102699659D01*
X170016858Y-102675000D01*
X170140827Y-102650341D01*
X170141337Y-102650000D01*
X179912561Y-102650000D01*
X180033705Y-102771356D01*
X180355188Y-102904848D01*
X180703285Y-102905151D01*
X181025000Y-102772221D01*
X181271356Y-102526295D01*
X181297033Y-102464457D01*
X187438706Y-102464457D01*
X187521410Y-102675000D01*
X189021000Y-102675000D01*
X189021000Y-101521000D01*
X188521000Y-101521000D01*
X188009180Y-101713909D01*
X187610143Y-102087999D01*
X187438706Y-102464457D01*
X181297033Y-102464457D01*
X181404848Y-102204812D01*
X181405148Y-101859917D01*
X181465188Y-101884848D01*
X181813285Y-101885151D01*
X182135000Y-101752221D01*
X182381356Y-101506295D01*
X182514848Y-101184812D01*
X182515151Y-100836715D01*
X182382221Y-100515000D01*
X182136295Y-100268644D01*
X181814812Y-100135152D01*
X181466715Y-100134849D01*
X181145000Y-100267779D01*
X181027574Y-100385000D01*
X171580000Y-100385000D01*
X171340823Y-100432575D01*
X171138058Y-100568058D01*
X170956116Y-100750000D01*
X170408326Y-100750000D01*
X170408326Y-100620449D01*
X170426855Y-100601920D01*
X170508000Y-100406021D01*
X170508000Y-100320750D01*
X170374750Y-100187500D01*
X170272291Y-100187500D01*
X170194937Y-100135814D01*
X170276920Y-100101856D01*
X170426855Y-99951920D01*
X170456218Y-99881032D01*
X170508000Y-99829250D01*
X170508000Y-99670750D01*
X170456218Y-99618968D01*
X170426855Y-99548080D01*
X170276920Y-99398144D01*
X170194937Y-99364186D01*
X170272291Y-99312500D01*
X170374750Y-99312500D01*
X170508000Y-99179250D01*
X170508000Y-99093979D01*
X170426855Y-98898080D01*
X170408326Y-98879551D01*
X170408326Y-98550000D01*
X170388435Y-98450000D01*
X170408326Y-98350000D01*
X170408326Y-97900000D01*
X170375341Y-97734173D01*
X170281408Y-97593592D01*
X170140827Y-97499659D01*
X170117405Y-97495000D01*
X172466674Y-97495000D01*
X172466674Y-98100000D01*
X172499659Y-98265827D01*
X172593592Y-98406408D01*
X172734173Y-98500341D01*
X172900000Y-98533326D01*
X174400000Y-98533326D01*
X174565827Y-98500341D01*
X174706408Y-98406408D01*
X174800341Y-98265827D01*
X174833326Y-98100000D01*
X174833326Y-96800000D01*
X175166674Y-96800000D01*
X175166674Y-98100000D01*
X175199659Y-98265827D01*
X175293592Y-98406408D01*
X175434173Y-98500341D01*
X175600000Y-98533326D01*
X177100000Y-98533326D01*
X177265827Y-98500341D01*
X177406408Y-98406408D01*
X177500341Y-98265827D01*
X177528353Y-98125000D01*
X179057412Y-98125000D01*
X179093705Y-98161356D01*
X179415188Y-98294848D01*
X179763285Y-98295151D01*
X180085000Y-98162221D01*
X180331356Y-97916295D01*
X180444508Y-97643795D01*
X185974805Y-97643795D01*
X186145715Y-98057429D01*
X186461907Y-98374172D01*
X186875242Y-98545804D01*
X187322795Y-98546195D01*
X187736429Y-98375285D01*
X188053172Y-98059093D01*
X188224804Y-97645758D01*
X188225195Y-97198205D01*
X188054285Y-96784571D01*
X187738093Y-96467828D01*
X187324758Y-96296196D01*
X186877205Y-96295805D01*
X186463571Y-96466715D01*
X186146828Y-96782907D01*
X185975196Y-97196242D01*
X185974805Y-97643795D01*
X180444508Y-97643795D01*
X180464848Y-97594812D01*
X180465151Y-97246715D01*
X180332221Y-96925000D01*
X180086295Y-96678644D01*
X179764812Y-96545152D01*
X179416715Y-96544849D01*
X179095000Y-96677779D01*
X178997609Y-96775000D01*
X177528353Y-96775000D01*
X177500341Y-96634173D01*
X177406408Y-96493592D01*
X177265827Y-96399659D01*
X177100000Y-96366674D01*
X175600000Y-96366674D01*
X175434173Y-96399659D01*
X175293592Y-96493592D01*
X175199659Y-96634173D01*
X175166674Y-96800000D01*
X174833326Y-96800000D01*
X174800341Y-96634173D01*
X174706408Y-96493592D01*
X174565827Y-96399659D01*
X174400000Y-96366674D01*
X174325000Y-96366674D01*
X174325000Y-95103795D01*
X185974805Y-95103795D01*
X186145715Y-95517429D01*
X186461907Y-95834172D01*
X186875242Y-96005804D01*
X187322795Y-96006195D01*
X187736429Y-95835285D01*
X188053172Y-95519093D01*
X188224804Y-95105758D01*
X188225195Y-94658205D01*
X188054285Y-94244571D01*
X187738093Y-93927828D01*
X187324758Y-93756196D01*
X186877205Y-93755805D01*
X186463571Y-93926715D01*
X186146828Y-94242907D01*
X185975196Y-94656242D01*
X185974805Y-95103795D01*
X174325000Y-95103795D01*
X174325000Y-89933326D01*
X174400000Y-89933326D01*
X174565827Y-89900341D01*
X174706408Y-89806408D01*
X174800341Y-89665827D01*
X174833326Y-89500000D01*
X174833326Y-88200000D01*
X175166674Y-88200000D01*
X175166674Y-89500000D01*
X175199659Y-89665827D01*
X175293592Y-89806408D01*
X175434173Y-89900341D01*
X175600000Y-89933326D01*
X177100000Y-89933326D01*
X177265827Y-89900341D01*
X177406408Y-89806408D01*
X177500341Y-89665827D01*
X177528353Y-89525000D01*
X178907500Y-89525000D01*
X178993705Y-89611356D01*
X179315188Y-89744848D01*
X179663285Y-89745151D01*
X179985000Y-89612221D01*
X180231356Y-89366295D01*
X180345754Y-89090795D01*
X185974805Y-89090795D01*
X186145715Y-89504429D01*
X186461907Y-89821172D01*
X186875242Y-89992804D01*
X187322795Y-89993195D01*
X187736429Y-89822285D01*
X188053172Y-89506093D01*
X188224804Y-89092758D01*
X188225195Y-88645205D01*
X188054285Y-88231571D01*
X187738093Y-87914828D01*
X187324758Y-87743196D01*
X186877205Y-87742805D01*
X186463571Y-87913715D01*
X186146828Y-88229907D01*
X185975196Y-88643242D01*
X185974805Y-89090795D01*
X180345754Y-89090795D01*
X180364848Y-89044812D01*
X180365151Y-88696715D01*
X180232221Y-88375000D01*
X179986295Y-88128644D01*
X179664812Y-87995152D01*
X179316715Y-87994849D01*
X178995000Y-88127779D01*
X178947696Y-88175000D01*
X177528353Y-88175000D01*
X177500341Y-88034173D01*
X177406408Y-87893592D01*
X177265827Y-87799659D01*
X177100000Y-87766674D01*
X175600000Y-87766674D01*
X175434173Y-87799659D01*
X175293592Y-87893592D01*
X175199659Y-88034173D01*
X175166674Y-88200000D01*
X174833326Y-88200000D01*
X174800341Y-88034173D01*
X174706408Y-87893592D01*
X174565827Y-87799659D01*
X174400000Y-87766674D01*
X172900000Y-87766674D01*
X172734173Y-87799659D01*
X172593592Y-87893592D01*
X172499659Y-88034173D01*
X172466674Y-88200000D01*
X172466674Y-89500000D01*
X172499659Y-89665827D01*
X172593592Y-89806408D01*
X172734173Y-89900341D01*
X172900000Y-89933326D01*
X172975000Y-89933326D01*
X172975000Y-96245000D01*
X167130005Y-96245000D01*
X167130000Y-96244999D01*
X166890823Y-96292575D01*
X166688058Y-96428058D01*
X165378058Y-97738058D01*
X165242575Y-97940823D01*
X165195000Y-98180000D01*
X165195000Y-100831116D01*
X163996942Y-99633058D01*
X163794177Y-99497575D01*
X163555000Y-99450000D01*
X163208326Y-99450000D01*
X163208326Y-99200000D01*
X163188435Y-99100000D01*
X163208326Y-99000000D01*
X163208326Y-98550000D01*
X163188435Y-98450000D01*
X163208326Y-98350000D01*
X163208326Y-97900000D01*
X163175341Y-97734173D01*
X163081408Y-97593592D01*
X162940827Y-97499659D01*
X162775000Y-97466674D01*
X161025000Y-97466674D01*
X160859173Y-97499659D01*
X160858663Y-97500000D01*
X160853883Y-97500000D01*
X159995000Y-96641116D01*
X159995000Y-87010000D01*
X159947425Y-86770823D01*
X159947425Y-86770822D01*
X159893158Y-86689606D01*
X159811942Y-86568058D01*
X159811939Y-86568056D01*
X159794679Y-86550795D01*
X185974805Y-86550795D01*
X186145715Y-86964429D01*
X186461907Y-87281172D01*
X186875242Y-87452804D01*
X187322795Y-87453195D01*
X187736429Y-87282285D01*
X188053172Y-86966093D01*
X188224804Y-86552758D01*
X188225195Y-86105205D01*
X188054285Y-85691571D01*
X187738093Y-85374828D01*
X187324758Y-85203196D01*
X186877205Y-85202805D01*
X186463571Y-85373715D01*
X186146828Y-85689907D01*
X185975196Y-86103242D01*
X185974805Y-86550795D01*
X159794679Y-86550795D01*
X158011942Y-84768058D01*
X157809177Y-84632575D01*
X157570000Y-84585000D01*
X143230005Y-84585000D01*
X143230000Y-84584999D01*
X142990823Y-84632575D01*
X142788058Y-84768058D01*
X142788056Y-84768061D01*
X141048058Y-86508058D01*
X140912575Y-86710823D01*
X140865000Y-86950000D01*
X140865000Y-102471116D01*
X140121116Y-103215000D01*
X140083583Y-103215000D01*
X140068617Y-103205000D01*
X140111408Y-103176408D01*
X140205341Y-103035827D01*
X140238326Y-102870000D01*
X140238326Y-102270000D01*
X140205341Y-102104173D01*
X140111408Y-101963592D01*
X140068617Y-101935000D01*
X140111408Y-101906408D01*
X140205341Y-101765827D01*
X140238326Y-101600000D01*
X140238326Y-101000000D01*
X140205341Y-100834173D01*
X140111408Y-100693592D01*
X140068617Y-100665000D01*
X140111408Y-100636408D01*
X140205341Y-100495827D01*
X140238326Y-100330000D01*
X140238326Y-99730000D01*
X140205341Y-99564173D01*
X140111408Y-99423592D01*
X140068617Y-99395000D01*
X140111408Y-99366408D01*
X140205341Y-99225827D01*
X140238326Y-99060000D01*
X140238326Y-98460000D01*
X140205341Y-98294173D01*
X140111408Y-98153592D01*
X140068617Y-98125000D01*
X140111408Y-98096408D01*
X140205341Y-97955827D01*
X140238326Y-97790000D01*
X140238326Y-97190000D01*
X140205341Y-97024173D01*
X140111408Y-96883592D01*
X140068617Y-96855000D01*
X140111408Y-96826408D01*
X140205341Y-96685827D01*
X140238326Y-96520000D01*
X140238326Y-95920000D01*
X140205341Y-95754173D01*
X140111408Y-95613592D01*
X140068617Y-95585000D01*
X140111408Y-95556408D01*
X140205341Y-95415827D01*
X140238326Y-95250000D01*
X140238326Y-94650000D01*
X140205341Y-94484173D01*
X140111408Y-94343592D01*
X140068617Y-94315000D01*
X140111408Y-94286408D01*
X140205341Y-94145827D01*
X140238326Y-93980000D01*
X140238326Y-93380000D01*
X140205341Y-93214173D01*
X140111408Y-93073592D01*
X140068617Y-93045000D01*
X140111408Y-93016408D01*
X140205341Y-92875827D01*
X140238326Y-92710000D01*
X140238326Y-92110000D01*
X140205341Y-91944173D01*
X140111408Y-91803592D01*
X140068617Y-91775000D01*
X140111408Y-91746408D01*
X140205341Y-91605827D01*
X140238326Y-91440000D01*
X140238326Y-90840000D01*
X140205341Y-90674173D01*
X140111408Y-90533592D01*
X140068617Y-90505000D01*
X140111408Y-90476408D01*
X140205341Y-90335827D01*
X140238326Y-90170000D01*
X140238326Y-89570000D01*
X140205341Y-89404173D01*
X140111408Y-89263592D01*
X139970827Y-89169659D01*
X139805000Y-89136674D01*
X138091268Y-89136674D01*
X136967297Y-88012703D01*
X136748312Y-87866381D01*
X136490000Y-87815000D01*
X134470000Y-87815000D01*
X134211689Y-87866381D01*
X134032457Y-87986140D01*
X133992703Y-88012703D01*
X133073732Y-88931674D01*
X132220000Y-88931674D01*
X132054173Y-88964659D01*
X131913592Y-89058592D01*
X131819659Y-89199173D01*
X131786674Y-89365000D01*
X131786674Y-90615000D01*
X131819659Y-90780827D01*
X131913592Y-90921408D01*
X132054173Y-91015341D01*
X132220000Y-91048326D01*
X133720000Y-91048326D01*
X133885827Y-91015341D01*
X134026408Y-90921408D01*
X134120341Y-90780827D01*
X134153326Y-90615000D01*
X134153326Y-89761268D01*
X134286674Y-89627920D01*
X134286674Y-90615000D01*
X134319659Y-90780827D01*
X134413592Y-90921408D01*
X134554173Y-91015341D01*
X134720000Y-91048326D01*
X135573732Y-91048326D01*
X136057080Y-91531674D01*
X134770000Y-91531674D01*
X134604173Y-91564659D01*
X134463592Y-91658592D01*
X134369659Y-91799173D01*
X134336674Y-91965000D01*
X134336674Y-93005000D01*
X134203326Y-93005000D01*
X134203326Y-91965000D01*
X134170341Y-91799173D01*
X134076408Y-91658592D01*
X133935827Y-91564659D01*
X133770000Y-91531674D01*
X132270000Y-91531674D01*
X132104173Y-91564659D01*
X131963592Y-91658592D01*
X131869659Y-91799173D01*
X131836674Y-91965000D01*
X131836674Y-93005000D01*
X131020000Y-93005000D01*
X130761688Y-93056381D01*
X130542703Y-93202703D01*
X129190406Y-94555000D01*
X124412535Y-94555000D01*
X124346295Y-94488644D01*
X124024812Y-94355152D01*
X123676715Y-94354849D01*
X123355000Y-94487779D01*
X123108644Y-94733705D01*
X122975152Y-95055188D01*
X122974849Y-95403285D01*
X123107779Y-95725000D01*
X123353705Y-95971356D01*
X123675188Y-96104848D01*
X124023285Y-96105151D01*
X124345000Y-95972221D01*
X124412339Y-95905000D01*
X129470000Y-95905000D01*
X129728312Y-95853619D01*
X129768922Y-95826484D01*
X128990475Y-96604931D01*
X128896715Y-96604849D01*
X128575000Y-96737779D01*
X128328644Y-96983705D01*
X128195152Y-97305188D01*
X128194849Y-97653285D01*
X128327779Y-97975000D01*
X128437587Y-98085000D01*
X126892535Y-98085000D01*
X126826295Y-98018644D01*
X126504812Y-97885152D01*
X126156715Y-97884849D01*
X125835000Y-98017779D01*
X125588644Y-98263705D01*
X125550400Y-98355806D01*
X124895069Y-97700475D01*
X124895151Y-97606715D01*
X124762221Y-97285000D01*
X124516295Y-97038644D01*
X124194812Y-96905152D01*
X123846715Y-96904849D01*
X123525000Y-97037779D01*
X123278644Y-97283705D01*
X123145152Y-97605188D01*
X123144849Y-97953285D01*
X123277779Y-98275000D01*
X123523705Y-98521356D01*
X123845188Y-98654848D01*
X123940337Y-98654931D01*
X125792703Y-100507297D01*
X125968858Y-100625000D01*
X124597915Y-100625000D01*
X124482221Y-100345000D01*
X124236295Y-100098644D01*
X123914812Y-99965152D01*
X123566715Y-99964849D01*
X123245000Y-100097779D01*
X122998644Y-100343705D01*
X122865152Y-100665188D01*
X122864849Y-101013285D01*
X122997779Y-101335000D01*
X123243705Y-101581356D01*
X123565188Y-101714848D01*
X123660337Y-101714931D01*
X123722703Y-101777297D01*
X123898857Y-101895000D01*
X122809594Y-101895000D01*
X122185000Y-101270406D01*
X122185000Y-99320000D01*
X122133619Y-99061689D01*
X122133619Y-99061688D01*
X121987297Y-98842703D01*
X121065069Y-97920475D01*
X121065151Y-97826715D01*
X120932221Y-97505000D01*
X120686295Y-97258644D01*
X120364812Y-97125152D01*
X120016715Y-97124849D01*
X119695000Y-97257779D01*
X119448644Y-97503705D01*
X119315152Y-97825188D01*
X119314849Y-98173285D01*
X116594849Y-98173285D01*
X116595212Y-97757401D01*
X116409110Y-97307000D01*
X116064813Y-96962101D01*
X115614737Y-96775213D01*
X115127401Y-96774788D01*
X114677000Y-96960890D01*
X114332101Y-97305187D01*
X114145213Y-97755263D01*
X114144788Y-98242599D01*
X113273145Y-98242599D01*
X113074737Y-98160213D01*
X112587401Y-98159788D01*
X112137000Y-98345890D01*
X111792101Y-98690187D01*
X111605213Y-99140263D01*
X111604788Y-99627599D01*
X105000000Y-99627599D01*
X105000000Y-96857599D01*
X111604788Y-96857599D01*
X111790890Y-97308000D01*
X112135187Y-97652899D01*
X112585263Y-97839787D01*
X113072599Y-97840212D01*
X113523000Y-97654110D01*
X113867899Y-97309813D01*
X114054787Y-96859737D01*
X114055212Y-96372401D01*
X113869110Y-95922000D01*
X113524813Y-95577101D01*
X113273145Y-95472599D01*
X114144788Y-95472599D01*
X114330890Y-95923000D01*
X114675187Y-96267899D01*
X115125263Y-96454787D01*
X115612599Y-96455212D01*
X116063000Y-96269110D01*
X116407899Y-95924813D01*
X116594787Y-95474737D01*
X116595212Y-94987401D01*
X116409110Y-94537000D01*
X116064813Y-94192101D01*
X115614737Y-94005213D01*
X115127401Y-94004788D01*
X114677000Y-94190890D01*
X114332101Y-94535187D01*
X114145213Y-94985263D01*
X114144788Y-95472599D01*
X113273145Y-95472599D01*
X113074737Y-95390213D01*
X112587401Y-95389788D01*
X112137000Y-95575890D01*
X111792101Y-95920187D01*
X111605213Y-96370263D01*
X111604788Y-96857599D01*
X105000000Y-96857599D01*
X105000000Y-94087599D01*
X111604788Y-94087599D01*
X111790890Y-94538000D01*
X112135187Y-94882899D01*
X112585263Y-95069787D01*
X113072599Y-95070212D01*
X113523000Y-94884110D01*
X113867899Y-94539813D01*
X114054787Y-94089737D01*
X114055212Y-93602401D01*
X113869110Y-93152000D01*
X113524813Y-92807101D01*
X113273145Y-92702599D01*
X114144788Y-92702599D01*
X114330890Y-93153000D01*
X114675187Y-93497899D01*
X115125263Y-93684787D01*
X115612599Y-93685212D01*
X116063000Y-93499110D01*
X116407899Y-93154813D01*
X116594787Y-92704737D01*
X116595212Y-92217401D01*
X116409110Y-91767000D01*
X116064813Y-91422101D01*
X115614737Y-91235213D01*
X115127401Y-91234788D01*
X114677000Y-91420890D01*
X114332101Y-91765187D01*
X114145213Y-92215263D01*
X114144788Y-92702599D01*
X113273145Y-92702599D01*
X113074737Y-92620213D01*
X112587401Y-92619788D01*
X112137000Y-92805890D01*
X111792101Y-93150187D01*
X111605213Y-93600263D01*
X111604788Y-94087599D01*
X105000000Y-94087599D01*
X105000000Y-86084266D01*
X111174494Y-86084266D01*
X111618860Y-87159715D01*
X112440957Y-87983248D01*
X113515629Y-88429491D01*
X114679266Y-88430506D01*
X115754715Y-87986140D01*
X116578248Y-87164043D01*
X117024491Y-86089371D01*
X117025506Y-84925734D01*
X116581140Y-83850285D01*
X115759043Y-83026752D01*
X114684371Y-82580509D01*
X113520734Y-82579494D01*
X112445285Y-83023860D01*
X111621752Y-83845957D01*
X111175509Y-84920629D01*
X111174494Y-86084266D01*
X105000000Y-86084266D01*
X105000000Y-77525246D01*
X183044580Y-77525246D01*
X183412986Y-78416858D01*
X184094554Y-79099617D01*
X184985521Y-79469579D01*
X185950246Y-79470420D01*
X186841858Y-79102014D01*
X187524617Y-78420446D01*
X187894579Y-77529479D01*
X187895420Y-76564754D01*
X187527014Y-75673142D01*
X186845446Y-74990383D01*
X185954479Y-74620421D01*
X184989754Y-74619580D01*
X184098142Y-74987986D01*
X183415383Y-75669554D01*
X183045421Y-76560521D01*
X183044580Y-77525246D01*
X105000000Y-77525246D01*
X105000000Y-74350246D01*
X117004580Y-74350246D01*
X117372986Y-75241858D01*
X118054554Y-75924617D01*
X118945521Y-76294579D01*
X119910246Y-76295420D01*
X120801858Y-75927014D01*
X121484617Y-75245446D01*
X121854579Y-74354479D01*
X121855420Y-73389754D01*
X121487014Y-72498142D01*
X120805446Y-71815383D01*
X119914479Y-71445421D01*
X118949754Y-71444580D01*
X118058142Y-71812986D01*
X117375383Y-72494554D01*
X117005421Y-73385521D01*
X117004580Y-74350246D01*
X105000000Y-74350246D01*
X105000000Y-71000000D01*
X114000000Y-71000000D01*
X114191342Y-70961940D01*
X114353553Y-70853553D01*
X114461940Y-70691342D01*
X114500000Y-70500000D01*
X114500000Y-66096461D01*
X177254775Y-66096461D01*
X177451512Y-66572600D01*
X177815483Y-66937208D01*
X178291278Y-67134775D01*
X178806461Y-67135225D01*
X179282600Y-66938488D01*
X179647208Y-66574517D01*
X179844775Y-66098722D01*
X179845225Y-65583539D01*
X179648488Y-65107400D01*
X179284517Y-64742792D01*
X178808722Y-64545225D01*
X178293539Y-64544775D01*
X177817400Y-64741512D01*
X177452792Y-65105483D01*
X177255225Y-65581278D01*
X177254775Y-66096461D01*
X114500000Y-66096461D01*
X114500000Y-63100000D01*
X181500000Y-63100000D01*
X181500000Y-70500000D01*
G36*
X160859173Y-102000341D02*
X160983142Y-102025000D01*
X160859173Y-102049659D01*
X160727709Y-102137500D01*
X160625250Y-102137500D01*
X160492000Y-102270750D01*
X160492000Y-102356021D01*
X160573145Y-102551920D01*
X160591674Y-102570449D01*
X160591674Y-102700000D01*
X155985000Y-102700000D01*
X155745823Y-102747575D01*
X155543058Y-102883058D01*
X155211116Y-103215000D01*
X149483583Y-103215000D01*
X149468617Y-103205000D01*
X149483583Y-103195000D01*
X153930000Y-103195000D01*
X154169177Y-103147425D01*
X154371942Y-103011942D01*
X155383884Y-102000000D01*
X160858663Y-102000000D01*
X160859173Y-102000341D01*
X160859173Y-102000341D01*
G37*
X160859173Y-102000341D02*
X160983142Y-102025000D01*
X160859173Y-102049659D01*
X160727709Y-102137500D01*
X160625250Y-102137500D01*
X160492000Y-102270750D01*
X160492000Y-102356021D01*
X160573145Y-102551920D01*
X160591674Y-102570449D01*
X160591674Y-102700000D01*
X155985000Y-102700000D01*
X155745823Y-102747575D01*
X155543058Y-102883058D01*
X155211116Y-103215000D01*
X149483583Y-103215000D01*
X149468617Y-103205000D01*
X149483583Y-103195000D01*
X153930000Y-103195000D01*
X154169177Y-103147425D01*
X154371942Y-103011942D01*
X155383884Y-102000000D01*
X160858663Y-102000000D01*
X160859173Y-102000341D01*
G36*
X168059173Y-97499659D02*
X167918592Y-97593592D01*
X167824659Y-97734173D01*
X167791674Y-97900000D01*
X167791674Y-98350000D01*
X167811565Y-98450000D01*
X167791674Y-98550000D01*
X167791674Y-98879551D01*
X167773145Y-98898080D01*
X167692000Y-99093979D01*
X167692000Y-99179250D01*
X167825250Y-99312500D01*
X167927709Y-99312500D01*
X168005063Y-99364186D01*
X167923080Y-99398144D01*
X167773145Y-99548080D01*
X167743782Y-99618968D01*
X167692000Y-99670750D01*
X167692000Y-99829250D01*
X167743782Y-99881032D01*
X167773145Y-99951920D01*
X167923080Y-100101856D01*
X168005063Y-100135814D01*
X167927709Y-100187500D01*
X167825250Y-100187500D01*
X167692000Y-100320750D01*
X167692000Y-100406021D01*
X167773145Y-100601920D01*
X167791674Y-100620449D01*
X167791674Y-100950000D01*
X167811565Y-101050000D01*
X167791674Y-101150000D01*
X167791674Y-101600000D01*
X167811565Y-101700000D01*
X167791674Y-101800000D01*
X167791674Y-102129551D01*
X167773145Y-102148080D01*
X167692000Y-102343979D01*
X167692000Y-102429250D01*
X167825250Y-102562500D01*
X167927709Y-102562500D01*
X168059173Y-102650341D01*
X168183142Y-102675000D01*
X168059173Y-102699659D01*
X168058663Y-102700000D01*
X166915000Y-102700000D01*
X166675823Y-102747575D01*
X166473058Y-102883058D01*
X166445000Y-102911116D01*
X166445000Y-102340005D01*
X166445001Y-102340000D01*
X166445000Y-102339995D01*
X166445000Y-98438884D01*
X167388884Y-97495000D01*
X168082595Y-97495000D01*
X168059173Y-97499659D01*
X168059173Y-97499659D01*
G37*
X168059173Y-97499659D02*
X167918592Y-97593592D01*
X167824659Y-97734173D01*
X167791674Y-97900000D01*
X167791674Y-98350000D01*
X167811565Y-98450000D01*
X167791674Y-98550000D01*
X167791674Y-98879551D01*
X167773145Y-98898080D01*
X167692000Y-99093979D01*
X167692000Y-99179250D01*
X167825250Y-99312500D01*
X167927709Y-99312500D01*
X168005063Y-99364186D01*
X167923080Y-99398144D01*
X167773145Y-99548080D01*
X167743782Y-99618968D01*
X167692000Y-99670750D01*
X167692000Y-99829250D01*
X167743782Y-99881032D01*
X167773145Y-99951920D01*
X167923080Y-100101856D01*
X168005063Y-100135814D01*
X167927709Y-100187500D01*
X167825250Y-100187500D01*
X167692000Y-100320750D01*
X167692000Y-100406021D01*
X167773145Y-100601920D01*
X167791674Y-100620449D01*
X167791674Y-100950000D01*
X167811565Y-101050000D01*
X167791674Y-101150000D01*
X167791674Y-101600000D01*
X167811565Y-101700000D01*
X167791674Y-101800000D01*
X167791674Y-102129551D01*
X167773145Y-102148080D01*
X167692000Y-102343979D01*
X167692000Y-102429250D01*
X167825250Y-102562500D01*
X167927709Y-102562500D01*
X168059173Y-102650341D01*
X168183142Y-102675000D01*
X168059173Y-102699659D01*
X168058663Y-102700000D01*
X166915000Y-102700000D01*
X166675823Y-102747575D01*
X166473058Y-102883058D01*
X166445000Y-102911116D01*
X166445000Y-102340005D01*
X166445001Y-102340000D01*
X166445000Y-102339995D01*
X166445000Y-98438884D01*
X167388884Y-97495000D01*
X168082595Y-97495000D01*
X168059173Y-97499659D01*
M02*
