G04 #@! TF.FileFunction,Copper,L1,Top,Signal*
%FSLAX46Y46*%
G04 Gerber Fmt 4.6, Leading zero omitted, Abs format (unit mm)*
G04 Created by KiCad (PCBNEW no-vcs-found-product) date Thu Nov 24 16:10:56 2016*
%MOMM*%
%LPD*%
G01*
G04 APERTURE LIST*
%ADD10C,0.100000*%
%ADD11R,2.500000X2.000000*%
%ADD12R,1.250000X1.500000*%
%ADD13R,1.500000X1.250000*%
%ADD14R,1.300000X1.500000*%
%ADD15O,2.700000X1.700000*%
%ADD16O,1.650000X1.100000*%
%ADD17C,1.600000*%
%ADD18C,5.000000*%
%ADD19R,1.500000X1.300000*%
%ADD20R,1.750000X0.450000*%
%ADD21R,2.000000X0.600000*%
%ADD22C,1.400000*%
%ADD23C,1.000000*%
%ADD24C,0.900000*%
%ADD25C,0.500000*%
%ADD26C,0.400000*%
%ADD27C,0.250000*%
%ADD28C,0.050000*%
G04 APERTURE END LIST*
D10*
D11*
X163700000Y-116810000D03*
X163700000Y-112810000D03*
D12*
X168940000Y-116800000D03*
X168940000Y-114300000D03*
X177690000Y-114300000D03*
X177690000Y-116800000D03*
D13*
X132970000Y-89990000D03*
X135470000Y-89990000D03*
X172450000Y-104450000D03*
X174950000Y-104450000D03*
D12*
X155100000Y-91150000D03*
X155100000Y-93650000D03*
X152070000Y-91150000D03*
X152070000Y-93650000D03*
D14*
X173440000Y-116900000D03*
X173440000Y-114200000D03*
D15*
X189250000Y-102904000D03*
D16*
X183925000Y-104954000D03*
X183925000Y-106554000D03*
X185675000Y-105754000D03*
X185675000Y-107354000D03*
X183925000Y-108154000D03*
D15*
X189250000Y-110204000D03*
D17*
X115370000Y-92460000D03*
X115370000Y-95230000D03*
X115370000Y-98000000D03*
X115370000Y-100770000D03*
X115370000Y-103540000D03*
X112830000Y-93845000D03*
X112830000Y-96615000D03*
X112830000Y-99385000D03*
X112830000Y-102155000D03*
D18*
X114100000Y-85505000D03*
X114100000Y-110495000D03*
D19*
X173650000Y-97450000D03*
X176350000Y-97450000D03*
X173650000Y-88850000D03*
X176350000Y-88850000D03*
D20*
X161900000Y-98125000D03*
X161900000Y-98775000D03*
X161900000Y-99425000D03*
X161900000Y-100075000D03*
X161900000Y-100725000D03*
X161900000Y-101375000D03*
X161900000Y-102025000D03*
X161900000Y-102675000D03*
X161900000Y-103325000D03*
X161900000Y-103975000D03*
X161900000Y-104625000D03*
X161900000Y-105275000D03*
X161900000Y-105925000D03*
X161900000Y-106575000D03*
X169100000Y-106575000D03*
X169100000Y-105925000D03*
X169100000Y-105275000D03*
X169100000Y-104625000D03*
X169100000Y-103975000D03*
X169100000Y-103325000D03*
X169100000Y-102675000D03*
X169100000Y-102025000D03*
X169100000Y-101375000D03*
X169100000Y-100725000D03*
X169100000Y-100075000D03*
X169100000Y-99425000D03*
X169100000Y-98775000D03*
X169100000Y-98125000D03*
D21*
X138805000Y-89870000D03*
X138805000Y-91140000D03*
X138805000Y-92410000D03*
X138805000Y-93680000D03*
X138805000Y-94950000D03*
X138805000Y-96220000D03*
X138805000Y-97490000D03*
X138805000Y-98760000D03*
X138805000Y-100030000D03*
X138805000Y-101300000D03*
X138805000Y-102570000D03*
X138805000Y-103840000D03*
X138805000Y-105110000D03*
X138805000Y-106380000D03*
X148205000Y-106380000D03*
X148205000Y-105110000D03*
X148205000Y-103840000D03*
X148205000Y-102570000D03*
X148205000Y-101300000D03*
X148205000Y-100030000D03*
X148205000Y-98760000D03*
X148205000Y-97490000D03*
X148205000Y-96220000D03*
X148205000Y-94950000D03*
X148205000Y-93680000D03*
X148205000Y-92410000D03*
X148205000Y-91140000D03*
X148205000Y-89870000D03*
D22*
X187100000Y-94881000D03*
X187100000Y-97421000D03*
X187100000Y-86328000D03*
X187100000Y-88868000D03*
D23*
X117840000Y-130330000D03*
X178550000Y-65840000D03*
D13*
X135470000Y-92390000D03*
X132970000Y-92390000D03*
D24*
X122770000Y-107300000D03*
X166520000Y-90300000D03*
X181640000Y-101010000D03*
X179590000Y-97420000D03*
X180530000Y-102030000D03*
X179490000Y-88870000D03*
X177920000Y-105550000D03*
X131450000Y-97500000D03*
X123850000Y-95230000D03*
X120190000Y-98000000D03*
X123740000Y-100840000D03*
X132210000Y-96220000D03*
X124020000Y-97780000D03*
X126330000Y-98760000D03*
X129070000Y-97480000D03*
D25*
X168940000Y-116800000D02*
X163710000Y-116800000D01*
X163710000Y-116800000D02*
X163700000Y-116810000D01*
D26*
X160860000Y-111810000D02*
X160860000Y-115350000D01*
X165820000Y-104420000D02*
X165820000Y-106850000D01*
X165820000Y-106850000D02*
X160860000Y-111810000D01*
X162320000Y-116810000D02*
X163700000Y-116810000D01*
X160860000Y-115350000D02*
X162320000Y-116810000D01*
X165820000Y-102340000D02*
X165820000Y-98180000D01*
X167130000Y-96870000D02*
X173070000Y-96870000D01*
X165820000Y-98180000D02*
X167130000Y-96870000D01*
X173070000Y-96870000D02*
X173650000Y-97450000D01*
X165820000Y-104420000D02*
X165820000Y-102340000D01*
X163555000Y-100075000D02*
X161900000Y-100075000D01*
X165820000Y-102340000D02*
X163555000Y-100075000D01*
X165820000Y-104420000D02*
X166915000Y-103325000D01*
X166915000Y-103325000D02*
X169100000Y-103325000D01*
X148205000Y-97490000D02*
X151760000Y-97490000D01*
X150490000Y-96220000D02*
X151760000Y-97490000D01*
X151760000Y-97490000D02*
X154345000Y-100075000D01*
X154345000Y-100075000D02*
X161900000Y-100075000D01*
X148205000Y-96220000D02*
X150490000Y-96220000D01*
D25*
X148205000Y-92410000D02*
X146370000Y-92410000D01*
X146370000Y-96220000D02*
X148205000Y-96220000D01*
X145720000Y-95570000D02*
X146370000Y-96220000D01*
X145720000Y-93060000D02*
X145720000Y-95570000D01*
X146370000Y-92410000D02*
X145720000Y-93060000D01*
X173440000Y-116900000D02*
X173340000Y-116800000D01*
X173340000Y-116800000D02*
X168940000Y-116800000D01*
X173650000Y-88850000D02*
X173650000Y-97450000D01*
D27*
X115370000Y-103540000D02*
X119130000Y-107300000D01*
X119130000Y-107300000D02*
X122770000Y-107300000D01*
X152070000Y-93650000D02*
X153340000Y-93650000D01*
X153900000Y-92400000D02*
X156580000Y-92400000D01*
X153720000Y-92580000D02*
X153900000Y-92400000D01*
X153720000Y-93270000D02*
X153720000Y-92580000D01*
X153340000Y-93650000D02*
X153720000Y-93270000D01*
D25*
X148205000Y-93680000D02*
X152040000Y-93680000D01*
D26*
X169100000Y-104625000D02*
X170455000Y-104625000D01*
X170455000Y-104625000D02*
X170630000Y-104450000D01*
X169100000Y-100075000D02*
X167575000Y-100075000D01*
D27*
X167575000Y-100075000D02*
X167570000Y-100070000D01*
D26*
X169100000Y-99425000D02*
X167575000Y-99425000D01*
D27*
X167575000Y-99425000D02*
X167570000Y-99430000D01*
D26*
X169100000Y-99425000D02*
X170445000Y-99425000D01*
D27*
X170445000Y-99425000D02*
X170460000Y-99410000D01*
D26*
X169100000Y-100075000D02*
X170535000Y-100075000D01*
D27*
X170535000Y-100075000D02*
X170560000Y-100100000D01*
D26*
X169100000Y-104625000D02*
X167825000Y-104625000D01*
X169100000Y-102675000D02*
X170435000Y-102675000D01*
X170435000Y-102675000D02*
X170560000Y-102800000D01*
X169100000Y-102675000D02*
X167545000Y-102675000D01*
D27*
X167545000Y-102675000D02*
X167540000Y-102680000D01*
D26*
X161900000Y-102025000D02*
X160475000Y-102025000D01*
D27*
X160475000Y-102025000D02*
X160470000Y-102020000D01*
D26*
X161900000Y-102025000D02*
X163425000Y-102025000D01*
D27*
X163425000Y-102025000D02*
X163430000Y-102030000D01*
D25*
X152040000Y-93680000D02*
X152070000Y-93650000D01*
X184200000Y-108154000D02*
X183836000Y-108154000D01*
X183836000Y-108154000D02*
X177690000Y-114300000D01*
X177690000Y-114300000D02*
X177590000Y-114200000D01*
X177590000Y-114200000D02*
X173440000Y-114200000D01*
X138805000Y-89870000D02*
X137870000Y-89870000D01*
X137870000Y-89870000D02*
X136490000Y-88490000D01*
X136490000Y-88490000D02*
X134470000Y-88490000D01*
X134470000Y-88490000D02*
X132970000Y-89990000D01*
X138805000Y-91140000D02*
X136620000Y-91140000D01*
X136620000Y-91140000D02*
X135470000Y-89990000D01*
D26*
X169100000Y-105275000D02*
X171625000Y-105275000D01*
X171625000Y-105275000D02*
X172450000Y-104450000D01*
D25*
X135520000Y-92590000D02*
X135700000Y-92410000D01*
X135700000Y-92410000D02*
X138805000Y-92410000D01*
X148205000Y-89870000D02*
X153820000Y-89870000D01*
X153820000Y-89870000D02*
X155100000Y-91150000D01*
X148205000Y-94950000D02*
X153800000Y-94950000D01*
X153800000Y-94950000D02*
X155100000Y-93650000D01*
X152060000Y-91140000D02*
X152070000Y-91150000D01*
X148205000Y-91140000D02*
X152060000Y-91140000D01*
D26*
X169100000Y-101375000D02*
X171215000Y-101375000D01*
X171580000Y-101010000D02*
X181640000Y-101010000D01*
X171215000Y-101375000D02*
X171580000Y-101010000D01*
D25*
X179560000Y-97450000D02*
X176350000Y-97450000D01*
X179590000Y-97420000D02*
X179560000Y-97450000D01*
D26*
X169100000Y-102025000D02*
X180525000Y-102025000D01*
X180525000Y-102025000D02*
X180530000Y-102030000D01*
D25*
X179470000Y-88850000D02*
X176350000Y-88850000D01*
X179490000Y-88870000D02*
X179470000Y-88850000D01*
D26*
X169100000Y-106575000D02*
X184179000Y-106575000D01*
X184179000Y-106575000D02*
X184200000Y-106554000D01*
X169100000Y-105925000D02*
X177545000Y-105925000D01*
X177920000Y-105550000D02*
X177545000Y-105925000D01*
D25*
X131460000Y-97490000D02*
X138805000Y-97490000D01*
X131450000Y-97500000D02*
X131460000Y-97490000D01*
X129470000Y-95230000D02*
X131020000Y-93680000D01*
X131020000Y-93680000D02*
X138805000Y-93680000D01*
X123850000Y-95230000D02*
X129470000Y-95230000D01*
X122530000Y-102570000D02*
X121510000Y-101550000D01*
X121510000Y-99320000D02*
X120190000Y-98000000D01*
X121510000Y-101550000D02*
X121510000Y-99320000D01*
X122530000Y-102570000D02*
X138805000Y-102570000D01*
X138805000Y-101300000D02*
X124200000Y-101300000D01*
X124200000Y-101300000D02*
X123740000Y-100840000D01*
X132210000Y-96220000D02*
X138805000Y-96220000D01*
X124020000Y-97780000D02*
X126270000Y-100030000D01*
X126270000Y-100030000D02*
X138805000Y-100030000D01*
X126330000Y-98760000D02*
X138805000Y-98760000D01*
X129070000Y-97480000D02*
X131600000Y-94950000D01*
X131600000Y-94950000D02*
X138805000Y-94950000D01*
D26*
X161900000Y-98125000D02*
X160595000Y-98125000D01*
X159370000Y-87010000D02*
X157570000Y-85210000D01*
X159370000Y-96900000D02*
X159370000Y-87010000D01*
X160595000Y-98125000D02*
X159370000Y-96900000D01*
X140380000Y-103840000D02*
X138805000Y-103840000D01*
X141490000Y-102730000D02*
X140380000Y-103840000D01*
X141490000Y-86950000D02*
X141490000Y-102730000D01*
X143230000Y-85210000D02*
X141490000Y-86950000D01*
X157570000Y-85210000D02*
X143230000Y-85210000D01*
X161900000Y-98775000D02*
X160235000Y-98775000D01*
X140620000Y-105110000D02*
X138805000Y-105110000D01*
X142580000Y-103150000D02*
X140620000Y-105110000D01*
X142580000Y-87810000D02*
X142580000Y-103150000D01*
X144270000Y-86120000D02*
X142580000Y-87810000D01*
X156950000Y-86120000D02*
X144270000Y-86120000D01*
X158640000Y-87810000D02*
X156950000Y-86120000D01*
X158640000Y-97180000D02*
X158640000Y-87810000D01*
X160235000Y-98775000D02*
X158640000Y-97180000D01*
X138805000Y-106380000D02*
X141500000Y-106380000D01*
X159325000Y-99425000D02*
X161900000Y-99425000D01*
X157730000Y-97830000D02*
X159325000Y-99425000D01*
X157730000Y-88640000D02*
X157730000Y-97830000D01*
X156310000Y-87220000D02*
X157730000Y-88640000D01*
X145270000Y-87220000D02*
X156310000Y-87220000D01*
X143890000Y-88600000D02*
X145270000Y-87220000D01*
X143890000Y-103990000D02*
X143890000Y-88600000D01*
X141500000Y-106380000D02*
X143890000Y-103990000D01*
X148205000Y-101300000D02*
X153450000Y-101300000D01*
X154025000Y-100725000D02*
X161900000Y-100725000D01*
X153450000Y-101300000D02*
X154025000Y-100725000D01*
X148205000Y-102570000D02*
X153930000Y-102570000D01*
X155125000Y-101375000D02*
X161900000Y-101375000D01*
X153930000Y-102570000D02*
X155125000Y-101375000D01*
X148205000Y-103840000D02*
X155470000Y-103840000D01*
X155985000Y-103325000D02*
X161900000Y-103325000D01*
X155470000Y-103840000D02*
X155985000Y-103325000D01*
X148205000Y-105110000D02*
X155790000Y-105110000D01*
X156925000Y-103975000D02*
X161900000Y-103975000D01*
X155790000Y-105110000D02*
X156925000Y-103975000D01*
X148205000Y-106380000D02*
X156010000Y-106380000D01*
X157765000Y-104625000D02*
X161900000Y-104625000D01*
X156010000Y-106380000D02*
X157765000Y-104625000D01*
D28*
G36*
X181500000Y-70500000D02*
X181538060Y-70691342D01*
X181646447Y-70853553D01*
X181808658Y-70961940D01*
X182000000Y-71000000D01*
X191000000Y-71000000D01*
X191000000Y-102329862D01*
X190889857Y-102087999D01*
X190490820Y-101713909D01*
X189979000Y-101521000D01*
X189479000Y-101521000D01*
X189479000Y-102675000D01*
X189499000Y-102675000D01*
X189499000Y-103133000D01*
X189479000Y-103133000D01*
X189479000Y-104287000D01*
X189979000Y-104287000D01*
X190490820Y-104094091D01*
X190889857Y-103720001D01*
X191000000Y-103478138D01*
X191000000Y-109629862D01*
X190889857Y-109387999D01*
X190490820Y-109013909D01*
X189979000Y-108821000D01*
X189479000Y-108821000D01*
X189479000Y-109975000D01*
X189499000Y-109975000D01*
X189499000Y-110433000D01*
X189479000Y-110433000D01*
X189479000Y-111587000D01*
X189979000Y-111587000D01*
X190490820Y-111394091D01*
X190889857Y-111020001D01*
X191000000Y-110778138D01*
X191000000Y-125000000D01*
X182000000Y-125000000D01*
X181808658Y-125038060D01*
X181646447Y-125146447D01*
X181538060Y-125308658D01*
X181500000Y-125500000D01*
X181500000Y-132900000D01*
X114500000Y-132900000D01*
X114500000Y-130586461D01*
X116544775Y-130586461D01*
X116741512Y-131062600D01*
X117105483Y-131427208D01*
X117581278Y-131624775D01*
X118096461Y-131625225D01*
X118572600Y-131428488D01*
X118937208Y-131064517D01*
X119134775Y-130588722D01*
X119135225Y-130073539D01*
X118938488Y-129597400D01*
X118574517Y-129232792D01*
X118098722Y-129035225D01*
X117583539Y-129034775D01*
X117107400Y-129231512D01*
X116742792Y-129595483D01*
X116545225Y-130071278D01*
X116544775Y-130586461D01*
X114500000Y-130586461D01*
X114500000Y-125500000D01*
X114461940Y-125308658D01*
X114353553Y-125146447D01*
X114191342Y-125038060D01*
X114000000Y-125000000D01*
X105000000Y-125000000D01*
X105000000Y-122610246D01*
X117004580Y-122610246D01*
X117372986Y-123501858D01*
X118054554Y-124184617D01*
X118945521Y-124554579D01*
X119910246Y-124555420D01*
X120801858Y-124187014D01*
X121484617Y-123505446D01*
X121854579Y-122614479D01*
X121855420Y-121649754D01*
X121487014Y-120758142D01*
X120805446Y-120075383D01*
X119914479Y-119705421D01*
X118949754Y-119704580D01*
X118058142Y-120072986D01*
X117375383Y-120754554D01*
X117005421Y-121645521D01*
X117004580Y-122610246D01*
X105000000Y-122610246D01*
X105000000Y-111074266D01*
X111174494Y-111074266D01*
X111618860Y-112149715D01*
X112440957Y-112973248D01*
X113515629Y-113419491D01*
X114679266Y-113420506D01*
X115754715Y-112976140D01*
X116578248Y-112154043D01*
X116912115Y-111350000D01*
X126835000Y-111350000D01*
X126835000Y-129920000D01*
X126836903Y-129929567D01*
X126842322Y-129937678D01*
X126850433Y-129943097D01*
X126860000Y-129945000D01*
X142520000Y-129945000D01*
X142529567Y-129943097D01*
X142537678Y-129937678D01*
X142543097Y-129929567D01*
X142545000Y-129920000D01*
X142545000Y-122090000D01*
X143355000Y-122090000D01*
X143355000Y-129890000D01*
X143356903Y-129899567D01*
X143362322Y-129907678D01*
X143370433Y-129913097D01*
X143380000Y-129915000D01*
X174580000Y-129915000D01*
X174589567Y-129913097D01*
X174597678Y-129907678D01*
X174603097Y-129899567D01*
X174605000Y-129890000D01*
X174605000Y-122090000D01*
X174603097Y-122080433D01*
X174597678Y-122072322D01*
X174589567Y-122066903D01*
X174580000Y-122065000D01*
X143380000Y-122065000D01*
X143370433Y-122066903D01*
X143362322Y-122072322D01*
X143356903Y-122080433D01*
X143355000Y-122090000D01*
X142545000Y-122090000D01*
X142545000Y-111520000D01*
X143315000Y-111520000D01*
X143315000Y-121020000D01*
X143316903Y-121029567D01*
X143322322Y-121037678D01*
X143330433Y-121043097D01*
X143340000Y-121045000D01*
X157850000Y-121045000D01*
X157859567Y-121043097D01*
X157867678Y-121037678D01*
X157873097Y-121029567D01*
X157875000Y-121020000D01*
X157875000Y-119435246D01*
X183044580Y-119435246D01*
X183412986Y-120326858D01*
X184094554Y-121009617D01*
X184985521Y-121379579D01*
X185950246Y-121380420D01*
X186841858Y-121012014D01*
X187524617Y-120330446D01*
X187894579Y-119439479D01*
X187895420Y-118474754D01*
X187527014Y-117583142D01*
X186845446Y-116900383D01*
X185954479Y-116530421D01*
X184989754Y-116529580D01*
X184098142Y-116897986D01*
X183415383Y-117579554D01*
X183045421Y-118470521D01*
X183044580Y-119435246D01*
X157875000Y-119435246D01*
X157875000Y-111520000D01*
X157873097Y-111510433D01*
X157867678Y-111502322D01*
X157859567Y-111496903D01*
X157850000Y-111495000D01*
X143340000Y-111495000D01*
X143330433Y-111496903D01*
X143322322Y-111502322D01*
X143316903Y-111510433D01*
X143315000Y-111520000D01*
X142545000Y-111520000D01*
X142545000Y-111350000D01*
X142543097Y-111340433D01*
X142537678Y-111332322D01*
X142529567Y-111326903D01*
X142520000Y-111325000D01*
X126860000Y-111325000D01*
X126850433Y-111326903D01*
X126842322Y-111332322D01*
X126836903Y-111340433D01*
X126835000Y-111350000D01*
X116912115Y-111350000D01*
X117024491Y-111079371D01*
X117025506Y-109915734D01*
X116581140Y-108840285D01*
X115759043Y-108016752D01*
X114684371Y-107570509D01*
X113520734Y-107569494D01*
X112445285Y-108013860D01*
X111621752Y-108835957D01*
X111175509Y-109910629D01*
X111174494Y-111074266D01*
X105000000Y-111074266D01*
X105000000Y-104553486D01*
X114680369Y-104553486D01*
X114767818Y-104758430D01*
X115279929Y-104896128D01*
X115805752Y-104827368D01*
X115972182Y-104758430D01*
X116059631Y-104553486D01*
X115370000Y-103863855D01*
X114680369Y-104553486D01*
X105000000Y-104553486D01*
X105000000Y-103449929D01*
X114013872Y-103449929D01*
X114082632Y-103975752D01*
X114151570Y-104142182D01*
X114356514Y-104229631D01*
X115046145Y-103540000D01*
X115693855Y-103540000D01*
X116383486Y-104229631D01*
X116588430Y-104142182D01*
X116726128Y-103630071D01*
X116657368Y-103104248D01*
X116588430Y-102937818D01*
X116383486Y-102850369D01*
X115693855Y-103540000D01*
X115046145Y-103540000D01*
X114356514Y-102850369D01*
X114151570Y-102937818D01*
X114013872Y-103449929D01*
X105000000Y-103449929D01*
X105000000Y-102397599D01*
X111604788Y-102397599D01*
X111790890Y-102848000D01*
X112135187Y-103192899D01*
X112585263Y-103379787D01*
X113072599Y-103380212D01*
X113523000Y-103194110D01*
X113867899Y-102849813D01*
X114002144Y-102526514D01*
X114680369Y-102526514D01*
X115370000Y-103216145D01*
X116059631Y-102526514D01*
X115972182Y-102321570D01*
X115460071Y-102183872D01*
X114934248Y-102252632D01*
X114767818Y-102321570D01*
X114680369Y-102526514D01*
X114002144Y-102526514D01*
X114054787Y-102399737D01*
X114055212Y-101912401D01*
X113869110Y-101462000D01*
X113524813Y-101117101D01*
X113273145Y-101012599D01*
X114144788Y-101012599D01*
X114330890Y-101463000D01*
X114675187Y-101807899D01*
X115125263Y-101994787D01*
X115612599Y-101995212D01*
X116063000Y-101809110D01*
X116407899Y-101464813D01*
X116594787Y-101014737D01*
X116595212Y-100527401D01*
X116409110Y-100077000D01*
X116064813Y-99732101D01*
X115614737Y-99545213D01*
X115127401Y-99544788D01*
X114677000Y-99730890D01*
X114332101Y-100075187D01*
X114145213Y-100525263D01*
X114144788Y-101012599D01*
X113273145Y-101012599D01*
X113074737Y-100930213D01*
X112587401Y-100929788D01*
X112137000Y-101115890D01*
X111792101Y-101460187D01*
X111605213Y-101910263D01*
X111604788Y-102397599D01*
X105000000Y-102397599D01*
X105000000Y-99627599D01*
X111604788Y-99627599D01*
X111790890Y-100078000D01*
X112135187Y-100422899D01*
X112585263Y-100609787D01*
X113072599Y-100610212D01*
X113523000Y-100424110D01*
X113867899Y-100079813D01*
X114054787Y-99629737D01*
X114055212Y-99142401D01*
X113869110Y-98692000D01*
X113524813Y-98347101D01*
X113273145Y-98242599D01*
X114144788Y-98242599D01*
X114330890Y-98693000D01*
X114675187Y-99037899D01*
X115125263Y-99224787D01*
X115612599Y-99225212D01*
X116063000Y-99039110D01*
X116407899Y-98694813D01*
X116594787Y-98244737D01*
X116594849Y-98173285D01*
X119314849Y-98173285D01*
X119447779Y-98495000D01*
X119693705Y-98741356D01*
X120015188Y-98874848D01*
X120110337Y-98874931D01*
X120835000Y-99599594D01*
X120835000Y-101550000D01*
X120886381Y-101808312D01*
X121032703Y-102027297D01*
X122052703Y-103047297D01*
X122271688Y-103193619D01*
X122530000Y-103245000D01*
X137490969Y-103245000D01*
X137404659Y-103374173D01*
X137371674Y-103540000D01*
X137371674Y-104140000D01*
X137404659Y-104305827D01*
X137498592Y-104446408D01*
X137541383Y-104475000D01*
X137498592Y-104503592D01*
X137404659Y-104644173D01*
X137371674Y-104810000D01*
X137371674Y-105410000D01*
X137404659Y-105575827D01*
X137498592Y-105716408D01*
X137541383Y-105745000D01*
X137498592Y-105773592D01*
X137404659Y-105914173D01*
X137371674Y-106080000D01*
X137371674Y-106680000D01*
X137404659Y-106845827D01*
X137498592Y-106986408D01*
X137639173Y-107080341D01*
X137805000Y-107113326D01*
X139805000Y-107113326D01*
X139970827Y-107080341D01*
X140083583Y-107005000D01*
X141500000Y-107005000D01*
X141739177Y-106957425D01*
X141941942Y-106821942D01*
X144331939Y-104431944D01*
X144331942Y-104431942D01*
X144467122Y-104229631D01*
X144467425Y-104229178D01*
X144515000Y-103990000D01*
X144515000Y-88858884D01*
X145528884Y-87845000D01*
X156051116Y-87845000D01*
X157105000Y-88898884D01*
X157105000Y-97830000D01*
X157152575Y-98069177D01*
X157288058Y-98271942D01*
X158466117Y-99450000D01*
X154603884Y-99450000D01*
X150931942Y-95778058D01*
X150729177Y-95642575D01*
X150640821Y-95625000D01*
X153800000Y-95625000D01*
X154058312Y-95573619D01*
X154277297Y-95427297D01*
X154871268Y-94833326D01*
X155725000Y-94833326D01*
X155890827Y-94800341D01*
X156031408Y-94706408D01*
X156125341Y-94565827D01*
X156158326Y-94400000D01*
X156158326Y-92900000D01*
X156125341Y-92734173D01*
X156031408Y-92593592D01*
X155890827Y-92499659D01*
X155725000Y-92466674D01*
X154475000Y-92466674D01*
X154309173Y-92499659D01*
X154168592Y-92593592D01*
X154074659Y-92734173D01*
X154041674Y-92900000D01*
X154041674Y-93753732D01*
X153520406Y-94275000D01*
X153228000Y-94275000D01*
X153228000Y-94012250D01*
X153094750Y-93879000D01*
X152299000Y-93879000D01*
X152299000Y-93899000D01*
X151841000Y-93899000D01*
X151841000Y-93879000D01*
X151045250Y-93879000D01*
X150912000Y-94012250D01*
X150912000Y-94275000D01*
X149659721Y-94275000D01*
X149738000Y-94086021D01*
X149738000Y-93963250D01*
X149604750Y-93830000D01*
X148434000Y-93830000D01*
X148434000Y-93929000D01*
X147976000Y-93929000D01*
X147976000Y-93830000D01*
X146805250Y-93830000D01*
X146672000Y-93963250D01*
X146672000Y-94086021D01*
X146753145Y-94281920D01*
X146865036Y-94393812D01*
X146804659Y-94484173D01*
X146771674Y-94650000D01*
X146771674Y-95250000D01*
X146804659Y-95415827D01*
X146890969Y-95545000D01*
X146649594Y-95545000D01*
X146395000Y-95290406D01*
X146395000Y-93339594D01*
X146649594Y-93085000D01*
X146750279Y-93085000D01*
X146672000Y-93273979D01*
X146672000Y-93396750D01*
X146805250Y-93530000D01*
X147976000Y-93530000D01*
X147976000Y-93431000D01*
X148434000Y-93431000D01*
X148434000Y-93530000D01*
X149604750Y-93530000D01*
X149738000Y-93396750D01*
X149738000Y-93273979D01*
X149656855Y-93078080D01*
X149544964Y-92966188D01*
X149605341Y-92875827D01*
X149621621Y-92793980D01*
X150912000Y-92793980D01*
X150912000Y-93287750D01*
X151045250Y-93421000D01*
X151841000Y-93421000D01*
X151841000Y-92500250D01*
X152299000Y-92500250D01*
X152299000Y-93421000D01*
X153094750Y-93421000D01*
X153228000Y-93287750D01*
X153228000Y-92793980D01*
X153146856Y-92598080D01*
X152996920Y-92448145D01*
X152801021Y-92367000D01*
X152432250Y-92367000D01*
X152299000Y-92500250D01*
X151841000Y-92500250D01*
X151707750Y-92367000D01*
X151338979Y-92367000D01*
X151143080Y-92448145D01*
X150993144Y-92598080D01*
X150912000Y-92793980D01*
X149621621Y-92793980D01*
X149638326Y-92710000D01*
X149638326Y-92110000D01*
X149605341Y-91944173D01*
X149519031Y-91815000D01*
X151011674Y-91815000D01*
X151011674Y-91900000D01*
X151044659Y-92065827D01*
X151138592Y-92206408D01*
X151279173Y-92300341D01*
X151445000Y-92333326D01*
X152695000Y-92333326D01*
X152860827Y-92300341D01*
X153001408Y-92206408D01*
X153095341Y-92065827D01*
X153128326Y-91900000D01*
X153128326Y-90545000D01*
X153540406Y-90545000D01*
X154041674Y-91046268D01*
X154041674Y-91900000D01*
X154074659Y-92065827D01*
X154168592Y-92206408D01*
X154309173Y-92300341D01*
X154475000Y-92333326D01*
X155725000Y-92333326D01*
X155890827Y-92300341D01*
X156031408Y-92206408D01*
X156125341Y-92065827D01*
X156158326Y-91900000D01*
X156158326Y-90400000D01*
X156125341Y-90234173D01*
X156031408Y-90093592D01*
X155890827Y-89999659D01*
X155725000Y-89966674D01*
X154871268Y-89966674D01*
X154297297Y-89392703D01*
X154078312Y-89246381D01*
X153820000Y-89195000D01*
X149408753Y-89195000D01*
X149370827Y-89169659D01*
X149205000Y-89136674D01*
X147205000Y-89136674D01*
X147039173Y-89169659D01*
X146898592Y-89263592D01*
X146804659Y-89404173D01*
X146771674Y-89570000D01*
X146771674Y-90170000D01*
X146804659Y-90335827D01*
X146898592Y-90476408D01*
X146941383Y-90505000D01*
X146898592Y-90533592D01*
X146804659Y-90674173D01*
X146771674Y-90840000D01*
X146771674Y-91440000D01*
X146804659Y-91605827D01*
X146890969Y-91735000D01*
X146370000Y-91735000D01*
X146111688Y-91786381D01*
X145892703Y-91932703D01*
X145242703Y-92582703D01*
X145096381Y-92801688D01*
X145076826Y-92900000D01*
X145045000Y-93060000D01*
X145045000Y-95570000D01*
X145096381Y-95828312D01*
X145242703Y-96047297D01*
X145892703Y-96697297D01*
X146111688Y-96843619D01*
X146370000Y-96895000D01*
X146890969Y-96895000D01*
X146804659Y-97024173D01*
X146771674Y-97190000D01*
X146771674Y-97790000D01*
X146804659Y-97955827D01*
X146898592Y-98096408D01*
X146941383Y-98125000D01*
X146898592Y-98153592D01*
X146804659Y-98294173D01*
X146771674Y-98460000D01*
X146771674Y-99060000D01*
X146804659Y-99225827D01*
X146898592Y-99366408D01*
X146941383Y-99395000D01*
X146898592Y-99423592D01*
X146804659Y-99564173D01*
X146771674Y-99730000D01*
X146771674Y-100330000D01*
X146804659Y-100495827D01*
X146898592Y-100636408D01*
X146941383Y-100665000D01*
X146898592Y-100693592D01*
X146804659Y-100834173D01*
X146771674Y-101000000D01*
X146771674Y-101600000D01*
X146804659Y-101765827D01*
X146898592Y-101906408D01*
X146941383Y-101935000D01*
X146898592Y-101963592D01*
X146804659Y-102104173D01*
X146771674Y-102270000D01*
X146771674Y-102870000D01*
X146804659Y-103035827D01*
X146898592Y-103176408D01*
X146941383Y-103205000D01*
X146898592Y-103233592D01*
X146804659Y-103374173D01*
X146771674Y-103540000D01*
X146771674Y-104140000D01*
X146804659Y-104305827D01*
X146898592Y-104446408D01*
X146941383Y-104475000D01*
X146898592Y-104503592D01*
X146804659Y-104644173D01*
X146771674Y-104810000D01*
X146771674Y-105410000D01*
X146804659Y-105575827D01*
X146898592Y-105716408D01*
X146941383Y-105745000D01*
X146898592Y-105773592D01*
X146804659Y-105914173D01*
X146771674Y-106080000D01*
X146771674Y-106680000D01*
X146804659Y-106845827D01*
X146898592Y-106986408D01*
X147039173Y-107080341D01*
X147205000Y-107113326D01*
X149205000Y-107113326D01*
X149370827Y-107080341D01*
X149483583Y-107005000D01*
X156010000Y-107005000D01*
X156249177Y-106957425D01*
X156451942Y-106821942D01*
X158023884Y-105250000D01*
X160591674Y-105250000D01*
X160591674Y-105500000D01*
X160611565Y-105600000D01*
X160591674Y-105700000D01*
X160591674Y-106150000D01*
X160611565Y-106250000D01*
X160591674Y-106350000D01*
X160591674Y-106800000D01*
X160624659Y-106965827D01*
X160718592Y-107106408D01*
X160859173Y-107200341D01*
X161025000Y-107233326D01*
X162775000Y-107233326D01*
X162940827Y-107200341D01*
X163081408Y-107106408D01*
X163175341Y-106965827D01*
X163208326Y-106800000D01*
X163208326Y-106350000D01*
X163188435Y-106250000D01*
X163208326Y-106150000D01*
X163208326Y-105700000D01*
X163188435Y-105600000D01*
X163208326Y-105500000D01*
X163208326Y-105050000D01*
X163188435Y-104950000D01*
X163208326Y-104850000D01*
X163208326Y-104400000D01*
X163188435Y-104300000D01*
X163208326Y-104200000D01*
X163208326Y-103750000D01*
X163188435Y-103650000D01*
X163208326Y-103550000D01*
X163208326Y-103100000D01*
X163188435Y-103000000D01*
X163208326Y-102900000D01*
X163208326Y-102570449D01*
X163226855Y-102551920D01*
X163308000Y-102356021D01*
X163308000Y-102270750D01*
X163174750Y-102137500D01*
X163072291Y-102137500D01*
X162940827Y-102049659D01*
X162816858Y-102025000D01*
X162940827Y-102000341D01*
X163072291Y-101912500D01*
X163174750Y-101912500D01*
X163308000Y-101779250D01*
X163308000Y-101693979D01*
X163226855Y-101498080D01*
X163208326Y-101479551D01*
X163208326Y-101150000D01*
X163188435Y-101050000D01*
X163208326Y-100950000D01*
X163208326Y-100700000D01*
X163296116Y-100700000D01*
X165195000Y-102598884D01*
X165195000Y-106591116D01*
X160418058Y-111368058D01*
X160282575Y-111570823D01*
X160235000Y-111810000D01*
X160235000Y-115350000D01*
X160282575Y-115589177D01*
X160418058Y-115791942D01*
X161878058Y-117251942D01*
X162016674Y-117344562D01*
X162016674Y-117810000D01*
X162049659Y-117975827D01*
X162143592Y-118116408D01*
X162284173Y-118210341D01*
X162450000Y-118243326D01*
X164950000Y-118243326D01*
X165115827Y-118210341D01*
X165256408Y-118116408D01*
X165350341Y-117975827D01*
X165383326Y-117810000D01*
X165383326Y-117475000D01*
X167881674Y-117475000D01*
X167881674Y-117550000D01*
X167914659Y-117715827D01*
X168008592Y-117856408D01*
X168149173Y-117950341D01*
X168315000Y-117983326D01*
X169565000Y-117983326D01*
X169730827Y-117950341D01*
X169871408Y-117856408D01*
X169965341Y-117715827D01*
X169998326Y-117550000D01*
X169998326Y-117475000D01*
X172356674Y-117475000D01*
X172356674Y-117650000D01*
X172389659Y-117815827D01*
X172483592Y-117956408D01*
X172624173Y-118050341D01*
X172790000Y-118083326D01*
X174090000Y-118083326D01*
X174255827Y-118050341D01*
X174396408Y-117956408D01*
X174490341Y-117815827D01*
X174523326Y-117650000D01*
X174523326Y-117162250D01*
X176532000Y-117162250D01*
X176532000Y-117656020D01*
X176613144Y-117851920D01*
X176763080Y-118001855D01*
X176958979Y-118083000D01*
X177327750Y-118083000D01*
X177461000Y-117949750D01*
X177461000Y-117029000D01*
X177919000Y-117029000D01*
X177919000Y-117949750D01*
X178052250Y-118083000D01*
X178421021Y-118083000D01*
X178616920Y-118001855D01*
X178766856Y-117851920D01*
X178848000Y-117656020D01*
X178848000Y-117162250D01*
X178714750Y-117029000D01*
X177919000Y-117029000D01*
X177461000Y-117029000D01*
X176665250Y-117029000D01*
X176532000Y-117162250D01*
X174523326Y-117162250D01*
X174523326Y-116150000D01*
X174490341Y-115984173D01*
X174463485Y-115943980D01*
X176532000Y-115943980D01*
X176532000Y-116437750D01*
X176665250Y-116571000D01*
X177461000Y-116571000D01*
X177461000Y-115650250D01*
X177919000Y-115650250D01*
X177919000Y-116571000D01*
X178714750Y-116571000D01*
X178848000Y-116437750D01*
X178848000Y-115943980D01*
X178766856Y-115748080D01*
X178616920Y-115598145D01*
X178421021Y-115517000D01*
X178052250Y-115517000D01*
X177919000Y-115650250D01*
X177461000Y-115650250D01*
X177327750Y-115517000D01*
X176958979Y-115517000D01*
X176763080Y-115598145D01*
X176613144Y-115748080D01*
X176532000Y-115943980D01*
X174463485Y-115943980D01*
X174396408Y-115843592D01*
X174255827Y-115749659D01*
X174090000Y-115716674D01*
X172790000Y-115716674D01*
X172624173Y-115749659D01*
X172483592Y-115843592D01*
X172389659Y-115984173D01*
X172361647Y-116125000D01*
X169998326Y-116125000D01*
X169998326Y-116050000D01*
X169965341Y-115884173D01*
X169871408Y-115743592D01*
X169730827Y-115649659D01*
X169565000Y-115616674D01*
X168315000Y-115616674D01*
X168149173Y-115649659D01*
X168008592Y-115743592D01*
X167914659Y-115884173D01*
X167881674Y-116050000D01*
X167881674Y-116125000D01*
X165383326Y-116125000D01*
X165383326Y-115810000D01*
X165350341Y-115644173D01*
X165256408Y-115503592D01*
X165115827Y-115409659D01*
X164950000Y-115376674D01*
X162450000Y-115376674D01*
X162284173Y-115409659D01*
X162143592Y-115503592D01*
X162049659Y-115644173D01*
X162047734Y-115653850D01*
X161485000Y-115091116D01*
X161485000Y-114662250D01*
X167782000Y-114662250D01*
X167782000Y-115156020D01*
X167863144Y-115351920D01*
X168013080Y-115501855D01*
X168208979Y-115583000D01*
X168577750Y-115583000D01*
X168711000Y-115449750D01*
X168711000Y-114529000D01*
X169169000Y-114529000D01*
X169169000Y-115449750D01*
X169302250Y-115583000D01*
X169671021Y-115583000D01*
X169866920Y-115501855D01*
X170016856Y-115351920D01*
X170098000Y-115156020D01*
X170098000Y-114662250D01*
X169964750Y-114529000D01*
X169169000Y-114529000D01*
X168711000Y-114529000D01*
X167915250Y-114529000D01*
X167782000Y-114662250D01*
X161485000Y-114662250D01*
X161485000Y-113172250D01*
X161917000Y-113172250D01*
X161917000Y-113916020D01*
X161998144Y-114111920D01*
X162148080Y-114261855D01*
X162343979Y-114343000D01*
X163337750Y-114343000D01*
X163471000Y-114209750D01*
X163471000Y-113039000D01*
X163929000Y-113039000D01*
X163929000Y-114209750D01*
X164062250Y-114343000D01*
X165056021Y-114343000D01*
X165251920Y-114261855D01*
X165401856Y-114111920D01*
X165483000Y-113916020D01*
X165483000Y-113443980D01*
X167782000Y-113443980D01*
X167782000Y-113937750D01*
X167915250Y-114071000D01*
X168711000Y-114071000D01*
X168711000Y-113150250D01*
X169169000Y-113150250D01*
X169169000Y-114071000D01*
X169964750Y-114071000D01*
X170098000Y-113937750D01*
X170098000Y-113443980D01*
X170016856Y-113248080D01*
X169866920Y-113098145D01*
X169671021Y-113017000D01*
X169302250Y-113017000D01*
X169169000Y-113150250D01*
X168711000Y-113150250D01*
X168577750Y-113017000D01*
X168208979Y-113017000D01*
X168013080Y-113098145D01*
X167863144Y-113248080D01*
X167782000Y-113443980D01*
X165483000Y-113443980D01*
X165483000Y-113172250D01*
X165349750Y-113039000D01*
X163929000Y-113039000D01*
X163471000Y-113039000D01*
X162050250Y-113039000D01*
X161917000Y-113172250D01*
X161485000Y-113172250D01*
X161485000Y-112068884D01*
X161964444Y-111589440D01*
X161917000Y-111703980D01*
X161917000Y-112447750D01*
X162050250Y-112581000D01*
X163471000Y-112581000D01*
X163471000Y-111410250D01*
X163929000Y-111410250D01*
X163929000Y-112581000D01*
X165349750Y-112581000D01*
X165483000Y-112447750D01*
X165483000Y-111703980D01*
X165401856Y-111508080D01*
X165251920Y-111358145D01*
X165056021Y-111277000D01*
X164062250Y-111277000D01*
X163929000Y-111410250D01*
X163471000Y-111410250D01*
X163337750Y-111277000D01*
X162343979Y-111277000D01*
X162229440Y-111324444D01*
X166261942Y-107291942D01*
X166397425Y-107089178D01*
X166445000Y-106850000D01*
X166445000Y-104678884D01*
X167173884Y-103950000D01*
X167791674Y-103950000D01*
X167791674Y-104079551D01*
X167773145Y-104098080D01*
X167692000Y-104293979D01*
X167692000Y-104379250D01*
X167825250Y-104512500D01*
X167927709Y-104512500D01*
X168059173Y-104600341D01*
X168183142Y-104625000D01*
X168059173Y-104649659D01*
X167927709Y-104737500D01*
X167825250Y-104737500D01*
X167692000Y-104870750D01*
X167692000Y-104956021D01*
X167773145Y-105151920D01*
X167791674Y-105170449D01*
X167791674Y-105500000D01*
X167811565Y-105600000D01*
X167791674Y-105700000D01*
X167791674Y-106150000D01*
X167811565Y-106250000D01*
X167791674Y-106350000D01*
X167791674Y-106800000D01*
X167824659Y-106965827D01*
X167918592Y-107106408D01*
X168059173Y-107200341D01*
X168225000Y-107233326D01*
X169975000Y-107233326D01*
X170140827Y-107200341D01*
X170141337Y-107200000D01*
X182907064Y-107200000D01*
X182936082Y-107243429D01*
X183101563Y-107354000D01*
X182936082Y-107464571D01*
X182724728Y-107780884D01*
X182650511Y-108154000D01*
X182688819Y-108346587D01*
X177918732Y-113116674D01*
X177065000Y-113116674D01*
X176899173Y-113149659D01*
X176758592Y-113243592D01*
X176664659Y-113384173D01*
X176636647Y-113525000D01*
X174523326Y-113525000D01*
X174523326Y-113450000D01*
X174490341Y-113284173D01*
X174396408Y-113143592D01*
X174255827Y-113049659D01*
X174090000Y-113016674D01*
X172790000Y-113016674D01*
X172624173Y-113049659D01*
X172483592Y-113143592D01*
X172389659Y-113284173D01*
X172356674Y-113450000D01*
X172356674Y-114950000D01*
X172389659Y-115115827D01*
X172483592Y-115256408D01*
X172624173Y-115350341D01*
X172790000Y-115383326D01*
X174090000Y-115383326D01*
X174255827Y-115350341D01*
X174396408Y-115256408D01*
X174490341Y-115115827D01*
X174523326Y-114950000D01*
X174523326Y-114875000D01*
X176631674Y-114875000D01*
X176631674Y-115050000D01*
X176664659Y-115215827D01*
X176758592Y-115356408D01*
X176899173Y-115450341D01*
X177065000Y-115483326D01*
X178315000Y-115483326D01*
X178480827Y-115450341D01*
X178621408Y-115356408D01*
X178715341Y-115215827D01*
X178748326Y-115050000D01*
X178748326Y-114196268D01*
X182301051Y-110643543D01*
X187438706Y-110643543D01*
X187610143Y-111020001D01*
X188009180Y-111394091D01*
X188521000Y-111587000D01*
X189021000Y-111587000D01*
X189021000Y-110433000D01*
X187521410Y-110433000D01*
X187438706Y-110643543D01*
X182301051Y-110643543D01*
X183180137Y-109764457D01*
X187438706Y-109764457D01*
X187521410Y-109975000D01*
X189021000Y-109975000D01*
X189021000Y-108821000D01*
X188521000Y-108821000D01*
X188009180Y-109013909D01*
X187610143Y-109387999D01*
X187438706Y-109764457D01*
X183180137Y-109764457D01*
X183815594Y-109129000D01*
X184224489Y-109129000D01*
X184597605Y-109054783D01*
X184913918Y-108843429D01*
X185125272Y-108527116D01*
X185172704Y-108288659D01*
X185375511Y-108329000D01*
X185974489Y-108329000D01*
X186347605Y-108254783D01*
X186663918Y-108043429D01*
X186875272Y-107727116D01*
X186949489Y-107354000D01*
X186875272Y-106980884D01*
X186663918Y-106664571D01*
X186498437Y-106554000D01*
X186663918Y-106443429D01*
X186875272Y-106127116D01*
X186949489Y-105754000D01*
X186875272Y-105380884D01*
X186663918Y-105064571D01*
X186347605Y-104853217D01*
X185974489Y-104779000D01*
X185375511Y-104779000D01*
X185283000Y-104797401D01*
X185283000Y-104724998D01*
X185121730Y-104724998D01*
X185209656Y-104562232D01*
X185053049Y-104277364D01*
X184729177Y-104002422D01*
X184324743Y-103872349D01*
X184154000Y-103999402D01*
X184154000Y-104725000D01*
X184174000Y-104725000D01*
X184174000Y-105183000D01*
X184154000Y-105183000D01*
X184154000Y-105203000D01*
X183696000Y-105203000D01*
X183696000Y-105183000D01*
X182728271Y-105183000D01*
X182640344Y-105345768D01*
X182796951Y-105630636D01*
X183012427Y-105813559D01*
X182936082Y-105864571D01*
X182879000Y-105950000D01*
X178701341Y-105950000D01*
X178794848Y-105724812D01*
X178795151Y-105376715D01*
X178662221Y-105055000D01*
X178416295Y-104808644D01*
X178094812Y-104675152D01*
X177746715Y-104674849D01*
X177425000Y-104807779D01*
X177178644Y-105053705D01*
X177076373Y-105300000D01*
X176183717Y-105300000D01*
X176233000Y-105181021D01*
X176233000Y-104812250D01*
X176099750Y-104679000D01*
X175179000Y-104679000D01*
X175179000Y-104699000D01*
X174721000Y-104699000D01*
X174721000Y-104679000D01*
X173800250Y-104679000D01*
X173667000Y-104812250D01*
X173667000Y-105181021D01*
X173716283Y-105300000D01*
X173560803Y-105300000D01*
X173600341Y-105240827D01*
X173633326Y-105075000D01*
X173633326Y-104562232D01*
X182640344Y-104562232D01*
X182728271Y-104725000D01*
X183696000Y-104725000D01*
X183696000Y-103999402D01*
X183525257Y-103872349D01*
X183120823Y-104002422D01*
X182796951Y-104277364D01*
X182640344Y-104562232D01*
X173633326Y-104562232D01*
X173633326Y-103825000D01*
X173612238Y-103718979D01*
X173667000Y-103718979D01*
X173667000Y-104087750D01*
X173800250Y-104221000D01*
X174721000Y-104221000D01*
X174721000Y-103425250D01*
X175179000Y-103425250D01*
X175179000Y-104221000D01*
X176099750Y-104221000D01*
X176233000Y-104087750D01*
X176233000Y-103718979D01*
X176151855Y-103523080D01*
X176001920Y-103373144D01*
X175930457Y-103343543D01*
X187438706Y-103343543D01*
X187610143Y-103720001D01*
X188009180Y-104094091D01*
X188521000Y-104287000D01*
X189021000Y-104287000D01*
X189021000Y-103133000D01*
X187521410Y-103133000D01*
X187438706Y-103343543D01*
X175930457Y-103343543D01*
X175806020Y-103292000D01*
X175312250Y-103292000D01*
X175179000Y-103425250D01*
X174721000Y-103425250D01*
X174587750Y-103292000D01*
X174093980Y-103292000D01*
X173898080Y-103373144D01*
X173748145Y-103523080D01*
X173667000Y-103718979D01*
X173612238Y-103718979D01*
X173600341Y-103659173D01*
X173506408Y-103518592D01*
X173365827Y-103424659D01*
X173200000Y-103391674D01*
X171700000Y-103391674D01*
X171534173Y-103424659D01*
X171393592Y-103518592D01*
X171299659Y-103659173D01*
X171266674Y-103825000D01*
X171266674Y-104650000D01*
X170141337Y-104650000D01*
X170140827Y-104649659D01*
X170016858Y-104625000D01*
X170140827Y-104600341D01*
X170272291Y-104512500D01*
X170374750Y-104512500D01*
X170508000Y-104379250D01*
X170508000Y-104293979D01*
X170426855Y-104098080D01*
X170408326Y-104079551D01*
X170408326Y-103750000D01*
X170388435Y-103650000D01*
X170408326Y-103550000D01*
X170408326Y-103220449D01*
X170426855Y-103201920D01*
X170508000Y-103006021D01*
X170508000Y-102920750D01*
X170374750Y-102787500D01*
X170272291Y-102787500D01*
X170140827Y-102699659D01*
X170016858Y-102675000D01*
X170140827Y-102650341D01*
X170141337Y-102650000D01*
X179912561Y-102650000D01*
X180033705Y-102771356D01*
X180355188Y-102904848D01*
X180703285Y-102905151D01*
X181025000Y-102772221D01*
X181271356Y-102526295D01*
X181297033Y-102464457D01*
X187438706Y-102464457D01*
X187521410Y-102675000D01*
X189021000Y-102675000D01*
X189021000Y-101521000D01*
X188521000Y-101521000D01*
X188009180Y-101713909D01*
X187610143Y-102087999D01*
X187438706Y-102464457D01*
X181297033Y-102464457D01*
X181404848Y-102204812D01*
X181405148Y-101859917D01*
X181465188Y-101884848D01*
X181813285Y-101885151D01*
X182135000Y-101752221D01*
X182381356Y-101506295D01*
X182514848Y-101184812D01*
X182515151Y-100836715D01*
X182382221Y-100515000D01*
X182136295Y-100268644D01*
X181814812Y-100135152D01*
X181466715Y-100134849D01*
X181145000Y-100267779D01*
X181027574Y-100385000D01*
X171580000Y-100385000D01*
X171340823Y-100432575D01*
X171138058Y-100568058D01*
X170956116Y-100750000D01*
X170408326Y-100750000D01*
X170408326Y-100620449D01*
X170426855Y-100601920D01*
X170508000Y-100406021D01*
X170508000Y-100320750D01*
X170374750Y-100187500D01*
X170272291Y-100187500D01*
X170194937Y-100135814D01*
X170276920Y-100101856D01*
X170426855Y-99951920D01*
X170456218Y-99881032D01*
X170508000Y-99829250D01*
X170508000Y-99670750D01*
X170456218Y-99618968D01*
X170426855Y-99548080D01*
X170276920Y-99398144D01*
X170194937Y-99364186D01*
X170272291Y-99312500D01*
X170374750Y-99312500D01*
X170508000Y-99179250D01*
X170508000Y-99093979D01*
X170426855Y-98898080D01*
X170408326Y-98879551D01*
X170408326Y-98550000D01*
X170388435Y-98450000D01*
X170408326Y-98350000D01*
X170408326Y-97900000D01*
X170375341Y-97734173D01*
X170281408Y-97593592D01*
X170140827Y-97499659D01*
X170117405Y-97495000D01*
X172466674Y-97495000D01*
X172466674Y-98100000D01*
X172499659Y-98265827D01*
X172593592Y-98406408D01*
X172734173Y-98500341D01*
X172900000Y-98533326D01*
X174400000Y-98533326D01*
X174565827Y-98500341D01*
X174706408Y-98406408D01*
X174800341Y-98265827D01*
X174833326Y-98100000D01*
X174833326Y-96800000D01*
X175166674Y-96800000D01*
X175166674Y-98100000D01*
X175199659Y-98265827D01*
X175293592Y-98406408D01*
X175434173Y-98500341D01*
X175600000Y-98533326D01*
X177100000Y-98533326D01*
X177265827Y-98500341D01*
X177406408Y-98406408D01*
X177500341Y-98265827D01*
X177528353Y-98125000D01*
X179057412Y-98125000D01*
X179093705Y-98161356D01*
X179415188Y-98294848D01*
X179763285Y-98295151D01*
X180085000Y-98162221D01*
X180331356Y-97916295D01*
X180444508Y-97643795D01*
X185974805Y-97643795D01*
X186145715Y-98057429D01*
X186461907Y-98374172D01*
X186875242Y-98545804D01*
X187322795Y-98546195D01*
X187736429Y-98375285D01*
X188053172Y-98059093D01*
X188224804Y-97645758D01*
X188225195Y-97198205D01*
X188054285Y-96784571D01*
X187738093Y-96467828D01*
X187324758Y-96296196D01*
X186877205Y-96295805D01*
X186463571Y-96466715D01*
X186146828Y-96782907D01*
X185975196Y-97196242D01*
X185974805Y-97643795D01*
X180444508Y-97643795D01*
X180464848Y-97594812D01*
X180465151Y-97246715D01*
X180332221Y-96925000D01*
X180086295Y-96678644D01*
X179764812Y-96545152D01*
X179416715Y-96544849D01*
X179095000Y-96677779D01*
X178997609Y-96775000D01*
X177528353Y-96775000D01*
X177500341Y-96634173D01*
X177406408Y-96493592D01*
X177265827Y-96399659D01*
X177100000Y-96366674D01*
X175600000Y-96366674D01*
X175434173Y-96399659D01*
X175293592Y-96493592D01*
X175199659Y-96634173D01*
X175166674Y-96800000D01*
X174833326Y-96800000D01*
X174800341Y-96634173D01*
X174706408Y-96493592D01*
X174565827Y-96399659D01*
X174400000Y-96366674D01*
X174325000Y-96366674D01*
X174325000Y-95103795D01*
X185974805Y-95103795D01*
X186145715Y-95517429D01*
X186461907Y-95834172D01*
X186875242Y-96005804D01*
X187322795Y-96006195D01*
X187736429Y-95835285D01*
X188053172Y-95519093D01*
X188224804Y-95105758D01*
X188225195Y-94658205D01*
X188054285Y-94244571D01*
X187738093Y-93927828D01*
X187324758Y-93756196D01*
X186877205Y-93755805D01*
X186463571Y-93926715D01*
X186146828Y-94242907D01*
X185975196Y-94656242D01*
X185974805Y-95103795D01*
X174325000Y-95103795D01*
X174325000Y-89933326D01*
X174400000Y-89933326D01*
X174565827Y-89900341D01*
X174706408Y-89806408D01*
X174800341Y-89665827D01*
X174833326Y-89500000D01*
X174833326Y-88200000D01*
X175166674Y-88200000D01*
X175166674Y-89500000D01*
X175199659Y-89665827D01*
X175293592Y-89806408D01*
X175434173Y-89900341D01*
X175600000Y-89933326D01*
X177100000Y-89933326D01*
X177265827Y-89900341D01*
X177406408Y-89806408D01*
X177500341Y-89665827D01*
X177528353Y-89525000D01*
X178907500Y-89525000D01*
X178993705Y-89611356D01*
X179315188Y-89744848D01*
X179663285Y-89745151D01*
X179985000Y-89612221D01*
X180231356Y-89366295D01*
X180345754Y-89090795D01*
X185974805Y-89090795D01*
X186145715Y-89504429D01*
X186461907Y-89821172D01*
X186875242Y-89992804D01*
X187322795Y-89993195D01*
X187736429Y-89822285D01*
X188053172Y-89506093D01*
X188224804Y-89092758D01*
X188225195Y-88645205D01*
X188054285Y-88231571D01*
X187738093Y-87914828D01*
X187324758Y-87743196D01*
X186877205Y-87742805D01*
X186463571Y-87913715D01*
X186146828Y-88229907D01*
X185975196Y-88643242D01*
X185974805Y-89090795D01*
X180345754Y-89090795D01*
X180364848Y-89044812D01*
X180365151Y-88696715D01*
X180232221Y-88375000D01*
X179986295Y-88128644D01*
X179664812Y-87995152D01*
X179316715Y-87994849D01*
X178995000Y-88127779D01*
X178947696Y-88175000D01*
X177528353Y-88175000D01*
X177500341Y-88034173D01*
X177406408Y-87893592D01*
X177265827Y-87799659D01*
X177100000Y-87766674D01*
X175600000Y-87766674D01*
X175434173Y-87799659D01*
X175293592Y-87893592D01*
X175199659Y-88034173D01*
X175166674Y-88200000D01*
X174833326Y-88200000D01*
X174800341Y-88034173D01*
X174706408Y-87893592D01*
X174565827Y-87799659D01*
X174400000Y-87766674D01*
X172900000Y-87766674D01*
X172734173Y-87799659D01*
X172593592Y-87893592D01*
X172499659Y-88034173D01*
X172466674Y-88200000D01*
X172466674Y-89500000D01*
X172499659Y-89665827D01*
X172593592Y-89806408D01*
X172734173Y-89900341D01*
X172900000Y-89933326D01*
X172975000Y-89933326D01*
X172975000Y-96245000D01*
X167130005Y-96245000D01*
X167130000Y-96244999D01*
X166890823Y-96292575D01*
X166688058Y-96428058D01*
X165378058Y-97738058D01*
X165242575Y-97940823D01*
X165195000Y-98180000D01*
X165195000Y-100831116D01*
X163996942Y-99633058D01*
X163794177Y-99497575D01*
X163555000Y-99450000D01*
X163208326Y-99450000D01*
X163208326Y-99200000D01*
X163188435Y-99100000D01*
X163208326Y-99000000D01*
X163208326Y-98550000D01*
X163188435Y-98450000D01*
X163208326Y-98350000D01*
X163208326Y-97900000D01*
X163175341Y-97734173D01*
X163081408Y-97593592D01*
X162940827Y-97499659D01*
X162775000Y-97466674D01*
X161025000Y-97466674D01*
X160859173Y-97499659D01*
X160858663Y-97500000D01*
X160853883Y-97500000D01*
X159995000Y-96641116D01*
X159995000Y-87010000D01*
X159947425Y-86770823D01*
X159947425Y-86770822D01*
X159893158Y-86689606D01*
X159811942Y-86568058D01*
X159811939Y-86568056D01*
X159794679Y-86550795D01*
X185974805Y-86550795D01*
X186145715Y-86964429D01*
X186461907Y-87281172D01*
X186875242Y-87452804D01*
X187322795Y-87453195D01*
X187736429Y-87282285D01*
X188053172Y-86966093D01*
X188224804Y-86552758D01*
X188225195Y-86105205D01*
X188054285Y-85691571D01*
X187738093Y-85374828D01*
X187324758Y-85203196D01*
X186877205Y-85202805D01*
X186463571Y-85373715D01*
X186146828Y-85689907D01*
X185975196Y-86103242D01*
X185974805Y-86550795D01*
X159794679Y-86550795D01*
X158011942Y-84768058D01*
X157809177Y-84632575D01*
X157570000Y-84585000D01*
X143230005Y-84585000D01*
X143230000Y-84584999D01*
X142990823Y-84632575D01*
X142788058Y-84768058D01*
X142788056Y-84768061D01*
X141048058Y-86508058D01*
X140912575Y-86710823D01*
X140865000Y-86950000D01*
X140865000Y-102471116D01*
X140121116Y-103215000D01*
X140083583Y-103215000D01*
X140068617Y-103205000D01*
X140111408Y-103176408D01*
X140205341Y-103035827D01*
X140238326Y-102870000D01*
X140238326Y-102270000D01*
X140205341Y-102104173D01*
X140111408Y-101963592D01*
X140068617Y-101935000D01*
X140111408Y-101906408D01*
X140205341Y-101765827D01*
X140238326Y-101600000D01*
X140238326Y-101000000D01*
X140205341Y-100834173D01*
X140111408Y-100693592D01*
X140068617Y-100665000D01*
X140111408Y-100636408D01*
X140205341Y-100495827D01*
X140238326Y-100330000D01*
X140238326Y-99730000D01*
X140205341Y-99564173D01*
X140111408Y-99423592D01*
X140068617Y-99395000D01*
X140111408Y-99366408D01*
X140205341Y-99225827D01*
X140238326Y-99060000D01*
X140238326Y-98460000D01*
X140205341Y-98294173D01*
X140111408Y-98153592D01*
X140068617Y-98125000D01*
X140111408Y-98096408D01*
X140205341Y-97955827D01*
X140238326Y-97790000D01*
X140238326Y-97190000D01*
X140205341Y-97024173D01*
X140111408Y-96883592D01*
X140068617Y-96855000D01*
X140111408Y-96826408D01*
X140205341Y-96685827D01*
X140238326Y-96520000D01*
X140238326Y-95920000D01*
X140205341Y-95754173D01*
X140111408Y-95613592D01*
X140068617Y-95585000D01*
X140111408Y-95556408D01*
X140205341Y-95415827D01*
X140238326Y-95250000D01*
X140238326Y-94650000D01*
X140205341Y-94484173D01*
X140111408Y-94343592D01*
X140068617Y-94315000D01*
X140111408Y-94286408D01*
X140205341Y-94145827D01*
X140238326Y-93980000D01*
X140238326Y-93380000D01*
X140205341Y-93214173D01*
X140111408Y-93073592D01*
X140068617Y-93045000D01*
X140111408Y-93016408D01*
X140205341Y-92875827D01*
X140238326Y-92710000D01*
X140238326Y-92110000D01*
X140205341Y-91944173D01*
X140111408Y-91803592D01*
X140068617Y-91775000D01*
X140111408Y-91746408D01*
X140205341Y-91605827D01*
X140238326Y-91440000D01*
X140238326Y-90840000D01*
X140205341Y-90674173D01*
X140111408Y-90533592D01*
X140068617Y-90505000D01*
X140111408Y-90476408D01*
X140205341Y-90335827D01*
X140238326Y-90170000D01*
X140238326Y-89570000D01*
X140205341Y-89404173D01*
X140111408Y-89263592D01*
X139970827Y-89169659D01*
X139805000Y-89136674D01*
X138091268Y-89136674D01*
X136967297Y-88012703D01*
X136748312Y-87866381D01*
X136490000Y-87815000D01*
X134470000Y-87815000D01*
X134211689Y-87866381D01*
X134032457Y-87986140D01*
X133992703Y-88012703D01*
X133073732Y-88931674D01*
X132220000Y-88931674D01*
X132054173Y-88964659D01*
X131913592Y-89058592D01*
X131819659Y-89199173D01*
X131786674Y-89365000D01*
X131786674Y-90615000D01*
X131819659Y-90780827D01*
X131913592Y-90921408D01*
X132054173Y-91015341D01*
X132220000Y-91048326D01*
X133720000Y-91048326D01*
X133885827Y-91015341D01*
X134026408Y-90921408D01*
X134120341Y-90780827D01*
X134153326Y-90615000D01*
X134153326Y-89761268D01*
X134286674Y-89627920D01*
X134286674Y-90615000D01*
X134319659Y-90780827D01*
X134413592Y-90921408D01*
X134554173Y-91015341D01*
X134720000Y-91048326D01*
X135573732Y-91048326D01*
X135857080Y-91331674D01*
X134720000Y-91331674D01*
X134554173Y-91364659D01*
X134413592Y-91458592D01*
X134319659Y-91599173D01*
X134286674Y-91765000D01*
X134286674Y-93005000D01*
X134253000Y-93005000D01*
X134253000Y-92752250D01*
X134119750Y-92619000D01*
X133199000Y-92619000D01*
X133199000Y-92639000D01*
X132741000Y-92639000D01*
X132741000Y-92619000D01*
X131820250Y-92619000D01*
X131687000Y-92752250D01*
X131687000Y-93005000D01*
X131020000Y-93005000D01*
X130761688Y-93056381D01*
X130542703Y-93202703D01*
X129190406Y-94555000D01*
X124412535Y-94555000D01*
X124346295Y-94488644D01*
X124024812Y-94355152D01*
X123676715Y-94354849D01*
X123355000Y-94487779D01*
X123108644Y-94733705D01*
X122975152Y-95055188D01*
X122974849Y-95403285D01*
X123107779Y-95725000D01*
X123353705Y-95971356D01*
X123675188Y-96104848D01*
X124023285Y-96105151D01*
X124345000Y-95972221D01*
X124412339Y-95905000D01*
X129470000Y-95905000D01*
X129728312Y-95853619D01*
X129768922Y-95826484D01*
X128990475Y-96604931D01*
X128896715Y-96604849D01*
X128575000Y-96737779D01*
X128328644Y-96983705D01*
X128195152Y-97305188D01*
X128194849Y-97653285D01*
X128327779Y-97975000D01*
X128437587Y-98085000D01*
X126892535Y-98085000D01*
X126826295Y-98018644D01*
X126504812Y-97885152D01*
X126156715Y-97884849D01*
X125835000Y-98017779D01*
X125588644Y-98263705D01*
X125550400Y-98355806D01*
X124895069Y-97700475D01*
X124895151Y-97606715D01*
X124762221Y-97285000D01*
X124516295Y-97038644D01*
X124194812Y-96905152D01*
X123846715Y-96904849D01*
X123525000Y-97037779D01*
X123278644Y-97283705D01*
X123145152Y-97605188D01*
X123144849Y-97953285D01*
X123277779Y-98275000D01*
X123523705Y-98521356D01*
X123845188Y-98654848D01*
X123940337Y-98654931D01*
X125792703Y-100507297D01*
X125968858Y-100625000D01*
X124597915Y-100625000D01*
X124482221Y-100345000D01*
X124236295Y-100098644D01*
X123914812Y-99965152D01*
X123566715Y-99964849D01*
X123245000Y-100097779D01*
X122998644Y-100343705D01*
X122865152Y-100665188D01*
X122864849Y-101013285D01*
X122997779Y-101335000D01*
X123243705Y-101581356D01*
X123565188Y-101714848D01*
X123660337Y-101714931D01*
X123722703Y-101777297D01*
X123898857Y-101895000D01*
X122809594Y-101895000D01*
X122185000Y-101270406D01*
X122185000Y-99320000D01*
X122133619Y-99061689D01*
X122133619Y-99061688D01*
X121987297Y-98842703D01*
X121065069Y-97920475D01*
X121065151Y-97826715D01*
X120932221Y-97505000D01*
X120686295Y-97258644D01*
X120364812Y-97125152D01*
X120016715Y-97124849D01*
X119695000Y-97257779D01*
X119448644Y-97503705D01*
X119315152Y-97825188D01*
X119314849Y-98173285D01*
X116594849Y-98173285D01*
X116595212Y-97757401D01*
X116409110Y-97307000D01*
X116064813Y-96962101D01*
X115614737Y-96775213D01*
X115127401Y-96774788D01*
X114677000Y-96960890D01*
X114332101Y-97305187D01*
X114145213Y-97755263D01*
X114144788Y-98242599D01*
X113273145Y-98242599D01*
X113074737Y-98160213D01*
X112587401Y-98159788D01*
X112137000Y-98345890D01*
X111792101Y-98690187D01*
X111605213Y-99140263D01*
X111604788Y-99627599D01*
X105000000Y-99627599D01*
X105000000Y-96857599D01*
X111604788Y-96857599D01*
X111790890Y-97308000D01*
X112135187Y-97652899D01*
X112585263Y-97839787D01*
X113072599Y-97840212D01*
X113523000Y-97654110D01*
X113867899Y-97309813D01*
X114054787Y-96859737D01*
X114055212Y-96372401D01*
X113869110Y-95922000D01*
X113524813Y-95577101D01*
X113273145Y-95472599D01*
X114144788Y-95472599D01*
X114330890Y-95923000D01*
X114675187Y-96267899D01*
X115125263Y-96454787D01*
X115612599Y-96455212D01*
X116063000Y-96269110D01*
X116407899Y-95924813D01*
X116594787Y-95474737D01*
X116595212Y-94987401D01*
X116409110Y-94537000D01*
X116064813Y-94192101D01*
X115614737Y-94005213D01*
X115127401Y-94004788D01*
X114677000Y-94190890D01*
X114332101Y-94535187D01*
X114145213Y-94985263D01*
X114144788Y-95472599D01*
X113273145Y-95472599D01*
X113074737Y-95390213D01*
X112587401Y-95389788D01*
X112137000Y-95575890D01*
X111792101Y-95920187D01*
X111605213Y-96370263D01*
X111604788Y-96857599D01*
X105000000Y-96857599D01*
X105000000Y-94087599D01*
X111604788Y-94087599D01*
X111790890Y-94538000D01*
X112135187Y-94882899D01*
X112585263Y-95069787D01*
X113072599Y-95070212D01*
X113523000Y-94884110D01*
X113867899Y-94539813D01*
X114054787Y-94089737D01*
X114055212Y-93602401D01*
X113869110Y-93152000D01*
X113524813Y-92807101D01*
X113273145Y-92702599D01*
X114144788Y-92702599D01*
X114330890Y-93153000D01*
X114675187Y-93497899D01*
X115125263Y-93684787D01*
X115612599Y-93685212D01*
X116063000Y-93499110D01*
X116407899Y-93154813D01*
X116594787Y-92704737D01*
X116595212Y-92217401D01*
X116409110Y-91767000D01*
X116301278Y-91658979D01*
X131687000Y-91658979D01*
X131687000Y-92027750D01*
X131820250Y-92161000D01*
X132741000Y-92161000D01*
X132741000Y-91365250D01*
X133199000Y-91365250D01*
X133199000Y-92161000D01*
X134119750Y-92161000D01*
X134253000Y-92027750D01*
X134253000Y-91658979D01*
X134171855Y-91463080D01*
X134021920Y-91313144D01*
X133826020Y-91232000D01*
X133332250Y-91232000D01*
X133199000Y-91365250D01*
X132741000Y-91365250D01*
X132607750Y-91232000D01*
X132113980Y-91232000D01*
X131918080Y-91313144D01*
X131768145Y-91463080D01*
X131687000Y-91658979D01*
X116301278Y-91658979D01*
X116064813Y-91422101D01*
X115614737Y-91235213D01*
X115127401Y-91234788D01*
X114677000Y-91420890D01*
X114332101Y-91765187D01*
X114145213Y-92215263D01*
X114144788Y-92702599D01*
X113273145Y-92702599D01*
X113074737Y-92620213D01*
X112587401Y-92619788D01*
X112137000Y-92805890D01*
X111792101Y-93150187D01*
X111605213Y-93600263D01*
X111604788Y-94087599D01*
X105000000Y-94087599D01*
X105000000Y-86084266D01*
X111174494Y-86084266D01*
X111618860Y-87159715D01*
X112440957Y-87983248D01*
X113515629Y-88429491D01*
X114679266Y-88430506D01*
X115754715Y-87986140D01*
X116578248Y-87164043D01*
X117024491Y-86089371D01*
X117025506Y-84925734D01*
X116581140Y-83850285D01*
X115759043Y-83026752D01*
X114684371Y-82580509D01*
X113520734Y-82579494D01*
X112445285Y-83023860D01*
X111621752Y-83845957D01*
X111175509Y-84920629D01*
X111174494Y-86084266D01*
X105000000Y-86084266D01*
X105000000Y-77525246D01*
X183044580Y-77525246D01*
X183412986Y-78416858D01*
X184094554Y-79099617D01*
X184985521Y-79469579D01*
X185950246Y-79470420D01*
X186841858Y-79102014D01*
X187524617Y-78420446D01*
X187894579Y-77529479D01*
X187895420Y-76564754D01*
X187527014Y-75673142D01*
X186845446Y-74990383D01*
X185954479Y-74620421D01*
X184989754Y-74619580D01*
X184098142Y-74987986D01*
X183415383Y-75669554D01*
X183045421Y-76560521D01*
X183044580Y-77525246D01*
X105000000Y-77525246D01*
X105000000Y-74350246D01*
X117004580Y-74350246D01*
X117372986Y-75241858D01*
X118054554Y-75924617D01*
X118945521Y-76294579D01*
X119910246Y-76295420D01*
X120801858Y-75927014D01*
X121484617Y-75245446D01*
X121854579Y-74354479D01*
X121855420Y-73389754D01*
X121487014Y-72498142D01*
X120805446Y-71815383D01*
X119914479Y-71445421D01*
X118949754Y-71444580D01*
X118058142Y-71812986D01*
X117375383Y-72494554D01*
X117005421Y-73385521D01*
X117004580Y-74350246D01*
X105000000Y-74350246D01*
X105000000Y-71000000D01*
X114000000Y-71000000D01*
X114191342Y-70961940D01*
X114353553Y-70853553D01*
X114461940Y-70691342D01*
X114500000Y-70500000D01*
X114500000Y-66096461D01*
X177254775Y-66096461D01*
X177451512Y-66572600D01*
X177815483Y-66937208D01*
X178291278Y-67134775D01*
X178806461Y-67135225D01*
X179282600Y-66938488D01*
X179647208Y-66574517D01*
X179844775Y-66098722D01*
X179845225Y-65583539D01*
X179648488Y-65107400D01*
X179284517Y-64742792D01*
X178808722Y-64545225D01*
X178293539Y-64544775D01*
X177817400Y-64741512D01*
X177452792Y-65105483D01*
X177255225Y-65581278D01*
X177254775Y-66096461D01*
X114500000Y-66096461D01*
X114500000Y-63100000D01*
X181500000Y-63100000D01*
X181500000Y-70500000D01*
X181500000Y-70500000D01*
G37*
X181500000Y-70500000D02*
X181538060Y-70691342D01*
X181646447Y-70853553D01*
X181808658Y-70961940D01*
X182000000Y-71000000D01*
X191000000Y-71000000D01*
X191000000Y-102329862D01*
X190889857Y-102087999D01*
X190490820Y-101713909D01*
X189979000Y-101521000D01*
X189479000Y-101521000D01*
X189479000Y-102675000D01*
X189499000Y-102675000D01*
X189499000Y-103133000D01*
X189479000Y-103133000D01*
X189479000Y-104287000D01*
X189979000Y-104287000D01*
X190490820Y-104094091D01*
X190889857Y-103720001D01*
X191000000Y-103478138D01*
X191000000Y-109629862D01*
X190889857Y-109387999D01*
X190490820Y-109013909D01*
X189979000Y-108821000D01*
X189479000Y-108821000D01*
X189479000Y-109975000D01*
X189499000Y-109975000D01*
X189499000Y-110433000D01*
X189479000Y-110433000D01*
X189479000Y-111587000D01*
X189979000Y-111587000D01*
X190490820Y-111394091D01*
X190889857Y-111020001D01*
X191000000Y-110778138D01*
X191000000Y-125000000D01*
X182000000Y-125000000D01*
X181808658Y-125038060D01*
X181646447Y-125146447D01*
X181538060Y-125308658D01*
X181500000Y-125500000D01*
X181500000Y-132900000D01*
X114500000Y-132900000D01*
X114500000Y-130586461D01*
X116544775Y-130586461D01*
X116741512Y-131062600D01*
X117105483Y-131427208D01*
X117581278Y-131624775D01*
X118096461Y-131625225D01*
X118572600Y-131428488D01*
X118937208Y-131064517D01*
X119134775Y-130588722D01*
X119135225Y-130073539D01*
X118938488Y-129597400D01*
X118574517Y-129232792D01*
X118098722Y-129035225D01*
X117583539Y-129034775D01*
X117107400Y-129231512D01*
X116742792Y-129595483D01*
X116545225Y-130071278D01*
X116544775Y-130586461D01*
X114500000Y-130586461D01*
X114500000Y-125500000D01*
X114461940Y-125308658D01*
X114353553Y-125146447D01*
X114191342Y-125038060D01*
X114000000Y-125000000D01*
X105000000Y-125000000D01*
X105000000Y-122610246D01*
X117004580Y-122610246D01*
X117372986Y-123501858D01*
X118054554Y-124184617D01*
X118945521Y-124554579D01*
X119910246Y-124555420D01*
X120801858Y-124187014D01*
X121484617Y-123505446D01*
X121854579Y-122614479D01*
X121855420Y-121649754D01*
X121487014Y-120758142D01*
X120805446Y-120075383D01*
X119914479Y-119705421D01*
X118949754Y-119704580D01*
X118058142Y-120072986D01*
X117375383Y-120754554D01*
X117005421Y-121645521D01*
X117004580Y-122610246D01*
X105000000Y-122610246D01*
X105000000Y-111074266D01*
X111174494Y-111074266D01*
X111618860Y-112149715D01*
X112440957Y-112973248D01*
X113515629Y-113419491D01*
X114679266Y-113420506D01*
X115754715Y-112976140D01*
X116578248Y-112154043D01*
X116912115Y-111350000D01*
X126835000Y-111350000D01*
X126835000Y-129920000D01*
X126836903Y-129929567D01*
X126842322Y-129937678D01*
X126850433Y-129943097D01*
X126860000Y-129945000D01*
X142520000Y-129945000D01*
X142529567Y-129943097D01*
X142537678Y-129937678D01*
X142543097Y-129929567D01*
X142545000Y-129920000D01*
X142545000Y-122090000D01*
X143355000Y-122090000D01*
X143355000Y-129890000D01*
X143356903Y-129899567D01*
X143362322Y-129907678D01*
X143370433Y-129913097D01*
X143380000Y-129915000D01*
X174580000Y-129915000D01*
X174589567Y-129913097D01*
X174597678Y-129907678D01*
X174603097Y-129899567D01*
X174605000Y-129890000D01*
X174605000Y-122090000D01*
X174603097Y-122080433D01*
X174597678Y-122072322D01*
X174589567Y-122066903D01*
X174580000Y-122065000D01*
X143380000Y-122065000D01*
X143370433Y-122066903D01*
X143362322Y-122072322D01*
X143356903Y-122080433D01*
X143355000Y-122090000D01*
X142545000Y-122090000D01*
X142545000Y-111520000D01*
X143315000Y-111520000D01*
X143315000Y-121020000D01*
X143316903Y-121029567D01*
X143322322Y-121037678D01*
X143330433Y-121043097D01*
X143340000Y-121045000D01*
X157850000Y-121045000D01*
X157859567Y-121043097D01*
X157867678Y-121037678D01*
X157873097Y-121029567D01*
X157875000Y-121020000D01*
X157875000Y-119435246D01*
X183044580Y-119435246D01*
X183412986Y-120326858D01*
X184094554Y-121009617D01*
X184985521Y-121379579D01*
X185950246Y-121380420D01*
X186841858Y-121012014D01*
X187524617Y-120330446D01*
X187894579Y-119439479D01*
X187895420Y-118474754D01*
X187527014Y-117583142D01*
X186845446Y-116900383D01*
X185954479Y-116530421D01*
X184989754Y-116529580D01*
X184098142Y-116897986D01*
X183415383Y-117579554D01*
X183045421Y-118470521D01*
X183044580Y-119435246D01*
X157875000Y-119435246D01*
X157875000Y-111520000D01*
X157873097Y-111510433D01*
X157867678Y-111502322D01*
X157859567Y-111496903D01*
X157850000Y-111495000D01*
X143340000Y-111495000D01*
X143330433Y-111496903D01*
X143322322Y-111502322D01*
X143316903Y-111510433D01*
X143315000Y-111520000D01*
X142545000Y-111520000D01*
X142545000Y-111350000D01*
X142543097Y-111340433D01*
X142537678Y-111332322D01*
X142529567Y-111326903D01*
X142520000Y-111325000D01*
X126860000Y-111325000D01*
X126850433Y-111326903D01*
X126842322Y-111332322D01*
X126836903Y-111340433D01*
X126835000Y-111350000D01*
X116912115Y-111350000D01*
X117024491Y-111079371D01*
X117025506Y-109915734D01*
X116581140Y-108840285D01*
X115759043Y-108016752D01*
X114684371Y-107570509D01*
X113520734Y-107569494D01*
X112445285Y-108013860D01*
X111621752Y-108835957D01*
X111175509Y-109910629D01*
X111174494Y-111074266D01*
X105000000Y-111074266D01*
X105000000Y-104553486D01*
X114680369Y-104553486D01*
X114767818Y-104758430D01*
X115279929Y-104896128D01*
X115805752Y-104827368D01*
X115972182Y-104758430D01*
X116059631Y-104553486D01*
X115370000Y-103863855D01*
X114680369Y-104553486D01*
X105000000Y-104553486D01*
X105000000Y-103449929D01*
X114013872Y-103449929D01*
X114082632Y-103975752D01*
X114151570Y-104142182D01*
X114356514Y-104229631D01*
X115046145Y-103540000D01*
X115693855Y-103540000D01*
X116383486Y-104229631D01*
X116588430Y-104142182D01*
X116726128Y-103630071D01*
X116657368Y-103104248D01*
X116588430Y-102937818D01*
X116383486Y-102850369D01*
X115693855Y-103540000D01*
X115046145Y-103540000D01*
X114356514Y-102850369D01*
X114151570Y-102937818D01*
X114013872Y-103449929D01*
X105000000Y-103449929D01*
X105000000Y-102397599D01*
X111604788Y-102397599D01*
X111790890Y-102848000D01*
X112135187Y-103192899D01*
X112585263Y-103379787D01*
X113072599Y-103380212D01*
X113523000Y-103194110D01*
X113867899Y-102849813D01*
X114002144Y-102526514D01*
X114680369Y-102526514D01*
X115370000Y-103216145D01*
X116059631Y-102526514D01*
X115972182Y-102321570D01*
X115460071Y-102183872D01*
X114934248Y-102252632D01*
X114767818Y-102321570D01*
X114680369Y-102526514D01*
X114002144Y-102526514D01*
X114054787Y-102399737D01*
X114055212Y-101912401D01*
X113869110Y-101462000D01*
X113524813Y-101117101D01*
X113273145Y-101012599D01*
X114144788Y-101012599D01*
X114330890Y-101463000D01*
X114675187Y-101807899D01*
X115125263Y-101994787D01*
X115612599Y-101995212D01*
X116063000Y-101809110D01*
X116407899Y-101464813D01*
X116594787Y-101014737D01*
X116595212Y-100527401D01*
X116409110Y-100077000D01*
X116064813Y-99732101D01*
X115614737Y-99545213D01*
X115127401Y-99544788D01*
X114677000Y-99730890D01*
X114332101Y-100075187D01*
X114145213Y-100525263D01*
X114144788Y-101012599D01*
X113273145Y-101012599D01*
X113074737Y-100930213D01*
X112587401Y-100929788D01*
X112137000Y-101115890D01*
X111792101Y-101460187D01*
X111605213Y-101910263D01*
X111604788Y-102397599D01*
X105000000Y-102397599D01*
X105000000Y-99627599D01*
X111604788Y-99627599D01*
X111790890Y-100078000D01*
X112135187Y-100422899D01*
X112585263Y-100609787D01*
X113072599Y-100610212D01*
X113523000Y-100424110D01*
X113867899Y-100079813D01*
X114054787Y-99629737D01*
X114055212Y-99142401D01*
X113869110Y-98692000D01*
X113524813Y-98347101D01*
X113273145Y-98242599D01*
X114144788Y-98242599D01*
X114330890Y-98693000D01*
X114675187Y-99037899D01*
X115125263Y-99224787D01*
X115612599Y-99225212D01*
X116063000Y-99039110D01*
X116407899Y-98694813D01*
X116594787Y-98244737D01*
X116594849Y-98173285D01*
X119314849Y-98173285D01*
X119447779Y-98495000D01*
X119693705Y-98741356D01*
X120015188Y-98874848D01*
X120110337Y-98874931D01*
X120835000Y-99599594D01*
X120835000Y-101550000D01*
X120886381Y-101808312D01*
X121032703Y-102027297D01*
X122052703Y-103047297D01*
X122271688Y-103193619D01*
X122530000Y-103245000D01*
X137490969Y-103245000D01*
X137404659Y-103374173D01*
X137371674Y-103540000D01*
X137371674Y-104140000D01*
X137404659Y-104305827D01*
X137498592Y-104446408D01*
X137541383Y-104475000D01*
X137498592Y-104503592D01*
X137404659Y-104644173D01*
X137371674Y-104810000D01*
X137371674Y-105410000D01*
X137404659Y-105575827D01*
X137498592Y-105716408D01*
X137541383Y-105745000D01*
X137498592Y-105773592D01*
X137404659Y-105914173D01*
X137371674Y-106080000D01*
X137371674Y-106680000D01*
X137404659Y-106845827D01*
X137498592Y-106986408D01*
X137639173Y-107080341D01*
X137805000Y-107113326D01*
X139805000Y-107113326D01*
X139970827Y-107080341D01*
X140083583Y-107005000D01*
X141500000Y-107005000D01*
X141739177Y-106957425D01*
X141941942Y-106821942D01*
X144331939Y-104431944D01*
X144331942Y-104431942D01*
X144467122Y-104229631D01*
X144467425Y-104229178D01*
X144515000Y-103990000D01*
X144515000Y-88858884D01*
X145528884Y-87845000D01*
X156051116Y-87845000D01*
X157105000Y-88898884D01*
X157105000Y-97830000D01*
X157152575Y-98069177D01*
X157288058Y-98271942D01*
X158466117Y-99450000D01*
X154603884Y-99450000D01*
X150931942Y-95778058D01*
X150729177Y-95642575D01*
X150640821Y-95625000D01*
X153800000Y-95625000D01*
X154058312Y-95573619D01*
X154277297Y-95427297D01*
X154871268Y-94833326D01*
X155725000Y-94833326D01*
X155890827Y-94800341D01*
X156031408Y-94706408D01*
X156125341Y-94565827D01*
X156158326Y-94400000D01*
X156158326Y-92900000D01*
X156125341Y-92734173D01*
X156031408Y-92593592D01*
X155890827Y-92499659D01*
X155725000Y-92466674D01*
X154475000Y-92466674D01*
X154309173Y-92499659D01*
X154168592Y-92593592D01*
X154074659Y-92734173D01*
X154041674Y-92900000D01*
X154041674Y-93753732D01*
X153520406Y-94275000D01*
X153228000Y-94275000D01*
X153228000Y-94012250D01*
X153094750Y-93879000D01*
X152299000Y-93879000D01*
X152299000Y-93899000D01*
X151841000Y-93899000D01*
X151841000Y-93879000D01*
X151045250Y-93879000D01*
X150912000Y-94012250D01*
X150912000Y-94275000D01*
X149659721Y-94275000D01*
X149738000Y-94086021D01*
X149738000Y-93963250D01*
X149604750Y-93830000D01*
X148434000Y-93830000D01*
X148434000Y-93929000D01*
X147976000Y-93929000D01*
X147976000Y-93830000D01*
X146805250Y-93830000D01*
X146672000Y-93963250D01*
X146672000Y-94086021D01*
X146753145Y-94281920D01*
X146865036Y-94393812D01*
X146804659Y-94484173D01*
X146771674Y-94650000D01*
X146771674Y-95250000D01*
X146804659Y-95415827D01*
X146890969Y-95545000D01*
X146649594Y-95545000D01*
X146395000Y-95290406D01*
X146395000Y-93339594D01*
X146649594Y-93085000D01*
X146750279Y-93085000D01*
X146672000Y-93273979D01*
X146672000Y-93396750D01*
X146805250Y-93530000D01*
X147976000Y-93530000D01*
X147976000Y-93431000D01*
X148434000Y-93431000D01*
X148434000Y-93530000D01*
X149604750Y-93530000D01*
X149738000Y-93396750D01*
X149738000Y-93273979D01*
X149656855Y-93078080D01*
X149544964Y-92966188D01*
X149605341Y-92875827D01*
X149621621Y-92793980D01*
X150912000Y-92793980D01*
X150912000Y-93287750D01*
X151045250Y-93421000D01*
X151841000Y-93421000D01*
X151841000Y-92500250D01*
X152299000Y-92500250D01*
X152299000Y-93421000D01*
X153094750Y-93421000D01*
X153228000Y-93287750D01*
X153228000Y-92793980D01*
X153146856Y-92598080D01*
X152996920Y-92448145D01*
X152801021Y-92367000D01*
X152432250Y-92367000D01*
X152299000Y-92500250D01*
X151841000Y-92500250D01*
X151707750Y-92367000D01*
X151338979Y-92367000D01*
X151143080Y-92448145D01*
X150993144Y-92598080D01*
X150912000Y-92793980D01*
X149621621Y-92793980D01*
X149638326Y-92710000D01*
X149638326Y-92110000D01*
X149605341Y-91944173D01*
X149519031Y-91815000D01*
X151011674Y-91815000D01*
X151011674Y-91900000D01*
X151044659Y-92065827D01*
X151138592Y-92206408D01*
X151279173Y-92300341D01*
X151445000Y-92333326D01*
X152695000Y-92333326D01*
X152860827Y-92300341D01*
X153001408Y-92206408D01*
X153095341Y-92065827D01*
X153128326Y-91900000D01*
X153128326Y-90545000D01*
X153540406Y-90545000D01*
X154041674Y-91046268D01*
X154041674Y-91900000D01*
X154074659Y-92065827D01*
X154168592Y-92206408D01*
X154309173Y-92300341D01*
X154475000Y-92333326D01*
X155725000Y-92333326D01*
X155890827Y-92300341D01*
X156031408Y-92206408D01*
X156125341Y-92065827D01*
X156158326Y-91900000D01*
X156158326Y-90400000D01*
X156125341Y-90234173D01*
X156031408Y-90093592D01*
X155890827Y-89999659D01*
X155725000Y-89966674D01*
X154871268Y-89966674D01*
X154297297Y-89392703D01*
X154078312Y-89246381D01*
X153820000Y-89195000D01*
X149408753Y-89195000D01*
X149370827Y-89169659D01*
X149205000Y-89136674D01*
X147205000Y-89136674D01*
X147039173Y-89169659D01*
X146898592Y-89263592D01*
X146804659Y-89404173D01*
X146771674Y-89570000D01*
X146771674Y-90170000D01*
X146804659Y-90335827D01*
X146898592Y-90476408D01*
X146941383Y-90505000D01*
X146898592Y-90533592D01*
X146804659Y-90674173D01*
X146771674Y-90840000D01*
X146771674Y-91440000D01*
X146804659Y-91605827D01*
X146890969Y-91735000D01*
X146370000Y-91735000D01*
X146111688Y-91786381D01*
X145892703Y-91932703D01*
X145242703Y-92582703D01*
X145096381Y-92801688D01*
X145076826Y-92900000D01*
X145045000Y-93060000D01*
X145045000Y-95570000D01*
X145096381Y-95828312D01*
X145242703Y-96047297D01*
X145892703Y-96697297D01*
X146111688Y-96843619D01*
X146370000Y-96895000D01*
X146890969Y-96895000D01*
X146804659Y-97024173D01*
X146771674Y-97190000D01*
X146771674Y-97790000D01*
X146804659Y-97955827D01*
X146898592Y-98096408D01*
X146941383Y-98125000D01*
X146898592Y-98153592D01*
X146804659Y-98294173D01*
X146771674Y-98460000D01*
X146771674Y-99060000D01*
X146804659Y-99225827D01*
X146898592Y-99366408D01*
X146941383Y-99395000D01*
X146898592Y-99423592D01*
X146804659Y-99564173D01*
X146771674Y-99730000D01*
X146771674Y-100330000D01*
X146804659Y-100495827D01*
X146898592Y-100636408D01*
X146941383Y-100665000D01*
X146898592Y-100693592D01*
X146804659Y-100834173D01*
X146771674Y-101000000D01*
X146771674Y-101600000D01*
X146804659Y-101765827D01*
X146898592Y-101906408D01*
X146941383Y-101935000D01*
X146898592Y-101963592D01*
X146804659Y-102104173D01*
X146771674Y-102270000D01*
X146771674Y-102870000D01*
X146804659Y-103035827D01*
X146898592Y-103176408D01*
X146941383Y-103205000D01*
X146898592Y-103233592D01*
X146804659Y-103374173D01*
X146771674Y-103540000D01*
X146771674Y-104140000D01*
X146804659Y-104305827D01*
X146898592Y-104446408D01*
X146941383Y-104475000D01*
X146898592Y-104503592D01*
X146804659Y-104644173D01*
X146771674Y-104810000D01*
X146771674Y-105410000D01*
X146804659Y-105575827D01*
X146898592Y-105716408D01*
X146941383Y-105745000D01*
X146898592Y-105773592D01*
X146804659Y-105914173D01*
X146771674Y-106080000D01*
X146771674Y-106680000D01*
X146804659Y-106845827D01*
X146898592Y-106986408D01*
X147039173Y-107080341D01*
X147205000Y-107113326D01*
X149205000Y-107113326D01*
X149370827Y-107080341D01*
X149483583Y-107005000D01*
X156010000Y-107005000D01*
X156249177Y-106957425D01*
X156451942Y-106821942D01*
X158023884Y-105250000D01*
X160591674Y-105250000D01*
X160591674Y-105500000D01*
X160611565Y-105600000D01*
X160591674Y-105700000D01*
X160591674Y-106150000D01*
X160611565Y-106250000D01*
X160591674Y-106350000D01*
X160591674Y-106800000D01*
X160624659Y-106965827D01*
X160718592Y-107106408D01*
X160859173Y-107200341D01*
X161025000Y-107233326D01*
X162775000Y-107233326D01*
X162940827Y-107200341D01*
X163081408Y-107106408D01*
X163175341Y-106965827D01*
X163208326Y-106800000D01*
X163208326Y-106350000D01*
X163188435Y-106250000D01*
X163208326Y-106150000D01*
X163208326Y-105700000D01*
X163188435Y-105600000D01*
X163208326Y-105500000D01*
X163208326Y-105050000D01*
X163188435Y-104950000D01*
X163208326Y-104850000D01*
X163208326Y-104400000D01*
X163188435Y-104300000D01*
X163208326Y-104200000D01*
X163208326Y-103750000D01*
X163188435Y-103650000D01*
X163208326Y-103550000D01*
X163208326Y-103100000D01*
X163188435Y-103000000D01*
X163208326Y-102900000D01*
X163208326Y-102570449D01*
X163226855Y-102551920D01*
X163308000Y-102356021D01*
X163308000Y-102270750D01*
X163174750Y-102137500D01*
X163072291Y-102137500D01*
X162940827Y-102049659D01*
X162816858Y-102025000D01*
X162940827Y-102000341D01*
X163072291Y-101912500D01*
X163174750Y-101912500D01*
X163308000Y-101779250D01*
X163308000Y-101693979D01*
X163226855Y-101498080D01*
X163208326Y-101479551D01*
X163208326Y-101150000D01*
X163188435Y-101050000D01*
X163208326Y-100950000D01*
X163208326Y-100700000D01*
X163296116Y-100700000D01*
X165195000Y-102598884D01*
X165195000Y-106591116D01*
X160418058Y-111368058D01*
X160282575Y-111570823D01*
X160235000Y-111810000D01*
X160235000Y-115350000D01*
X160282575Y-115589177D01*
X160418058Y-115791942D01*
X161878058Y-117251942D01*
X162016674Y-117344562D01*
X162016674Y-117810000D01*
X162049659Y-117975827D01*
X162143592Y-118116408D01*
X162284173Y-118210341D01*
X162450000Y-118243326D01*
X164950000Y-118243326D01*
X165115827Y-118210341D01*
X165256408Y-118116408D01*
X165350341Y-117975827D01*
X165383326Y-117810000D01*
X165383326Y-117475000D01*
X167881674Y-117475000D01*
X167881674Y-117550000D01*
X167914659Y-117715827D01*
X168008592Y-117856408D01*
X168149173Y-117950341D01*
X168315000Y-117983326D01*
X169565000Y-117983326D01*
X169730827Y-117950341D01*
X169871408Y-117856408D01*
X169965341Y-117715827D01*
X169998326Y-117550000D01*
X169998326Y-117475000D01*
X172356674Y-117475000D01*
X172356674Y-117650000D01*
X172389659Y-117815827D01*
X172483592Y-117956408D01*
X172624173Y-118050341D01*
X172790000Y-118083326D01*
X174090000Y-118083326D01*
X174255827Y-118050341D01*
X174396408Y-117956408D01*
X174490341Y-117815827D01*
X174523326Y-117650000D01*
X174523326Y-117162250D01*
X176532000Y-117162250D01*
X176532000Y-117656020D01*
X176613144Y-117851920D01*
X176763080Y-118001855D01*
X176958979Y-118083000D01*
X177327750Y-118083000D01*
X177461000Y-117949750D01*
X177461000Y-117029000D01*
X177919000Y-117029000D01*
X177919000Y-117949750D01*
X178052250Y-118083000D01*
X178421021Y-118083000D01*
X178616920Y-118001855D01*
X178766856Y-117851920D01*
X178848000Y-117656020D01*
X178848000Y-117162250D01*
X178714750Y-117029000D01*
X177919000Y-117029000D01*
X177461000Y-117029000D01*
X176665250Y-117029000D01*
X176532000Y-117162250D01*
X174523326Y-117162250D01*
X174523326Y-116150000D01*
X174490341Y-115984173D01*
X174463485Y-115943980D01*
X176532000Y-115943980D01*
X176532000Y-116437750D01*
X176665250Y-116571000D01*
X177461000Y-116571000D01*
X177461000Y-115650250D01*
X177919000Y-115650250D01*
X177919000Y-116571000D01*
X178714750Y-116571000D01*
X178848000Y-116437750D01*
X178848000Y-115943980D01*
X178766856Y-115748080D01*
X178616920Y-115598145D01*
X178421021Y-115517000D01*
X178052250Y-115517000D01*
X177919000Y-115650250D01*
X177461000Y-115650250D01*
X177327750Y-115517000D01*
X176958979Y-115517000D01*
X176763080Y-115598145D01*
X176613144Y-115748080D01*
X176532000Y-115943980D01*
X174463485Y-115943980D01*
X174396408Y-115843592D01*
X174255827Y-115749659D01*
X174090000Y-115716674D01*
X172790000Y-115716674D01*
X172624173Y-115749659D01*
X172483592Y-115843592D01*
X172389659Y-115984173D01*
X172361647Y-116125000D01*
X169998326Y-116125000D01*
X169998326Y-116050000D01*
X169965341Y-115884173D01*
X169871408Y-115743592D01*
X169730827Y-115649659D01*
X169565000Y-115616674D01*
X168315000Y-115616674D01*
X168149173Y-115649659D01*
X168008592Y-115743592D01*
X167914659Y-115884173D01*
X167881674Y-116050000D01*
X167881674Y-116125000D01*
X165383326Y-116125000D01*
X165383326Y-115810000D01*
X165350341Y-115644173D01*
X165256408Y-115503592D01*
X165115827Y-115409659D01*
X164950000Y-115376674D01*
X162450000Y-115376674D01*
X162284173Y-115409659D01*
X162143592Y-115503592D01*
X162049659Y-115644173D01*
X162047734Y-115653850D01*
X161485000Y-115091116D01*
X161485000Y-114662250D01*
X167782000Y-114662250D01*
X167782000Y-115156020D01*
X167863144Y-115351920D01*
X168013080Y-115501855D01*
X168208979Y-115583000D01*
X168577750Y-115583000D01*
X168711000Y-115449750D01*
X168711000Y-114529000D01*
X169169000Y-114529000D01*
X169169000Y-115449750D01*
X169302250Y-115583000D01*
X169671021Y-115583000D01*
X169866920Y-115501855D01*
X170016856Y-115351920D01*
X170098000Y-115156020D01*
X170098000Y-114662250D01*
X169964750Y-114529000D01*
X169169000Y-114529000D01*
X168711000Y-114529000D01*
X167915250Y-114529000D01*
X167782000Y-114662250D01*
X161485000Y-114662250D01*
X161485000Y-113172250D01*
X161917000Y-113172250D01*
X161917000Y-113916020D01*
X161998144Y-114111920D01*
X162148080Y-114261855D01*
X162343979Y-114343000D01*
X163337750Y-114343000D01*
X163471000Y-114209750D01*
X163471000Y-113039000D01*
X163929000Y-113039000D01*
X163929000Y-114209750D01*
X164062250Y-114343000D01*
X165056021Y-114343000D01*
X165251920Y-114261855D01*
X165401856Y-114111920D01*
X165483000Y-113916020D01*
X165483000Y-113443980D01*
X167782000Y-113443980D01*
X167782000Y-113937750D01*
X167915250Y-114071000D01*
X168711000Y-114071000D01*
X168711000Y-113150250D01*
X169169000Y-113150250D01*
X169169000Y-114071000D01*
X169964750Y-114071000D01*
X170098000Y-113937750D01*
X170098000Y-113443980D01*
X170016856Y-113248080D01*
X169866920Y-113098145D01*
X169671021Y-113017000D01*
X169302250Y-113017000D01*
X169169000Y-113150250D01*
X168711000Y-113150250D01*
X168577750Y-113017000D01*
X168208979Y-113017000D01*
X168013080Y-113098145D01*
X167863144Y-113248080D01*
X167782000Y-113443980D01*
X165483000Y-113443980D01*
X165483000Y-113172250D01*
X165349750Y-113039000D01*
X163929000Y-113039000D01*
X163471000Y-113039000D01*
X162050250Y-113039000D01*
X161917000Y-113172250D01*
X161485000Y-113172250D01*
X161485000Y-112068884D01*
X161964444Y-111589440D01*
X161917000Y-111703980D01*
X161917000Y-112447750D01*
X162050250Y-112581000D01*
X163471000Y-112581000D01*
X163471000Y-111410250D01*
X163929000Y-111410250D01*
X163929000Y-112581000D01*
X165349750Y-112581000D01*
X165483000Y-112447750D01*
X165483000Y-111703980D01*
X165401856Y-111508080D01*
X165251920Y-111358145D01*
X165056021Y-111277000D01*
X164062250Y-111277000D01*
X163929000Y-111410250D01*
X163471000Y-111410250D01*
X163337750Y-111277000D01*
X162343979Y-111277000D01*
X162229440Y-111324444D01*
X166261942Y-107291942D01*
X166397425Y-107089178D01*
X166445000Y-106850000D01*
X166445000Y-104678884D01*
X167173884Y-103950000D01*
X167791674Y-103950000D01*
X167791674Y-104079551D01*
X167773145Y-104098080D01*
X167692000Y-104293979D01*
X167692000Y-104379250D01*
X167825250Y-104512500D01*
X167927709Y-104512500D01*
X168059173Y-104600341D01*
X168183142Y-104625000D01*
X168059173Y-104649659D01*
X167927709Y-104737500D01*
X167825250Y-104737500D01*
X167692000Y-104870750D01*
X167692000Y-104956021D01*
X167773145Y-105151920D01*
X167791674Y-105170449D01*
X167791674Y-105500000D01*
X167811565Y-105600000D01*
X167791674Y-105700000D01*
X167791674Y-106150000D01*
X167811565Y-106250000D01*
X167791674Y-106350000D01*
X167791674Y-106800000D01*
X167824659Y-106965827D01*
X167918592Y-107106408D01*
X168059173Y-107200341D01*
X168225000Y-107233326D01*
X169975000Y-107233326D01*
X170140827Y-107200341D01*
X170141337Y-107200000D01*
X182907064Y-107200000D01*
X182936082Y-107243429D01*
X183101563Y-107354000D01*
X182936082Y-107464571D01*
X182724728Y-107780884D01*
X182650511Y-108154000D01*
X182688819Y-108346587D01*
X177918732Y-113116674D01*
X177065000Y-113116674D01*
X176899173Y-113149659D01*
X176758592Y-113243592D01*
X176664659Y-113384173D01*
X176636647Y-113525000D01*
X174523326Y-113525000D01*
X174523326Y-113450000D01*
X174490341Y-113284173D01*
X174396408Y-113143592D01*
X174255827Y-113049659D01*
X174090000Y-113016674D01*
X172790000Y-113016674D01*
X172624173Y-113049659D01*
X172483592Y-113143592D01*
X172389659Y-113284173D01*
X172356674Y-113450000D01*
X172356674Y-114950000D01*
X172389659Y-115115827D01*
X172483592Y-115256408D01*
X172624173Y-115350341D01*
X172790000Y-115383326D01*
X174090000Y-115383326D01*
X174255827Y-115350341D01*
X174396408Y-115256408D01*
X174490341Y-115115827D01*
X174523326Y-114950000D01*
X174523326Y-114875000D01*
X176631674Y-114875000D01*
X176631674Y-115050000D01*
X176664659Y-115215827D01*
X176758592Y-115356408D01*
X176899173Y-115450341D01*
X177065000Y-115483326D01*
X178315000Y-115483326D01*
X178480827Y-115450341D01*
X178621408Y-115356408D01*
X178715341Y-115215827D01*
X178748326Y-115050000D01*
X178748326Y-114196268D01*
X182301051Y-110643543D01*
X187438706Y-110643543D01*
X187610143Y-111020001D01*
X188009180Y-111394091D01*
X188521000Y-111587000D01*
X189021000Y-111587000D01*
X189021000Y-110433000D01*
X187521410Y-110433000D01*
X187438706Y-110643543D01*
X182301051Y-110643543D01*
X183180137Y-109764457D01*
X187438706Y-109764457D01*
X187521410Y-109975000D01*
X189021000Y-109975000D01*
X189021000Y-108821000D01*
X188521000Y-108821000D01*
X188009180Y-109013909D01*
X187610143Y-109387999D01*
X187438706Y-109764457D01*
X183180137Y-109764457D01*
X183815594Y-109129000D01*
X184224489Y-109129000D01*
X184597605Y-109054783D01*
X184913918Y-108843429D01*
X185125272Y-108527116D01*
X185172704Y-108288659D01*
X185375511Y-108329000D01*
X185974489Y-108329000D01*
X186347605Y-108254783D01*
X186663918Y-108043429D01*
X186875272Y-107727116D01*
X186949489Y-107354000D01*
X186875272Y-106980884D01*
X186663918Y-106664571D01*
X186498437Y-106554000D01*
X186663918Y-106443429D01*
X186875272Y-106127116D01*
X186949489Y-105754000D01*
X186875272Y-105380884D01*
X186663918Y-105064571D01*
X186347605Y-104853217D01*
X185974489Y-104779000D01*
X185375511Y-104779000D01*
X185283000Y-104797401D01*
X185283000Y-104724998D01*
X185121730Y-104724998D01*
X185209656Y-104562232D01*
X185053049Y-104277364D01*
X184729177Y-104002422D01*
X184324743Y-103872349D01*
X184154000Y-103999402D01*
X184154000Y-104725000D01*
X184174000Y-104725000D01*
X184174000Y-105183000D01*
X184154000Y-105183000D01*
X184154000Y-105203000D01*
X183696000Y-105203000D01*
X183696000Y-105183000D01*
X182728271Y-105183000D01*
X182640344Y-105345768D01*
X182796951Y-105630636D01*
X183012427Y-105813559D01*
X182936082Y-105864571D01*
X182879000Y-105950000D01*
X178701341Y-105950000D01*
X178794848Y-105724812D01*
X178795151Y-105376715D01*
X178662221Y-105055000D01*
X178416295Y-104808644D01*
X178094812Y-104675152D01*
X177746715Y-104674849D01*
X177425000Y-104807779D01*
X177178644Y-105053705D01*
X177076373Y-105300000D01*
X176183717Y-105300000D01*
X176233000Y-105181021D01*
X176233000Y-104812250D01*
X176099750Y-104679000D01*
X175179000Y-104679000D01*
X175179000Y-104699000D01*
X174721000Y-104699000D01*
X174721000Y-104679000D01*
X173800250Y-104679000D01*
X173667000Y-104812250D01*
X173667000Y-105181021D01*
X173716283Y-105300000D01*
X173560803Y-105300000D01*
X173600341Y-105240827D01*
X173633326Y-105075000D01*
X173633326Y-104562232D01*
X182640344Y-104562232D01*
X182728271Y-104725000D01*
X183696000Y-104725000D01*
X183696000Y-103999402D01*
X183525257Y-103872349D01*
X183120823Y-104002422D01*
X182796951Y-104277364D01*
X182640344Y-104562232D01*
X173633326Y-104562232D01*
X173633326Y-103825000D01*
X173612238Y-103718979D01*
X173667000Y-103718979D01*
X173667000Y-104087750D01*
X173800250Y-104221000D01*
X174721000Y-104221000D01*
X174721000Y-103425250D01*
X175179000Y-103425250D01*
X175179000Y-104221000D01*
X176099750Y-104221000D01*
X176233000Y-104087750D01*
X176233000Y-103718979D01*
X176151855Y-103523080D01*
X176001920Y-103373144D01*
X175930457Y-103343543D01*
X187438706Y-103343543D01*
X187610143Y-103720001D01*
X188009180Y-104094091D01*
X188521000Y-104287000D01*
X189021000Y-104287000D01*
X189021000Y-103133000D01*
X187521410Y-103133000D01*
X187438706Y-103343543D01*
X175930457Y-103343543D01*
X175806020Y-103292000D01*
X175312250Y-103292000D01*
X175179000Y-103425250D01*
X174721000Y-103425250D01*
X174587750Y-103292000D01*
X174093980Y-103292000D01*
X173898080Y-103373144D01*
X173748145Y-103523080D01*
X173667000Y-103718979D01*
X173612238Y-103718979D01*
X173600341Y-103659173D01*
X173506408Y-103518592D01*
X173365827Y-103424659D01*
X173200000Y-103391674D01*
X171700000Y-103391674D01*
X171534173Y-103424659D01*
X171393592Y-103518592D01*
X171299659Y-103659173D01*
X171266674Y-103825000D01*
X171266674Y-104650000D01*
X170141337Y-104650000D01*
X170140827Y-104649659D01*
X170016858Y-104625000D01*
X170140827Y-104600341D01*
X170272291Y-104512500D01*
X170374750Y-104512500D01*
X170508000Y-104379250D01*
X170508000Y-104293979D01*
X170426855Y-104098080D01*
X170408326Y-104079551D01*
X170408326Y-103750000D01*
X170388435Y-103650000D01*
X170408326Y-103550000D01*
X170408326Y-103220449D01*
X170426855Y-103201920D01*
X170508000Y-103006021D01*
X170508000Y-102920750D01*
X170374750Y-102787500D01*
X170272291Y-102787500D01*
X170140827Y-102699659D01*
X170016858Y-102675000D01*
X170140827Y-102650341D01*
X170141337Y-102650000D01*
X179912561Y-102650000D01*
X180033705Y-102771356D01*
X180355188Y-102904848D01*
X180703285Y-102905151D01*
X181025000Y-102772221D01*
X181271356Y-102526295D01*
X181297033Y-102464457D01*
X187438706Y-102464457D01*
X187521410Y-102675000D01*
X189021000Y-102675000D01*
X189021000Y-101521000D01*
X188521000Y-101521000D01*
X188009180Y-101713909D01*
X187610143Y-102087999D01*
X187438706Y-102464457D01*
X181297033Y-102464457D01*
X181404848Y-102204812D01*
X181405148Y-101859917D01*
X181465188Y-101884848D01*
X181813285Y-101885151D01*
X182135000Y-101752221D01*
X182381356Y-101506295D01*
X182514848Y-101184812D01*
X182515151Y-100836715D01*
X182382221Y-100515000D01*
X182136295Y-100268644D01*
X181814812Y-100135152D01*
X181466715Y-100134849D01*
X181145000Y-100267779D01*
X181027574Y-100385000D01*
X171580000Y-100385000D01*
X171340823Y-100432575D01*
X171138058Y-100568058D01*
X170956116Y-100750000D01*
X170408326Y-100750000D01*
X170408326Y-100620449D01*
X170426855Y-100601920D01*
X170508000Y-100406021D01*
X170508000Y-100320750D01*
X170374750Y-100187500D01*
X170272291Y-100187500D01*
X170194937Y-100135814D01*
X170276920Y-100101856D01*
X170426855Y-99951920D01*
X170456218Y-99881032D01*
X170508000Y-99829250D01*
X170508000Y-99670750D01*
X170456218Y-99618968D01*
X170426855Y-99548080D01*
X170276920Y-99398144D01*
X170194937Y-99364186D01*
X170272291Y-99312500D01*
X170374750Y-99312500D01*
X170508000Y-99179250D01*
X170508000Y-99093979D01*
X170426855Y-98898080D01*
X170408326Y-98879551D01*
X170408326Y-98550000D01*
X170388435Y-98450000D01*
X170408326Y-98350000D01*
X170408326Y-97900000D01*
X170375341Y-97734173D01*
X170281408Y-97593592D01*
X170140827Y-97499659D01*
X170117405Y-97495000D01*
X172466674Y-97495000D01*
X172466674Y-98100000D01*
X172499659Y-98265827D01*
X172593592Y-98406408D01*
X172734173Y-98500341D01*
X172900000Y-98533326D01*
X174400000Y-98533326D01*
X174565827Y-98500341D01*
X174706408Y-98406408D01*
X174800341Y-98265827D01*
X174833326Y-98100000D01*
X174833326Y-96800000D01*
X175166674Y-96800000D01*
X175166674Y-98100000D01*
X175199659Y-98265827D01*
X175293592Y-98406408D01*
X175434173Y-98500341D01*
X175600000Y-98533326D01*
X177100000Y-98533326D01*
X177265827Y-98500341D01*
X177406408Y-98406408D01*
X177500341Y-98265827D01*
X177528353Y-98125000D01*
X179057412Y-98125000D01*
X179093705Y-98161356D01*
X179415188Y-98294848D01*
X179763285Y-98295151D01*
X180085000Y-98162221D01*
X180331356Y-97916295D01*
X180444508Y-97643795D01*
X185974805Y-97643795D01*
X186145715Y-98057429D01*
X186461907Y-98374172D01*
X186875242Y-98545804D01*
X187322795Y-98546195D01*
X187736429Y-98375285D01*
X188053172Y-98059093D01*
X188224804Y-97645758D01*
X188225195Y-97198205D01*
X188054285Y-96784571D01*
X187738093Y-96467828D01*
X187324758Y-96296196D01*
X186877205Y-96295805D01*
X186463571Y-96466715D01*
X186146828Y-96782907D01*
X185975196Y-97196242D01*
X185974805Y-97643795D01*
X180444508Y-97643795D01*
X180464848Y-97594812D01*
X180465151Y-97246715D01*
X180332221Y-96925000D01*
X180086295Y-96678644D01*
X179764812Y-96545152D01*
X179416715Y-96544849D01*
X179095000Y-96677779D01*
X178997609Y-96775000D01*
X177528353Y-96775000D01*
X177500341Y-96634173D01*
X177406408Y-96493592D01*
X177265827Y-96399659D01*
X177100000Y-96366674D01*
X175600000Y-96366674D01*
X175434173Y-96399659D01*
X175293592Y-96493592D01*
X175199659Y-96634173D01*
X175166674Y-96800000D01*
X174833326Y-96800000D01*
X174800341Y-96634173D01*
X174706408Y-96493592D01*
X174565827Y-96399659D01*
X174400000Y-96366674D01*
X174325000Y-96366674D01*
X174325000Y-95103795D01*
X185974805Y-95103795D01*
X186145715Y-95517429D01*
X186461907Y-95834172D01*
X186875242Y-96005804D01*
X187322795Y-96006195D01*
X187736429Y-95835285D01*
X188053172Y-95519093D01*
X188224804Y-95105758D01*
X188225195Y-94658205D01*
X188054285Y-94244571D01*
X187738093Y-93927828D01*
X187324758Y-93756196D01*
X186877205Y-93755805D01*
X186463571Y-93926715D01*
X186146828Y-94242907D01*
X185975196Y-94656242D01*
X185974805Y-95103795D01*
X174325000Y-95103795D01*
X174325000Y-89933326D01*
X174400000Y-89933326D01*
X174565827Y-89900341D01*
X174706408Y-89806408D01*
X174800341Y-89665827D01*
X174833326Y-89500000D01*
X174833326Y-88200000D01*
X175166674Y-88200000D01*
X175166674Y-89500000D01*
X175199659Y-89665827D01*
X175293592Y-89806408D01*
X175434173Y-89900341D01*
X175600000Y-89933326D01*
X177100000Y-89933326D01*
X177265827Y-89900341D01*
X177406408Y-89806408D01*
X177500341Y-89665827D01*
X177528353Y-89525000D01*
X178907500Y-89525000D01*
X178993705Y-89611356D01*
X179315188Y-89744848D01*
X179663285Y-89745151D01*
X179985000Y-89612221D01*
X180231356Y-89366295D01*
X180345754Y-89090795D01*
X185974805Y-89090795D01*
X186145715Y-89504429D01*
X186461907Y-89821172D01*
X186875242Y-89992804D01*
X187322795Y-89993195D01*
X187736429Y-89822285D01*
X188053172Y-89506093D01*
X188224804Y-89092758D01*
X188225195Y-88645205D01*
X188054285Y-88231571D01*
X187738093Y-87914828D01*
X187324758Y-87743196D01*
X186877205Y-87742805D01*
X186463571Y-87913715D01*
X186146828Y-88229907D01*
X185975196Y-88643242D01*
X185974805Y-89090795D01*
X180345754Y-89090795D01*
X180364848Y-89044812D01*
X180365151Y-88696715D01*
X180232221Y-88375000D01*
X179986295Y-88128644D01*
X179664812Y-87995152D01*
X179316715Y-87994849D01*
X178995000Y-88127779D01*
X178947696Y-88175000D01*
X177528353Y-88175000D01*
X177500341Y-88034173D01*
X177406408Y-87893592D01*
X177265827Y-87799659D01*
X177100000Y-87766674D01*
X175600000Y-87766674D01*
X175434173Y-87799659D01*
X175293592Y-87893592D01*
X175199659Y-88034173D01*
X175166674Y-88200000D01*
X174833326Y-88200000D01*
X174800341Y-88034173D01*
X174706408Y-87893592D01*
X174565827Y-87799659D01*
X174400000Y-87766674D01*
X172900000Y-87766674D01*
X172734173Y-87799659D01*
X172593592Y-87893592D01*
X172499659Y-88034173D01*
X172466674Y-88200000D01*
X172466674Y-89500000D01*
X172499659Y-89665827D01*
X172593592Y-89806408D01*
X172734173Y-89900341D01*
X172900000Y-89933326D01*
X172975000Y-89933326D01*
X172975000Y-96245000D01*
X167130005Y-96245000D01*
X167130000Y-96244999D01*
X166890823Y-96292575D01*
X166688058Y-96428058D01*
X165378058Y-97738058D01*
X165242575Y-97940823D01*
X165195000Y-98180000D01*
X165195000Y-100831116D01*
X163996942Y-99633058D01*
X163794177Y-99497575D01*
X163555000Y-99450000D01*
X163208326Y-99450000D01*
X163208326Y-99200000D01*
X163188435Y-99100000D01*
X163208326Y-99000000D01*
X163208326Y-98550000D01*
X163188435Y-98450000D01*
X163208326Y-98350000D01*
X163208326Y-97900000D01*
X163175341Y-97734173D01*
X163081408Y-97593592D01*
X162940827Y-97499659D01*
X162775000Y-97466674D01*
X161025000Y-97466674D01*
X160859173Y-97499659D01*
X160858663Y-97500000D01*
X160853883Y-97500000D01*
X159995000Y-96641116D01*
X159995000Y-87010000D01*
X159947425Y-86770823D01*
X159947425Y-86770822D01*
X159893158Y-86689606D01*
X159811942Y-86568058D01*
X159811939Y-86568056D01*
X159794679Y-86550795D01*
X185974805Y-86550795D01*
X186145715Y-86964429D01*
X186461907Y-87281172D01*
X186875242Y-87452804D01*
X187322795Y-87453195D01*
X187736429Y-87282285D01*
X188053172Y-86966093D01*
X188224804Y-86552758D01*
X188225195Y-86105205D01*
X188054285Y-85691571D01*
X187738093Y-85374828D01*
X187324758Y-85203196D01*
X186877205Y-85202805D01*
X186463571Y-85373715D01*
X186146828Y-85689907D01*
X185975196Y-86103242D01*
X185974805Y-86550795D01*
X159794679Y-86550795D01*
X158011942Y-84768058D01*
X157809177Y-84632575D01*
X157570000Y-84585000D01*
X143230005Y-84585000D01*
X143230000Y-84584999D01*
X142990823Y-84632575D01*
X142788058Y-84768058D01*
X142788056Y-84768061D01*
X141048058Y-86508058D01*
X140912575Y-86710823D01*
X140865000Y-86950000D01*
X140865000Y-102471116D01*
X140121116Y-103215000D01*
X140083583Y-103215000D01*
X140068617Y-103205000D01*
X140111408Y-103176408D01*
X140205341Y-103035827D01*
X140238326Y-102870000D01*
X140238326Y-102270000D01*
X140205341Y-102104173D01*
X140111408Y-101963592D01*
X140068617Y-101935000D01*
X140111408Y-101906408D01*
X140205341Y-101765827D01*
X140238326Y-101600000D01*
X140238326Y-101000000D01*
X140205341Y-100834173D01*
X140111408Y-100693592D01*
X140068617Y-100665000D01*
X140111408Y-100636408D01*
X140205341Y-100495827D01*
X140238326Y-100330000D01*
X140238326Y-99730000D01*
X140205341Y-99564173D01*
X140111408Y-99423592D01*
X140068617Y-99395000D01*
X140111408Y-99366408D01*
X140205341Y-99225827D01*
X140238326Y-99060000D01*
X140238326Y-98460000D01*
X140205341Y-98294173D01*
X140111408Y-98153592D01*
X140068617Y-98125000D01*
X140111408Y-98096408D01*
X140205341Y-97955827D01*
X140238326Y-97790000D01*
X140238326Y-97190000D01*
X140205341Y-97024173D01*
X140111408Y-96883592D01*
X140068617Y-96855000D01*
X140111408Y-96826408D01*
X140205341Y-96685827D01*
X140238326Y-96520000D01*
X140238326Y-95920000D01*
X140205341Y-95754173D01*
X140111408Y-95613592D01*
X140068617Y-95585000D01*
X140111408Y-95556408D01*
X140205341Y-95415827D01*
X140238326Y-95250000D01*
X140238326Y-94650000D01*
X140205341Y-94484173D01*
X140111408Y-94343592D01*
X140068617Y-94315000D01*
X140111408Y-94286408D01*
X140205341Y-94145827D01*
X140238326Y-93980000D01*
X140238326Y-93380000D01*
X140205341Y-93214173D01*
X140111408Y-93073592D01*
X140068617Y-93045000D01*
X140111408Y-93016408D01*
X140205341Y-92875827D01*
X140238326Y-92710000D01*
X140238326Y-92110000D01*
X140205341Y-91944173D01*
X140111408Y-91803592D01*
X140068617Y-91775000D01*
X140111408Y-91746408D01*
X140205341Y-91605827D01*
X140238326Y-91440000D01*
X140238326Y-90840000D01*
X140205341Y-90674173D01*
X140111408Y-90533592D01*
X140068617Y-90505000D01*
X140111408Y-90476408D01*
X140205341Y-90335827D01*
X140238326Y-90170000D01*
X140238326Y-89570000D01*
X140205341Y-89404173D01*
X140111408Y-89263592D01*
X139970827Y-89169659D01*
X139805000Y-89136674D01*
X138091268Y-89136674D01*
X136967297Y-88012703D01*
X136748312Y-87866381D01*
X136490000Y-87815000D01*
X134470000Y-87815000D01*
X134211689Y-87866381D01*
X134032457Y-87986140D01*
X133992703Y-88012703D01*
X133073732Y-88931674D01*
X132220000Y-88931674D01*
X132054173Y-88964659D01*
X131913592Y-89058592D01*
X131819659Y-89199173D01*
X131786674Y-89365000D01*
X131786674Y-90615000D01*
X131819659Y-90780827D01*
X131913592Y-90921408D01*
X132054173Y-91015341D01*
X132220000Y-91048326D01*
X133720000Y-91048326D01*
X133885827Y-91015341D01*
X134026408Y-90921408D01*
X134120341Y-90780827D01*
X134153326Y-90615000D01*
X134153326Y-89761268D01*
X134286674Y-89627920D01*
X134286674Y-90615000D01*
X134319659Y-90780827D01*
X134413592Y-90921408D01*
X134554173Y-91015341D01*
X134720000Y-91048326D01*
X135573732Y-91048326D01*
X135857080Y-91331674D01*
X134720000Y-91331674D01*
X134554173Y-91364659D01*
X134413592Y-91458592D01*
X134319659Y-91599173D01*
X134286674Y-91765000D01*
X134286674Y-93005000D01*
X134253000Y-93005000D01*
X134253000Y-92752250D01*
X134119750Y-92619000D01*
X133199000Y-92619000D01*
X133199000Y-92639000D01*
X132741000Y-92639000D01*
X132741000Y-92619000D01*
X131820250Y-92619000D01*
X131687000Y-92752250D01*
X131687000Y-93005000D01*
X131020000Y-93005000D01*
X130761688Y-93056381D01*
X130542703Y-93202703D01*
X129190406Y-94555000D01*
X124412535Y-94555000D01*
X124346295Y-94488644D01*
X124024812Y-94355152D01*
X123676715Y-94354849D01*
X123355000Y-94487779D01*
X123108644Y-94733705D01*
X122975152Y-95055188D01*
X122974849Y-95403285D01*
X123107779Y-95725000D01*
X123353705Y-95971356D01*
X123675188Y-96104848D01*
X124023285Y-96105151D01*
X124345000Y-95972221D01*
X124412339Y-95905000D01*
X129470000Y-95905000D01*
X129728312Y-95853619D01*
X129768922Y-95826484D01*
X128990475Y-96604931D01*
X128896715Y-96604849D01*
X128575000Y-96737779D01*
X128328644Y-96983705D01*
X128195152Y-97305188D01*
X128194849Y-97653285D01*
X128327779Y-97975000D01*
X128437587Y-98085000D01*
X126892535Y-98085000D01*
X126826295Y-98018644D01*
X126504812Y-97885152D01*
X126156715Y-97884849D01*
X125835000Y-98017779D01*
X125588644Y-98263705D01*
X125550400Y-98355806D01*
X124895069Y-97700475D01*
X124895151Y-97606715D01*
X124762221Y-97285000D01*
X124516295Y-97038644D01*
X124194812Y-96905152D01*
X123846715Y-96904849D01*
X123525000Y-97037779D01*
X123278644Y-97283705D01*
X123145152Y-97605188D01*
X123144849Y-97953285D01*
X123277779Y-98275000D01*
X123523705Y-98521356D01*
X123845188Y-98654848D01*
X123940337Y-98654931D01*
X125792703Y-100507297D01*
X125968858Y-100625000D01*
X124597915Y-100625000D01*
X124482221Y-100345000D01*
X124236295Y-100098644D01*
X123914812Y-99965152D01*
X123566715Y-99964849D01*
X123245000Y-100097779D01*
X122998644Y-100343705D01*
X122865152Y-100665188D01*
X122864849Y-101013285D01*
X122997779Y-101335000D01*
X123243705Y-101581356D01*
X123565188Y-101714848D01*
X123660337Y-101714931D01*
X123722703Y-101777297D01*
X123898857Y-101895000D01*
X122809594Y-101895000D01*
X122185000Y-101270406D01*
X122185000Y-99320000D01*
X122133619Y-99061689D01*
X122133619Y-99061688D01*
X121987297Y-98842703D01*
X121065069Y-97920475D01*
X121065151Y-97826715D01*
X120932221Y-97505000D01*
X120686295Y-97258644D01*
X120364812Y-97125152D01*
X120016715Y-97124849D01*
X119695000Y-97257779D01*
X119448644Y-97503705D01*
X119315152Y-97825188D01*
X119314849Y-98173285D01*
X116594849Y-98173285D01*
X116595212Y-97757401D01*
X116409110Y-97307000D01*
X116064813Y-96962101D01*
X115614737Y-96775213D01*
X115127401Y-96774788D01*
X114677000Y-96960890D01*
X114332101Y-97305187D01*
X114145213Y-97755263D01*
X114144788Y-98242599D01*
X113273145Y-98242599D01*
X113074737Y-98160213D01*
X112587401Y-98159788D01*
X112137000Y-98345890D01*
X111792101Y-98690187D01*
X111605213Y-99140263D01*
X111604788Y-99627599D01*
X105000000Y-99627599D01*
X105000000Y-96857599D01*
X111604788Y-96857599D01*
X111790890Y-97308000D01*
X112135187Y-97652899D01*
X112585263Y-97839787D01*
X113072599Y-97840212D01*
X113523000Y-97654110D01*
X113867899Y-97309813D01*
X114054787Y-96859737D01*
X114055212Y-96372401D01*
X113869110Y-95922000D01*
X113524813Y-95577101D01*
X113273145Y-95472599D01*
X114144788Y-95472599D01*
X114330890Y-95923000D01*
X114675187Y-96267899D01*
X115125263Y-96454787D01*
X115612599Y-96455212D01*
X116063000Y-96269110D01*
X116407899Y-95924813D01*
X116594787Y-95474737D01*
X116595212Y-94987401D01*
X116409110Y-94537000D01*
X116064813Y-94192101D01*
X115614737Y-94005213D01*
X115127401Y-94004788D01*
X114677000Y-94190890D01*
X114332101Y-94535187D01*
X114145213Y-94985263D01*
X114144788Y-95472599D01*
X113273145Y-95472599D01*
X113074737Y-95390213D01*
X112587401Y-95389788D01*
X112137000Y-95575890D01*
X111792101Y-95920187D01*
X111605213Y-96370263D01*
X111604788Y-96857599D01*
X105000000Y-96857599D01*
X105000000Y-94087599D01*
X111604788Y-94087599D01*
X111790890Y-94538000D01*
X112135187Y-94882899D01*
X112585263Y-95069787D01*
X113072599Y-95070212D01*
X113523000Y-94884110D01*
X113867899Y-94539813D01*
X114054787Y-94089737D01*
X114055212Y-93602401D01*
X113869110Y-93152000D01*
X113524813Y-92807101D01*
X113273145Y-92702599D01*
X114144788Y-92702599D01*
X114330890Y-93153000D01*
X114675187Y-93497899D01*
X115125263Y-93684787D01*
X115612599Y-93685212D01*
X116063000Y-93499110D01*
X116407899Y-93154813D01*
X116594787Y-92704737D01*
X116595212Y-92217401D01*
X116409110Y-91767000D01*
X116301278Y-91658979D01*
X131687000Y-91658979D01*
X131687000Y-92027750D01*
X131820250Y-92161000D01*
X132741000Y-92161000D01*
X132741000Y-91365250D01*
X133199000Y-91365250D01*
X133199000Y-92161000D01*
X134119750Y-92161000D01*
X134253000Y-92027750D01*
X134253000Y-91658979D01*
X134171855Y-91463080D01*
X134021920Y-91313144D01*
X133826020Y-91232000D01*
X133332250Y-91232000D01*
X133199000Y-91365250D01*
X132741000Y-91365250D01*
X132607750Y-91232000D01*
X132113980Y-91232000D01*
X131918080Y-91313144D01*
X131768145Y-91463080D01*
X131687000Y-91658979D01*
X116301278Y-91658979D01*
X116064813Y-91422101D01*
X115614737Y-91235213D01*
X115127401Y-91234788D01*
X114677000Y-91420890D01*
X114332101Y-91765187D01*
X114145213Y-92215263D01*
X114144788Y-92702599D01*
X113273145Y-92702599D01*
X113074737Y-92620213D01*
X112587401Y-92619788D01*
X112137000Y-92805890D01*
X111792101Y-93150187D01*
X111605213Y-93600263D01*
X111604788Y-94087599D01*
X105000000Y-94087599D01*
X105000000Y-86084266D01*
X111174494Y-86084266D01*
X111618860Y-87159715D01*
X112440957Y-87983248D01*
X113515629Y-88429491D01*
X114679266Y-88430506D01*
X115754715Y-87986140D01*
X116578248Y-87164043D01*
X117024491Y-86089371D01*
X117025506Y-84925734D01*
X116581140Y-83850285D01*
X115759043Y-83026752D01*
X114684371Y-82580509D01*
X113520734Y-82579494D01*
X112445285Y-83023860D01*
X111621752Y-83845957D01*
X111175509Y-84920629D01*
X111174494Y-86084266D01*
X105000000Y-86084266D01*
X105000000Y-77525246D01*
X183044580Y-77525246D01*
X183412986Y-78416858D01*
X184094554Y-79099617D01*
X184985521Y-79469579D01*
X185950246Y-79470420D01*
X186841858Y-79102014D01*
X187524617Y-78420446D01*
X187894579Y-77529479D01*
X187895420Y-76564754D01*
X187527014Y-75673142D01*
X186845446Y-74990383D01*
X185954479Y-74620421D01*
X184989754Y-74619580D01*
X184098142Y-74987986D01*
X183415383Y-75669554D01*
X183045421Y-76560521D01*
X183044580Y-77525246D01*
X105000000Y-77525246D01*
X105000000Y-74350246D01*
X117004580Y-74350246D01*
X117372986Y-75241858D01*
X118054554Y-75924617D01*
X118945521Y-76294579D01*
X119910246Y-76295420D01*
X120801858Y-75927014D01*
X121484617Y-75245446D01*
X121854579Y-74354479D01*
X121855420Y-73389754D01*
X121487014Y-72498142D01*
X120805446Y-71815383D01*
X119914479Y-71445421D01*
X118949754Y-71444580D01*
X118058142Y-71812986D01*
X117375383Y-72494554D01*
X117005421Y-73385521D01*
X117004580Y-74350246D01*
X105000000Y-74350246D01*
X105000000Y-71000000D01*
X114000000Y-71000000D01*
X114191342Y-70961940D01*
X114353553Y-70853553D01*
X114461940Y-70691342D01*
X114500000Y-70500000D01*
X114500000Y-66096461D01*
X177254775Y-66096461D01*
X177451512Y-66572600D01*
X177815483Y-66937208D01*
X178291278Y-67134775D01*
X178806461Y-67135225D01*
X179282600Y-66938488D01*
X179647208Y-66574517D01*
X179844775Y-66098722D01*
X179845225Y-65583539D01*
X179648488Y-65107400D01*
X179284517Y-64742792D01*
X178808722Y-64545225D01*
X178293539Y-64544775D01*
X177817400Y-64741512D01*
X177452792Y-65105483D01*
X177255225Y-65581278D01*
X177254775Y-66096461D01*
X114500000Y-66096461D01*
X114500000Y-63100000D01*
X181500000Y-63100000D01*
X181500000Y-70500000D01*
G36*
X160859173Y-102000341D02*
X160983142Y-102025000D01*
X160859173Y-102049659D01*
X160727709Y-102137500D01*
X160625250Y-102137500D01*
X160492000Y-102270750D01*
X160492000Y-102356021D01*
X160573145Y-102551920D01*
X160591674Y-102570449D01*
X160591674Y-102700000D01*
X155985000Y-102700000D01*
X155745823Y-102747575D01*
X155543058Y-102883058D01*
X155211116Y-103215000D01*
X149483583Y-103215000D01*
X149468617Y-103205000D01*
X149483583Y-103195000D01*
X153930000Y-103195000D01*
X154169177Y-103147425D01*
X154371942Y-103011942D01*
X155383884Y-102000000D01*
X160858663Y-102000000D01*
X160859173Y-102000341D01*
X160859173Y-102000341D01*
G37*
X160859173Y-102000341D02*
X160983142Y-102025000D01*
X160859173Y-102049659D01*
X160727709Y-102137500D01*
X160625250Y-102137500D01*
X160492000Y-102270750D01*
X160492000Y-102356021D01*
X160573145Y-102551920D01*
X160591674Y-102570449D01*
X160591674Y-102700000D01*
X155985000Y-102700000D01*
X155745823Y-102747575D01*
X155543058Y-102883058D01*
X155211116Y-103215000D01*
X149483583Y-103215000D01*
X149468617Y-103205000D01*
X149483583Y-103195000D01*
X153930000Y-103195000D01*
X154169177Y-103147425D01*
X154371942Y-103011942D01*
X155383884Y-102000000D01*
X160858663Y-102000000D01*
X160859173Y-102000341D01*
G36*
X168059173Y-97499659D02*
X167918592Y-97593592D01*
X167824659Y-97734173D01*
X167791674Y-97900000D01*
X167791674Y-98350000D01*
X167811565Y-98450000D01*
X167791674Y-98550000D01*
X167791674Y-98879551D01*
X167773145Y-98898080D01*
X167692000Y-99093979D01*
X167692000Y-99179250D01*
X167825250Y-99312500D01*
X167927709Y-99312500D01*
X168005063Y-99364186D01*
X167923080Y-99398144D01*
X167773145Y-99548080D01*
X167743782Y-99618968D01*
X167692000Y-99670750D01*
X167692000Y-99829250D01*
X167743782Y-99881032D01*
X167773145Y-99951920D01*
X167923080Y-100101856D01*
X168005063Y-100135814D01*
X167927709Y-100187500D01*
X167825250Y-100187500D01*
X167692000Y-100320750D01*
X167692000Y-100406021D01*
X167773145Y-100601920D01*
X167791674Y-100620449D01*
X167791674Y-100950000D01*
X167811565Y-101050000D01*
X167791674Y-101150000D01*
X167791674Y-101600000D01*
X167811565Y-101700000D01*
X167791674Y-101800000D01*
X167791674Y-102129551D01*
X167773145Y-102148080D01*
X167692000Y-102343979D01*
X167692000Y-102429250D01*
X167825250Y-102562500D01*
X167927709Y-102562500D01*
X168059173Y-102650341D01*
X168183142Y-102675000D01*
X168059173Y-102699659D01*
X168058663Y-102700000D01*
X166915000Y-102700000D01*
X166675823Y-102747575D01*
X166473058Y-102883058D01*
X166445000Y-102911116D01*
X166445000Y-102340005D01*
X166445001Y-102340000D01*
X166445000Y-102339995D01*
X166445000Y-98438884D01*
X167388884Y-97495000D01*
X168082595Y-97495000D01*
X168059173Y-97499659D01*
X168059173Y-97499659D01*
G37*
X168059173Y-97499659D02*
X167918592Y-97593592D01*
X167824659Y-97734173D01*
X167791674Y-97900000D01*
X167791674Y-98350000D01*
X167811565Y-98450000D01*
X167791674Y-98550000D01*
X167791674Y-98879551D01*
X167773145Y-98898080D01*
X167692000Y-99093979D01*
X167692000Y-99179250D01*
X167825250Y-99312500D01*
X167927709Y-99312500D01*
X168005063Y-99364186D01*
X167923080Y-99398144D01*
X167773145Y-99548080D01*
X167743782Y-99618968D01*
X167692000Y-99670750D01*
X167692000Y-99829250D01*
X167743782Y-99881032D01*
X167773145Y-99951920D01*
X167923080Y-100101856D01*
X168005063Y-100135814D01*
X167927709Y-100187500D01*
X167825250Y-100187500D01*
X167692000Y-100320750D01*
X167692000Y-100406021D01*
X167773145Y-100601920D01*
X167791674Y-100620449D01*
X167791674Y-100950000D01*
X167811565Y-101050000D01*
X167791674Y-101150000D01*
X167791674Y-101600000D01*
X167811565Y-101700000D01*
X167791674Y-101800000D01*
X167791674Y-102129551D01*
X167773145Y-102148080D01*
X167692000Y-102343979D01*
X167692000Y-102429250D01*
X167825250Y-102562500D01*
X167927709Y-102562500D01*
X168059173Y-102650341D01*
X168183142Y-102675000D01*
X168059173Y-102699659D01*
X168058663Y-102700000D01*
X166915000Y-102700000D01*
X166675823Y-102747575D01*
X166473058Y-102883058D01*
X166445000Y-102911116D01*
X166445000Y-102340005D01*
X166445001Y-102340000D01*
X166445000Y-102339995D01*
X166445000Y-98438884D01*
X167388884Y-97495000D01*
X168082595Y-97495000D01*
X168059173Y-97499659D01*
M02*
