G04 #@! TF.FileFunction,Other,User*
%FSLAX46Y46*%
G04 Gerber Fmt 4.6, Leading zero omitted, Abs format (unit mm)*
G04 Created by KiCad (PCBNEW no-vcs-found-product) date Thu Nov 24 16:10:56 2016*
%MOMM*%
%LPD*%
G01*
G04 APERTURE LIST*
%ADD10C,0.100000*%
%ADD11C,0.050000*%
G04 APERTURE END LIST*
D10*
D11*
X162100000Y-118110000D02*
X162100000Y-111510000D01*
X165300000Y-118110000D02*
X165300000Y-111510000D01*
X162100000Y-118110000D02*
X165300000Y-118110000D01*
X162100000Y-111510000D02*
X165300000Y-111510000D01*
X167940000Y-117850000D02*
X167940000Y-113250000D01*
X169940000Y-117850000D02*
X169940000Y-113250000D01*
X167940000Y-117850000D02*
X169940000Y-117850000D01*
X167940000Y-113250000D02*
X169940000Y-113250000D01*
X178690000Y-113250000D02*
X178690000Y-117850000D01*
X176690000Y-113250000D02*
X176690000Y-117850000D01*
X178690000Y-113250000D02*
X176690000Y-113250000D01*
X178690000Y-117850000D02*
X176690000Y-117850000D01*
X131920000Y-88990000D02*
X136520000Y-88990000D01*
X131920000Y-90990000D02*
X136520000Y-90990000D01*
X131920000Y-88990000D02*
X131920000Y-90990000D01*
X136520000Y-88990000D02*
X136520000Y-90990000D01*
X171400000Y-103450000D02*
X176000000Y-103450000D01*
X171400000Y-105450000D02*
X176000000Y-105450000D01*
X171400000Y-103450000D02*
X171400000Y-105450000D01*
X176000000Y-103450000D02*
X176000000Y-105450000D01*
X156100000Y-90100000D02*
X156100000Y-94700000D01*
X154100000Y-90100000D02*
X154100000Y-94700000D01*
X156100000Y-90100000D02*
X154100000Y-90100000D01*
X156100000Y-94700000D02*
X154100000Y-94700000D01*
X153070000Y-90100000D02*
X153070000Y-94700000D01*
X151070000Y-90100000D02*
X151070000Y-94700000D01*
X153070000Y-90100000D02*
X151070000Y-90100000D01*
X153070000Y-94700000D02*
X151070000Y-94700000D01*
X172440000Y-117950000D02*
X172440000Y-113150000D01*
X174440000Y-117950000D02*
X174440000Y-113150000D01*
X172440000Y-117950000D02*
X174440000Y-117950000D01*
X172440000Y-113150000D02*
X174440000Y-113150000D01*
X172600000Y-96450000D02*
X177400000Y-96450000D01*
X172600000Y-98450000D02*
X177400000Y-98450000D01*
X172600000Y-96450000D02*
X172600000Y-98450000D01*
X177400000Y-96450000D02*
X177400000Y-98450000D01*
X172600000Y-87850000D02*
X177400000Y-87850000D01*
X172600000Y-89850000D02*
X177400000Y-89850000D01*
X172600000Y-87850000D02*
X172600000Y-89850000D01*
X177400000Y-87850000D02*
X177400000Y-89850000D01*
X160750000Y-96850000D02*
X160750000Y-107850000D01*
X170250000Y-96850000D02*
X170250000Y-107850000D01*
X160750000Y-96850000D02*
X170250000Y-96850000D01*
X160750000Y-107850000D02*
X170250000Y-107850000D01*
X137555000Y-88825000D02*
X137555000Y-107425000D01*
X149455000Y-88825000D02*
X149455000Y-107425000D01*
X137555000Y-88825000D02*
X149455000Y-88825000D01*
X137555000Y-107425000D02*
X149455000Y-107425000D01*
X119390000Y-130330000D02*
G75*
G03X119390000Y-130330000I-1550000J0D01*
G01*
X180100000Y-65840000D02*
G75*
G03X180100000Y-65840000I-1550000J0D01*
G01*
X136520000Y-93390000D02*
X131920000Y-93390000D01*
X136520000Y-91390000D02*
X131920000Y-91390000D01*
X136520000Y-93390000D02*
X136520000Y-91390000D01*
X131920000Y-93390000D02*
X131920000Y-91390000D01*
M02*
